<?xml version="1.0" standalone="no"?>
<!DOCTYPE svg PUBLIC "-//W3C//DTD SVG 1.1//EN" "http://www.w3.org/Graphics/SVG/1.1/DTD/svg11.dtd" >
<svg>
<metadata>
Created by FontForge 20090622 at Mon Apr  6 13:46:17 2015
 By deploy user
2005 Hans Reichel, non-western version by Inka Strotmann published by FSI FontShop International GmbH
</metadata>
<defs>
<font id="DaxPro-Light" horiz-adv-x="510" >
  <font-face 
    font-family="DaxPro-Light"
    font-weight="350"
    font-stretch="normal"
    units-per-em="1000"
    panose-1="2 11 5 4 3 1 1 2 1 2"
    ascent="785"
    descent="-215"
    x-height="539"
    cap-height="688"
    bbox="-120 -302 1140 990"
    underline-thickness="40"
    underline-position="-55"
    unicode-range="U+000D-U+FB02"
  />
<missing-glyph horiz-adv-x="511" 
d="M77 0v688h357v-688h-357zM115 38h281v612h-281v-612z" />
    <glyph glyph-name=".notdef" horiz-adv-x="511" 
d="M77 0v688h357v-688h-357zM115 38h281v612h-281v-612z" />
    <glyph glyph-name=".null" horiz-adv-x="0" 
 />
    <glyph glyph-name=".null" horiz-adv-x="0" 
 />
    <glyph glyph-name="nonmarkingreturn" horiz-adv-x="333" 
 />
    <glyph glyph-name="CR" unicode="&#xd;" horiz-adv-x="280" 
 />
    <glyph glyph-name="space" unicode=" " horiz-adv-x="280" 
 />
    <glyph glyph-name="exclam" unicode="!" horiz-adv-x="254" 
d="M163 688l-11 -473h-40l-11 473h62zM174 37q0 -17 -12.5 -29.5t-29.5 -12.5t-29.5 12.5t-12.5 29.5t12.5 29.5t29.5 12.5t29.5 -12.5t12.5 -29.5z" />
    <glyph glyph-name="quotedbl" unicode="&#x22;" horiz-adv-x="360" 
d="M284 679l-15 -233h-32l-15 233q12 17 31 17t31 -17zM138 679l-15 -233h-32l-15 233q12 17 31 17t31 -17z" />
    <glyph glyph-name="numbersign" unicode="#" horiz-adv-x="640" 
d="M580 437h-124l-23 -172h119v-32h-124l-31 -233h-36l31 233h-176l-31 -233h-36l31 233h-120v32h125l23 172h-120v32h124l30 219h36l-30 -219h176l30 219h36l-30 -219h120v-32zM420 437h-176l-23 -172h176z" />
    <glyph glyph-name="dollar" unicode="$" horiz-adv-x="490" 
d="M423 172q0 -70 -46 -120t-123 -60v-118h-40v116q-95 0 -155 37l19 38q52 -32 139 -32q66 0 107.5 37t41.5 104q0 52 -31 87t-74.5 56l-87.5 43.5t-75 64.5t-31 105q0 69 43 113t115 53v113h40v-111q74 -1 131 -37l-18 -35q-52 32 -119 32q-64 0 -100 -33.5t-36 -93.5
q0 -52 31 -86.5t75 -55l88 -43t75 -66t31 -108.5z" />
    <glyph glyph-name="percent" unicode="%" horiz-adv-x="820" 
d="M756 203q0 -88 -32.5 -150.5t-97.5 -62.5t-97.5 62.5t-32.5 150.5t32.5 150.5t97.5 62.5t97.5 -62.5t32.5 -150.5zM546 682l-237 -688l-36 12l237 688zM324 485q0 -88 -32.5 -150.5t-97.5 -62.5t-97.5 62.5t-32.5 150.5t32.5 150.5t97.5 62.5t97.5 -62.5t32.5 -150.5z
M711 204q0 46 -7 84.5t-27 67.5t-51 29t-51 -29t-27 -67.5t-7 -84.5t7 -84.5t27 -67.5t51 -29t51 29t27 67.5t7 84.5zM279 486q0 46 -7 84.5t-27 67.5t-51 29t-51 -29t-27 -67.5t-7 -84.5t7 -84.5t27 -67.5t51 -29t51 29t27 67.5t7 84.5z" />
    <glyph glyph-name="ampersand" unicode="&#x26;" horiz-adv-x="594" 
d="M583 413l-126 -21v-364q-61 -38 -166 -38q-112 0 -175 48.5t-63 137.5q0 144 191 202v2q-75 14 -114 55t-39 103q0 76 55.5 118t131.5 42q72 0 127 -34l-17 -34q-48 29 -110 29q-55 0 -93.5 -31t-38.5 -90q0 -58 41.5 -95t105.5 -37q58 0 138 16l144 30zM404 49v335
q-153 -24 -223 -72.5t-70 -135.5q0 -68 46.5 -107.5t134.5 -39.5q64 0 112 20z" />
    <glyph glyph-name="quotesingle" unicode="'" horiz-adv-x="214" 
d="M138 679l-15 -233h-32l-15 233q12 17 31 17t31 -17z" />
    <glyph glyph-name="parenleft" unicode="(" horiz-adv-x="326" 
d="M292 -203l-32 -22q-194 230 -194 511t194 511l32 -22q-169 -214 -169 -489t169 -489z" />
    <glyph glyph-name="parenright" unicode=")" horiz-adv-x="326" 
d="M260 286q0 -281 -194 -511l-32 22q169 214 169 489t-169 489l32 22q194 -230 194 -511z" />
    <glyph glyph-name="asterisk" unicode="*" horiz-adv-x="414" 
d="M354 737q0 -17 -11 -28t-28 -11t-28 11t-11 28t11 28t28 11t28 -11t11 -28zM246 817q0 -17 -11 -28t-28 -11t-28 11t-11 28t11 28t28 11t28 -11t11 -28zM242 704q0 -15 -10 -25t-25 -10q-14 0 -24.5 10t-10.5 25t10.5 25t24.5 10q15 0 25 -10t10 -25zM313 612
q0 -16 -11.5 -27.5t-27.5 -11.5t-27.5 11.5t-11.5 27.5t11.5 27.5t27.5 11.5t27.5 -11.5t11.5 -27.5zM138 737q0 -17 -11 -28t-28 -11t-28 11t-11 28t11 28t28 11t28 -11t11 -28zM179 612q0 -16 -11.5 -27.5t-27.5 -11.5t-27.5 11.5t-11.5 27.5t11.5 27.5t27.5 11.5
t27.5 -11.5t11.5 -27.5z" />
    <glyph glyph-name="plus" unicode="+" 
d="M444 318h-167v-169h-44v169h-167v40h167v169h44v-169h167v-40z" />
    <glyph glyph-name="comma" unicode="," horiz-adv-x="238" 
d="M164 60l-106 -205h-34l73 205q13 19 38 19q23 0 29 -19z" />
    <glyph glyph-name="hyphen" unicode="-" horiz-adv-x="338" 
d="M273 314h-208v48h208v-48z" />
    <glyph glyph-name="period" unicode="." horiz-adv-x="236" 
d="M160 37q0 -17 -12.5 -29.5t-29.5 -12.5t-29.5 12.5t-12.5 29.5t12.5 29.5t29.5 12.5t29.5 -12.5t12.5 -29.5z" />
    <glyph glyph-name="slash" unicode="/" horiz-adv-x="434" 
d="M394 777l-344 -992l-46 18l344 992z" />
    <glyph glyph-name="zero" unicode="0" horiz-adv-x="514" 
d="M452 344q0 -69 -9.5 -128t-30.5 -112t-60.5 -83.5t-94.5 -30.5t-94.5 30.5t-60.5 83.5t-30.5 112t-9.5 128t9.5 128t30.5 112t60.5 83.5t94.5 30.5t94.5 -30.5t60.5 -83.5t30.5 -112t9.5 -128zM398 345q0 59 -6 109t-20 100t-43.5 79t-71.5 29t-71.5 -29t-43.5 -79
t-20 -100t-6 -109t6 -109t20 -100t43.5 -79t71.5 -29t71.5 29t43.5 79t20 100t6 109z" />
    <glyph glyph-name="one" unicode="1" horiz-adv-x="382" 
d="M268 0h-54v604q-31 -20 -85 -35.5t-98 -20.5l-7 33q155 25 209 107h35v-688z" />
    <glyph glyph-name="two" unicode="2" horiz-adv-x="468" 
d="M408 0h-384l250 354q64 90 64 166q0 66 -37.5 101t-112.5 35q-69 0 -129 -30l-17 36q67 36 155 36q98 0 149 -47t51 -131q0 -79 -83 -192l-207 -283h301v-45z" />
    <glyph glyph-name="three" unicode="3" horiz-adv-x="454" 
d="M398 194q0 -92 -61 -148t-152 -56q-98 0 -161 34l16 38q59 -31 137 -31q74 0 119 43.5t45 119.5q0 83 -53 123t-134 40h-24v35q80 6 131.5 46t51.5 104q0 60 -37 87.5t-91 27.5q-68 0 -129 -29l-17 36q68 34 151 34q73 0 126 -39.5t53 -109.5q0 -64 -40.5 -104.5
t-96.5 -59.5v-2q30 -6 56.5 -18.5t52.5 -34t41.5 -56.5t15.5 -80z" />
    <glyph glyph-name="four" unicode="4" horiz-adv-x="480" 
d="M432 167h-58v-167h-48v167h-286v40l285 481h49v-484h58v-37zM329 630h-2q-20 -44 -48 -93l-195 -333h242v323q0 43 3 103z" />
    <glyph glyph-name="five" unicode="5" horiz-adv-x="454" 
d="M398 195q0 -84 -61 -144.5t-154 -60.5q-97 0 -159 34l16 38q57 -31 137 -31q73 0 118.5 47.5t45.5 114.5q0 82 -46.5 128.5t-141.5 46.5q-51 0 -94 -7l34 327h291v-45h-252l-27 -244q45 5 68 5q103 0 164 -55.5t61 -153.5z" />
    <glyph glyph-name="six" unicode="6" horiz-adv-x="508" 
d="M452 197q0 -84 -49.5 -145.5t-143.5 -61.5t-146.5 67t-52.5 189q0 167 89 284t247 168l14 -36q-112 -40 -178 -102t-105 -176q52 21 110 21q99 0 157 -54.5t58 -153.5zM399 198q0 85 -42.5 129t-124.5 44q-56 0 -111 -21q-9 -44 -9 -104q0 -104 37.5 -160.5t111.5 -56.5
q69 0 103.5 49t34.5 120z" />
    <glyph glyph-name="seven" unicode="7" horiz-adv-x="444" 
d="M420 688l-95 -216q-54 -122 -106 -261t-73 -211h-69l278 643h-331v45h396z" />
    <glyph glyph-name="eight" unicode="8" horiz-adv-x="506" 
d="M450 158q0 -72 -57 -120t-140 -48q-79 0 -138 45.5t-59 122.5q0 39 12.5 70t39 55.5t48.5 39.5t60 36q-67 36 -103 75.5t-36 104.5q0 69 51.5 114t124.5 45t124.5 -45t51.5 -114q0 -63 -35 -101.5t-102 -75.5q36 -20 59.5 -35.5t48.5 -40t37.5 -56.5t12.5 -72zM380 539
q0 55 -35.5 88.5t-91.5 33.5t-91.5 -33t-35.5 -89q0 -54 33 -88t97 -69q61 35 92.5 69t31.5 88zM398 158q0 66 -37.5 105t-108.5 77q-34 -19 -55 -33t-44 -36t-34 -50t-11 -62q0 -59 42.5 -94.5t102.5 -35.5q62 0 103.5 36.5t41.5 92.5z" />
    <glyph glyph-name="nine" unicode="9" horiz-adv-x="508" 
d="M448 442q0 -167 -89 -284t-247 -168l-14 36q112 40 178 102t105 176q-52 -21 -110 -21q-99 0 -157 54.5t-58 153.5q0 84 49.5 145.5t143.5 61.5t146.5 -67t52.5 -189zM396 443q0 104 -37.5 161t-111.5 57q-69 0 -103.5 -49.5t-34.5 -120.5q0 -85 42.5 -129t124.5 -44
q56 0 111 21q9 44 9 104z" />
    <glyph glyph-name="colon" unicode=":" horiz-adv-x="246" 
d="M170 337q0 -17 -12.5 -29.5t-29.5 -12.5t-29.5 12.5t-12.5 29.5t12.5 29.5t29.5 12.5t29.5 -12.5t12.5 -29.5zM170 37q0 -17 -12.5 -29.5t-29.5 -12.5t-29.5 12.5t-12.5 29.5t12.5 29.5t29.5 12.5t29.5 -12.5t12.5 -29.5z" />
    <glyph glyph-name="semicolon" unicode=";" horiz-adv-x="246" 
d="M170 337q0 -17 -12.5 -29.5t-29.5 -12.5t-29.5 12.5t-12.5 29.5t12.5 29.5t29.5 12.5t29.5 -12.5t12.5 -29.5zM172 60l-106 -205h-34l73 205q13 19 38 19q23 0 29 -19z" />
    <glyph glyph-name="less" unicode="&#x3c;" 
d="M444 146l-378 172v40l378 172v-47l-330 -144v-2l330 -144v-47z" />
    <glyph glyph-name="equal" unicode="=" 
d="M444 402h-378v40h378v-40zM444 234h-378v40h378v-40z" />
    <glyph glyph-name="greater" unicode="&#x3e;" 
d="M444 318l-378 -172v47l330 144v2l-330 144v47l378 -172v-40z" />
    <glyph glyph-name="question" unicode="?" horiz-adv-x="380" 
d="M360 541q0 -59 -47 -102.5t-98 -57.5l-8 -166h-40l-8 185q56 14 101 49t45 92q0 53 -32.5 84.5t-94.5 31.5t-106 -27l-18 32q54 36 130 36q80 0 128 -42.5t48 -114.5zM229 37q0 -17 -12.5 -29.5t-29.5 -12.5t-29.5 12.5t-12.5 29.5t12.5 29.5t29.5 12.5t29.5 -12.5
t12.5 -29.5z" />
    <glyph glyph-name="at" unicode="@" horiz-adv-x="914" 
d="M857 370q0 -70 -25.5 -137.5t-70.5 -122t-114.5 -88t-150.5 -33.5q-111 0 -169.5 66t-58.5 167q0 123 67.5 209t176.5 86q79 0 129 -42l-67 -442q96 24 166.5 114t70.5 223q0 125 -70.5 209t-208.5 84q-99 0 -181.5 -38t-135.5 -101t-82.5 -142.5t-29.5 -163.5
q0 -75 22.5 -141.5t65 -119.5t113 -84t158.5 -31q221 0 370 137l23 -27q-157 -146 -393 -146q-97 0 -175.5 33t-128 90t-75.5 130t-26 155q0 93 33 179.5t93 154.5t151.5 109t200.5 41q154 0 238 -94.5t84 -233.5zM592 460q-37 23 -85 23q-88 0 -140.5 -77.5t-52.5 -182.5
q0 -93 48 -145.5t137 -52.5q19 0 29 1z" />
    <glyph glyph-name="A" unicode="A" horiz-adv-x="572" 
d="M546 0h-60l-76 235h-253l-77 -235h-54l237 688h46zM397 272l-90 278q-9 29 -22 89h-2q-16 -66 -23 -89l-91 -278h228z" />
    <glyph glyph-name="B" unicode="B" horiz-adv-x="543" 
d="M490 184q0 -99 -65.5 -146.5t-169.5 -47.5q-105 0 -172 36v636q72 36 163 36q100 0 157.5 -46t57.5 -121q0 -129 -138 -164v-2q68 -10 117.5 -60.5t49.5 -120.5zM406 526q0 135 -163 135q-61 0 -107 -18v-264h60q109 0 159.5 36.5t50.5 110.5zM432 179q0 89 -58 129.5
t-178 40.5h-60v-301q44 -19 114 -19q81 0 131.5 36t50.5 114z" />
    <glyph glyph-name="C" unicode="C" horiz-adv-x="472" 
d="M437 27q-55 -37 -127 -37q-82 0 -140 50.5t-84.5 129t-26.5 174.5t26.5 174.5t84.5 129t140 50.5q72 0 127 -37l-17 -35q-48 32 -110 32q-49 0 -86.5 -26.5t-60 -71.5t-33.5 -99.5t-11 -115.5q0 -130 48.5 -221.5t142.5 -91.5q62 0 110 32z" />
    <glyph glyph-name="D" unicode="D" horiz-adv-x="583" 
d="M524 344q0 -166 -73 -260t-203 -94q-93 0 -165 36v636q72 36 165 36q130 0 203 -94t73 -260zM465 345q0 149 -55.5 231.5t-163.5 82.5q-67 0 -106 -17v-594q39 -17 106 -17q108 0 163.5 82.5t55.5 231.5z" />
    <glyph glyph-name="E" unicode="E" horiz-adv-x="433" 
d="M386 0h-303v688h303v-39h-246v-272h223v-39h-223v-299h246v-39z" />
    <glyph glyph-name="F" unicode="F" horiz-adv-x="425" 
d="M384 649h-244v-272h222v-39h-222v-338h-57v688h301v-39z" />
    <glyph glyph-name="G" unicode="G" horiz-adv-x="583" 
d="M506 26q-63 -36 -165 -36q-55 0 -104 21t-89.5 62.5t-64.5 111t-24 159.5q0 164 78.5 259t208.5 95q81 0 145 -37l-17 -35q-59 31 -128 31q-106 0 -167 -83.5t-61 -229.5q0 -153 64.5 -233t158.5 -80q67 0 108 17v290h-147v39h204v-351z" />
    <glyph glyph-name="H" unicode="H" horiz-adv-x="581" 
d="M498 0h-57v338h-301v-338h-57v688h57v-311h301v311h57v-688z" />
    <glyph glyph-name="I" unicode="I" horiz-adv-x="231" 
d="M144 0h-57v688h57v-688z" />
    <glyph glyph-name="J" unicode="J" horiz-adv-x="231" 
d="M144 688v-621q0 -107 -50.5 -183t-140.5 -104v42q62 27 98 90t36 155v621h57z" />
    <glyph glyph-name="K" unicode="K" 
d="M488 0h-73l-271 363h-2v-363h-55v688h55v-323h2l266 323h68l-281 -323z" />
    <glyph glyph-name="L" unicode="L" horiz-adv-x="400" 
d="M367 0h-280v688h57v-649h223v-39z" />
    <glyph glyph-name="M" unicode="M" horiz-adv-x="774" 
d="M714 0h-56l-62 575q-4 34 -6 79h-2q-12 -57 -18 -79l-162 -575h-48l-161 575q-9 32 -18 79h-2q-2 -40 -6 -79l-63 -575h-50l86 688h67l155 -552q10 -37 18 -84h2q8 45 18 84l155 552h67z" />
    <glyph glyph-name="N" unicode="N" horiz-adv-x="644" 
d="M561 0h-58l-335 576q-21 35 -38 74h-2q3 -54 3 -86v-564h-48v688h73l321 -555q21 -35 37 -73h2q-3 42 -3 83v545h48v-688z" />
    <glyph glyph-name="O" unicode="O" horiz-adv-x="596" 
d="M537 344q0 -157 -59.5 -255.5t-179.5 -98.5t-179.5 98.5t-59.5 255.5t59.5 255.5t179.5 98.5t179.5 -98.5t59.5 -255.5zM479 345q0 87 -15.5 154t-57.5 113t-108 46t-108 -46t-57.5 -113t-15.5 -154t15.5 -154t57.5 -113t108 -46t108 46t57.5 113t15.5 154z" />
    <glyph glyph-name="P" unicode="P" horiz-adv-x="501" 
d="M456 496q0 -89 -59.5 -146t-178.5 -57q-37 0 -79 7v-300h-56v662q70 36 153 36q108 0 164 -54t56 -148zM400 498q0 163 -164 163q-53 0 -97 -17v-308q35 -6 79 -6q96 0 139 46.5t43 121.5z" />
    <glyph glyph-name="Q" unicode="Q" horiz-adv-x="596" 
d="M537 344q0 -117 -33.5 -204t-101.5 -125l123 -159l-44 -40l-113 185q-33 -11 -70 -11q-120 0 -179.5 98.5t-59.5 255.5t59.5 255.5t179.5 98.5t179.5 -98.5t59.5 -255.5zM479 345q0 87 -15.5 154t-57.5 113t-108 46t-108 -46t-57.5 -113t-15.5 -154t15.5 -154t57.5 -113
t108 -46t108 46t57.5 113t15.5 154z" />
    <glyph glyph-name="R" unicode="R" horiz-adv-x="522" 
d="M480 0h-68l-149 235q-51 79 -123 92v-327h-55v662q67 36 153 36q106 0 164 -49t58 -140q0 -76 -59 -130t-151 -62v-2q39 -29 69 -75zM405 509q0 152 -167 152q-54 0 -98 -17v-291q31 -6 73 -6q86 0 139 45t53 117z" />
    <glyph glyph-name="S" unicode="S" horiz-adv-x="474" 
d="M414 172q0 -79 -57 -130.5t-149 -51.5q-98 0 -158 37l19 38q52 -32 139 -32q70 0 109.5 38.5t39.5 99.5q0 53 -31 88.5t-74.5 56.5l-87.5 43.5t-75 65t-31 105.5q0 77 53 122.5t139 45.5q79 0 137 -37l-18 -35q-52 32 -119 32q-64 0 -100 -33.5t-36 -93.5q0 -52 31 -86.5
t75 -55l88 -43t75 -66t31 -108.5z" />
    <glyph glyph-name="T" unicode="T" horiz-adv-x="427" 
d="M397 649h-155v-649h-57v649h-155v39h367v-39z" />
    <glyph glyph-name="U" unicode="U" horiz-adv-x="570" 
d="M487 193q0 -86 -54.5 -145t-147.5 -59t-147.5 59t-54.5 145v495h57v-495q0 -72 43.5 -115t104.5 -43t104.5 43t43.5 115v495h51v-495z" />
    <glyph glyph-name="V" unicode="V" horiz-adv-x="512" 
d="M482 688l-200 -688h-50l-200 688h61l142 -526q9 -35 23 -107h2q12 64 23 107l145 526h54z" />
    <glyph glyph-name="W" unicode="W" horiz-adv-x="806" 
d="M764 688l-164 -688h-50l-131 539q-8 32 -14 82h-2q-6 -50 -14 -82l-131 -539h-50l-164 688h61l114 -545q10 -49 14 -85h2q8 49 16 85l133 545h48l129 -545q7 -30 15 -85h2q8 54 15 85l118 545h53z" />
    <glyph glyph-name="X" unicode="X" horiz-adv-x="508" 
d="M476 0h-64l-157 319h-2l-163 -319h-58l194 358l-174 330h61l140 -285h2l146 285h55l-174 -324z" />
    <glyph glyph-name="Y" unicode="Y" horiz-adv-x="486" 
d="M463 688l-191 -375v-313h-57v313l-190 375h63l157 -337h2l161 337h55z" />
    <glyph glyph-name="Z" unicode="Z" horiz-adv-x="428" 
d="M395 0h-367l284 649h-272v39h346l-283 -649h292v-39z" />
    <glyph glyph-name="bracketleft" unicode="[" horiz-adv-x="310" 
d="M260 -215h-176v1000h176v-34h-126v-931h126v-35z" />
    <glyph glyph-name="backslash" unicode="\" horiz-adv-x="434" 
d="M430 -197l-46 -18l-344 992l46 18z" />
    <glyph glyph-name="bracketright" unicode="]" horiz-adv-x="310" 
d="M226 -215h-176v35h126v931h-126v34h176v-1000z" />
    <glyph glyph-name="asciicircum" unicode="^" horiz-adv-x="470" 
d="M410 508l-28 -22l-147 158l-147 -158l-28 22l145 174q11 14 30 14t30 -14z" />
    <glyph glyph-name="underscore" unicode="_" horiz-adv-x="490" 
d="M500 -115h-510v40h510v-40z" />
    <glyph glyph-name="grave" unicode="`" horiz-adv-x="222" 
d="M152 600h-34l-106 129q7 18 30 18q19 0 34 -13z" />
    <glyph glyph-name="a" unicode="a" horiz-adv-x="478" 
d="M401 27q-71 -37 -163 -37q-89 0 -139 41.5t-50 118.5q0 169 301 199v37q0 124 -126 124q-68 0 -130 -35l-15 35q70 39 146 39q84 0 130 -41.5t46 -122.5v-358zM350 46v270q-124 -15 -186 -52t-62 -114q0 -61 36.5 -93.5t106.5 -32.5q63 0 105 22z" />
    <glyph glyph-name="b" unicode="b" horiz-adv-x="505" 
d="M450 276q0 -129 -59.5 -207.5t-170.5 -78.5q-86 0 -143 37v758h53v-264q49 26 115 26q92 0 148.5 -74t56.5 -197zM396 276q0 108 -44 172t-121 64q-55 0 -101 -24v-444q35 -16 90 -16q91 0 133.5 67t42.5 181z" />
    <glyph glyph-name="c" unicode="c" horiz-adv-x="407" 
d="M367 24q-42 -34 -113 -34q-94 0 -146.5 78t-52.5 202t52.5 201.5t146.5 77.5q71 0 113 -34l-15 -34q-39 29 -94 29q-70 0 -109 -67.5t-39 -171.5q0 -102 39.5 -171t108.5 -69q54 0 93 29z" />
    <glyph glyph-name="d" unicode="d" horiz-adv-x="505" 
d="M428 27q-54 -37 -150 -37q-109 0 -166 74t-57 194q0 124 60 205.5t173 81.5q41 0 87 -13v253h53v-758zM375 46v453q-39 11 -79 11q-51 0 -88.5 -21t-58.5 -57t-30.5 -77.5t-9.5 -89.5q0 -107 42.5 -172t131.5 -65q61 0 92 18z" />
    <glyph glyph-name="e" unicode="e" horiz-adv-x="507" 
d="M452 297l-346 -53q5 -100 51 -156.5t130 -56.5q76 0 129 33l17 -37q-59 -37 -147 -37q-109 0 -170 73t-61 208q0 128 54.5 203t149.5 75q92 0 142.5 -62t50.5 -190zM399 324q-3 188 -140 188q-75 0 -114.5 -63t-39.5 -170z" />
    <glyph glyph-name="f" unicode="f" horiz-adv-x="289" 
d="M260 506h-100v-506h-54v506h-63v33h63v87q0 72 38 115.5t110 43.5h6v-36q-100 0 -100 -122v-88h100v-33z" />
    <glyph glyph-name="g" unicode="g" horiz-adv-x="505" 
d="M428 -15q0 -97 -50 -153.5t-142 -56.5q-87 0 -149 36l20 37q53 -31 121 -31q76 0 112 43.5t36 116.5v42q-44 -27 -114 -27q-96 0 -151.5 72.5t-55.5 196.5q0 130 59.5 209t169.5 79q89 0 144 -36v-528zM376 55v441q-36 18 -91 18q-89 0 -132.5 -67.5t-43.5 -185.5
q0 -232 167 -232q58 0 100 26z" />
    <glyph glyph-name="h" unicode="h" horiz-adv-x="511" 
d="M434 0h-54v386q0 121 -124 121q-68 0 -125 -35v-472h-54v785h54v-279q57 37 128 37q93 0 134 -46t41 -109v-388z" />
    <glyph glyph-name="i" unicode="i" horiz-adv-x="222" 
d="M148 690q0 -15 -11 -26t-26 -11t-26 11t-11 26t11 26t26 11t26 -11t11 -26zM138 0h-54v539h54v-539z" />
    <glyph glyph-name="j" unicode="j" horiz-adv-x="227" 
d="M153 690q0 -15 -11 -26t-26 -11t-26 11t-11 26t11 26t26 11t26 -11t11 -26zM143 68q0 -113 -36 -183t-122 -106v37q58 39 81 94.5t23 151.5v477h54v-471z" />
    <glyph glyph-name="k" unicode="k" horiz-adv-x="454" 
d="M444 0h-68l-239 281h-2v-281h-52v785h52v-502h2l222 256h64l-233 -257z" />
    <glyph glyph-name="l" unicode="l" horiz-adv-x="224" 
d="M139 0h-54v785h54v-785z" />
    <glyph glyph-name="m" unicode="m" horiz-adv-x="814" 
d="M737 0h-54v380q0 133 -126 133q-74 0 -123 -62v-451h-54v398q0 53 -32 84t-98 31q-70 0 -119 -21v-492h-54v512q79 37 173 37q107 0 158 -68q53 68 149 68q91 0 135.5 -45t44.5 -124v-380z" />
    <glyph glyph-name="n" unicode="n" horiz-adv-x="511" 
d="M434 0h-54v376q0 71 -32 104t-106 33q-63 0 -111 -21v-492h-54v512q76 37 165 37q192 0 192 -173v-376z" />
    <glyph glyph-name="o" unicode="o" horiz-adv-x="506" 
d="M451 270q0 -127 -49.5 -203.5t-148.5 -76.5t-148.5 76.5t-49.5 203.5t49.5 203t148.5 76t148.5 -76t49.5 -203zM397 272q0 50 -7.5 91.5t-23.5 76t-45 54t-68 19.5q-52 0 -85 -34.5t-46 -86.5t-13 -120t13 -120.5t46.5 -87.5t84.5 -35t84.5 35t46.5 87.5t13 120.5z" />
    <glyph glyph-name="p" unicode="p" horiz-adv-x="505" 
d="M450 281q0 -136 -63 -212.5t-171 -76.5q-48 0 -86 14v-221h-53v728q63 36 149 36q107 0 165.5 -73.5t58.5 -194.5zM396 275q0 239 -175 239q-54 0 -91 -18v-454q35 -13 77 -13q92 0 140.5 64.5t48.5 181.5z" />
    <glyph glyph-name="q" unicode="q" horiz-adv-x="505" 
d="M428 -215h-52v234q-44 -27 -114 -27q-96 0 -151.5 72.5t-55.5 196.5q0 130 59.5 209t169.5 79q89 0 144 -36v-728zM376 55v441q-36 18 -91 18q-89 0 -132.5 -67.5t-43.5 -185.5q0 -232 167 -232q58 0 100 26z" />
    <glyph glyph-name="r" unicode="r" horiz-adv-x="303" 
d="M279 546l-15 -45q-22 7 -54 7q-45 0 -79 -17v-491h-54v512q72 36 166 36q16 0 36 -2z" />
    <glyph glyph-name="s" unicode="s" horiz-adv-x="404" 
d="M351 142q0 -62 -48.5 -107t-121.5 -45q-82 0 -134 36l17 37q48 -32 114 -32q53 0 86 31.5t33 78.5q0 42 -24.5 68t-59.5 40.5l-70 30t-59.5 48t-24.5 82.5q0 58 42 98.5t112 40.5q71 0 120 -36l-16 -35q-46 32 -102 32q-51 0 -77.5 -28t-26.5 -71q0 -38 24.5 -62.5
t60 -38.5t71 -30.5t60 -50.5t24.5 -87z" />
    <glyph glyph-name="t" unicode="t" horiz-adv-x="299" 
d="M260 2q-15 -5 -40 -5q-50 0 -82 32t-32 91v386h-63v33h63v129l54 20v-149h100v-33h-100v-386q0 -85 75 -85q15 0 25 3v-36z" />
    <glyph glyph-name="u" unicode="u" horiz-adv-x="500" 
d="M423 30q-69 -40 -167 -40q-179 0 -179 169v380h54v-380q0 -131 125 -131q71 0 113 22v489h54v-509z" />
    <glyph glyph-name="v" unicode="v" horiz-adv-x="472" 
d="M438 539l-179 -539h-44l-179 539h58l130 -423q6 -18 14 -62h2q4 31 14 62l134 423h50z" />
    <glyph glyph-name="w" unicode="w" horiz-adv-x="756" 
d="M716 539l-156 -539h-43l-125 432q-7 24 -12 59h-2q-5 -38 -12 -59l-125 -432h-43l-156 539h57l110 -425q8 -30 11 -60h2q6 35 13 60l123 425h49l121 -425q7 -26 12 -60h2q4 31 12 60l111 425h51z" />
    <glyph glyph-name="x" unicode="x" horiz-adv-x="450" 
d="M417 0h-59l-133 244h-2l-134 -244h-56l166 282l-148 257h57l117 -216h2l119 216h53l-148 -254z" />
    <glyph glyph-name="y" unicode="y" horiz-adv-x="472" 
d="M438 539l-250 -754h-60l90 215l-182 539h58l131 -425q10 -30 13 -60h2q8 36 15 60l133 425h50z" />
    <glyph glyph-name="z" unicode="z" horiz-adv-x="406" 
d="M363 0h-330l248 506h-232v33h304l-247 -506h257v-33z" />
    <glyph glyph-name="braceleft" unicode="{" horiz-adv-x="340" 
d="M290 -215h-10q-166 0 -166 171v196q0 54 -14.5 82.5t-53.5 35.5v34q39 7 53.5 35.5t14.5 82.5v192q0 171 166 171h10v-34q-69 0 -97.5 -34.5t-28.5 -102.5v-192q0 -58 -15.5 -88.5t-55.5 -45.5v-2q40 -15 55.5 -45.5t15.5 -88.5v-196q0 -67 28.5 -101.5t97.5 -34.5v-35z
" />
    <glyph glyph-name="bar" unicode="|" horiz-adv-x="218" 
d="M133 -215h-48v1000h48v-1000z" />
    <glyph glyph-name="braceright" unicode="}" horiz-adv-x="340" 
d="M294 270q-39 -7 -53.5 -35.5t-14.5 -82.5v-196q0 -171 -166 -171h-10v35q69 0 97.5 34.5t28.5 101.5v196q0 58 15.5 88.5t55.5 45.5v2q-40 15 -55.5 45.5t-15.5 88.5v192q0 68 -28.5 102.5t-97.5 34.5v34h10q166 0 166 -171v-192q0 -54 14.5 -82.5t53.5 -35.5v-34z" />
    <glyph glyph-name="asciitilde" unicode="~" horiz-adv-x="470" 
d="M410 393q-21 -96 -100 -96q-28 0 -75 32.5t-75 32.5q-49 0 -66 -61l-34 12q21 96 100 96q28 0 75 -32.5t75 -32.5q49 0 66 61z" />
    <glyph glyph-name="uni00A0" unicode="&#xa0;" horiz-adv-x="280" 
 />
    <glyph glyph-name="exclamdown" unicode="&#xa1;" horiz-adv-x="254" 
d="M174 436q0 -17 -12.5 -29.5t-29.5 -12.5t-29.5 12.5t-12.5 29.5t12.5 29.5t29.5 12.5t29.5 -12.5t12.5 -29.5zM163 -215h-62l11 473h40z" />
    <glyph glyph-name="cent" unicode="&#xa2;" horiz-adv-x="428" 
d="M374 133q-31 -26 -103 -29v-104h-38v105q-79 9 -124 71t-45 167q0 101 45.5 164t123.5 74v107h38v-106q62 -1 103 -29l-14 -32q-40 23 -89 23q-79 0 -116.5 -54t-37.5 -144q0 -93 39 -147.5t113 -54.5q51 0 90 23z" />
    <glyph glyph-name="sterling" unicode="&#xa3;" 
d="M454 0h-394q105 127 105 237q0 44 -13 98h-92v40h80q-24 76 -24 125q0 91 54.5 144.5t147.5 53.5q80 0 135 -36l-17 -36q-49 30 -116 30q-70 0 -108.5 -42.5t-38.5 -113.5q0 -49 20 -125h178v-40h-168q9 -49 9 -98q0 -45 -19.5 -99t-48.5 -93h310v-45z" />
    <glyph glyph-name="currency" unicode="&#xa4;" horiz-adv-x="546" 
d="M486 170l-30 -30l-70 70q-45 -53 -113 -53t-113 53l-70 -70l-30 30l76 76q-24 48 -24 107t24 107l-76 76l30 30l70 -70q45 53 113 53t113 -53l70 70l30 -30l-76 -76q24 -48 24 -107t-24 -107zM386 354q0 72 -32 117.5t-81 45.5t-81 -45.5t-32 -117.5t32 -117.5t81 -45.5
t81 45.5t32 117.5z" />
    <glyph glyph-name="yen" unicode="&#xa5;" horiz-adv-x="610" 
d="M542 688l-125 -236h104v-34h-121l-68 -128h189v-34h-189v-256h-54v256h-189v34h189l-68 128h-121v34h104l-125 236h63l175 -366h2l179 366h55z" />
    <glyph glyph-name="brokenbar" unicode="&#xa6;" horiz-adv-x="218" 
d="M133 392h-48v393h48v-393zM133 -215h-48v393h48v-393z" />
    <glyph glyph-name="section" unicode="&#xa7;" horiz-adv-x="516" 
d="M450 222q0 -97 -122 -162q77 -59 77 -132q0 -62 -48.5 -107t-121.5 -45q-82 0 -134 36l17 37q48 -32 114 -32q54 0 86.5 31.5t32.5 79.5q0 40 -29.5 72.5t-71 58l-83.5 53.5t-71.5 70.5t-29.5 96.5q0 96 119 164q-60 51 -60 116q0 58 42 98.5t112 40.5q71 0 120 -36
l-16 -35q-46 32 -102 32q-51 0 -77.5 -28.5t-26.5 -71.5q0 -38 28 -69.5t68.5 -56l80.5 -51t68 -67.5t28 -93zM401 216q0 30 -10.5 55.5t-33 47t-40.5 35t-52.5 35l-49.5 31.5q-98 -57 -98 -134q0 -25 8.5 -48t18.5 -38.5t33 -35t35.5 -28l43.5 -28.5l40 -26q105 56 105 134
z" />
    <glyph glyph-name="dieresis" unicode="&#xa8;" horiz-adv-x="222" 
d="M219 650q0 -14 -10 -24t-24 -10t-24 10t-10 24t10 24t24 10t24 -10t10 -24zM71 650q0 -14 -10 -24t-24 -10t-24 10t-10 24t10 24t24 10t24 -10t10 -24z" />
    <glyph glyph-name="copyright" unicode="&#xa9;" horiz-adv-x="830" 
d="M770 344q0 -147 -104 -251t-251 -104t-251 104t-104 251t104 251t251 104t251 -104t104 -251zM722 345q0 130 -89.5 223t-217.5 93t-217.5 -93t-89.5 -223t89.5 -223t217.5 -93t217.5 93t89.5 223zM509 161q-32 -21 -91 -21q-83 0 -130 58.5t-47 148.5q0 88 47.5 147.5
t129.5 59.5q54 0 91 -21l-14 -30q-28 15 -70 15q-66 0 -99 -50t-33 -121t34 -120t98 -49q39 0 69 15z" />
    <glyph glyph-name="ordfeminine" unicode="&#xaa;" horiz-adv-x="372" 
d="M296 343q-48 -25 -116 -25q-62 0 -97 28t-35 81q0 115 204 136v24q0 78 -82 78q-46 0 -89 -23l-13 29q49 27 105 27q58 0 90.5 -28.5t32.5 -85.5v-241zM252 361v174q-80 -10 -119.5 -34t-39.5 -73q0 -39 24 -60.5t69 -21.5q36 0 66 15z" />
    <glyph glyph-name="guillemotleft" unicode="&#xab;" horiz-adv-x="460" 
d="M390 137l-34 -22l-126 219l126 219l34 -22l-114 -197zM220 137l-34 -22l-126 219l126 219l34 -22l-114 -197z" />
    <glyph glyph-name="logicalnot" unicode="&#xac;" 
d="M444 149h-44v169h-334v40h378v-209z" />
    <glyph glyph-name="uni00AD" unicode="&#xad;" horiz-adv-x="338" 
d="M273 314h-208v48h208v-48z" />
    <glyph glyph-name="registered" unicode="&#xae;" horiz-adv-x="830" 
d="M770 344q0 -147 -104 -251t-251 -104t-251 104t-104 251t104 251t251 104t251 -104t104 -251zM722 345q0 130 -89.5 223t-217.5 93t-217.5 -93t-89.5 -223t89.5 -223t217.5 -93t217.5 93t89.5 223zM557 146h-57l-80 135q-26 44 -66 54v-189h-48v392q44 22 99 22
q67 0 103 -29.5t36 -85.5q0 -44 -32.5 -75t-83.5 -38v-2q22 -18 40 -46zM496 444q0 86 -91 86q-27 0 -51 -9v-165q17 -3 39 -3q47 0 75 25.5t28 65.5z" />
    <glyph glyph-name="macron" unicode="&#xaf;" horiz-adv-x="222" 
d="M227 620h-232v39h232v-39z" />
    <glyph glyph-name="degree" unicode="&#xb0;" horiz-adv-x="430" 
d="M360 553q0 -60 -42.5 -102.5t-102.5 -42.5t-102.5 42.5t-42.5 102.5t42.5 102.5t102.5 42.5t102.5 -42.5t42.5 -102.5zM322 553q0 45 -31.5 77t-75.5 32t-75.5 -32t-31.5 -77t31.5 -77t75.5 -32t75.5 32t31.5 77z" />
    <glyph glyph-name="plusminus" unicode="&#xb1;" 
d="M444 318h-167v-169h-44v169h-167v40h167v169h44v-169h167v-40zM444 0h-378v40h378v-40z" />
    <glyph glyph-name="twosuperior" unicode="&#xb2;" horiz-adv-x="320" 
d="M262 476h-241l150 213q37 53 37 95q0 76 -86 76q-38 0 -76 -18l-13 31q42 22 98 22q62 0 93.5 -29t31.5 -80q0 -47 -51 -116l-115 -156h172v-38z" />
    <glyph glyph-name="threesuperior" unicode="&#xb3;" horiz-adv-x="320" 
d="M268 594q0 -56 -38.5 -90.5t-96.5 -34.5q-63 0 -102 21l13 32q34 -18 82 -18q44 0 69 24t25 66q0 46 -30.5 68t-78.5 22h-14v28q48 4 77.5 26.5t29.5 58.5q0 33 -20.5 48.5t-52.5 15.5q-42 0 -78 -17l-13 30q42 21 97 21q48 0 80.5 -24.5t32.5 -67.5q0 -67 -78 -96v-2
q96 -22 96 -111z" />
    <glyph glyph-name="acute" unicode="&#xb4;" horiz-adv-x="222" 
d="M210 729l-106 -129h-34l76 134q15 13 34 13q22 0 30 -18z" />
    <glyph glyph-name="mu" unicode="&#xb5;" horiz-adv-x="504" 
d="M427 42q-71 -52 -167 -52q-73 0 -125 34v-239h-54v754h54v-473q52 -38 125 -38q64 0 113 34v477h54v-497z" />
    <glyph glyph-name="paragraph" unicode="&#xb6;" horiz-adv-x="580" 
d="M496 -215h-54v855q-62 20 -133 20q-28 0 -61 -5v-870h-54v524q-69 17 -106.5 68.5t-37.5 117.5q0 54 21.5 94.5t59 63.5t82.5 34t96 11q102 0 187 -36v-877z" />
    <glyph glyph-name="periodcentered" unicode="&#xb7;" horiz-adv-x="236" 
d="M160 337q0 -17 -12.5 -29.5t-29.5 -12.5t-29.5 12.5t-12.5 29.5t12.5 29.5t29.5 12.5t29.5 -12.5t12.5 -29.5z" />
    <glyph glyph-name="cedilla" unicode="&#xb8;" horiz-adv-x="222" 
d="M228 -124q0 -35 -42 -53.5t-117 -18.5q-29 0 -69 4l14 28q27 -3 47 -3q50 0 83 11t33 32q0 35 -76 35q-27 0 -53 -2l13 27q33 3 58 3q109 0 109 -63z" />
    <glyph glyph-name="onesuperior" unicode="&#xb9;" horiz-adv-x="320" 
d="M217 476h-46v350q-38 -24 -107 -30l-6 28q96 15 128 64h31v-412z" />
    <glyph glyph-name="ordmasculine" unicode="&#xba;" horiz-adv-x="388" 
d="M334 508q0 -81 -34.5 -135.5t-105.5 -54.5t-105.5 54.5t-34.5 135.5t34.5 135.5t105.5 54.5t105.5 -54.5t34.5 -135.5zM288 509q0 67 -21.5 111.5t-72.5 44.5t-72.5 -44.5t-21.5 -111.5t21.5 -111.5t72.5 -44.5t72.5 44.5t21.5 111.5z" />
    <glyph glyph-name="guillemotright" unicode="&#xbb;" horiz-adv-x="460" 
d="M400 334l-126 -219l-34 22l114 197l-114 197l34 22zM230 334l-126 -219l-34 22l114 197l-114 197l34 22z" />
    <glyph glyph-name="onequarter" unicode="&#xbc;" horiz-adv-x="770" 
d="M217 276h-46v350q-38 -24 -107 -30l-6 28q96 15 128 64h31v-412zM575 680l-320 -689l-34 17l320 689zM712 97h-34v-97h-41v97h-170v31l169 284h42v-286h34v-29zM640 366h-2q-15 -35 -28 -57l-107 -183h135v178q0 34 2 62z" />
    <glyph glyph-name="onehalf" unicode="&#xbd;" horiz-adv-x="770" 
d="M217 276h-46v350q-38 -24 -107 -30l-6 28q96 15 128 64h31v-412zM531 680l-320 -689l-34 17l320 689zM712 0h-241l150 213q37 53 37 95q0 76 -86 76q-38 0 -76 -18l-13 31q42 22 98 22q62 0 93.5 -29t31.5 -80q0 -47 -51 -116l-115 -156h172v-38z" />
    <glyph glyph-name="threequarters" unicode="&#xbe;" horiz-adv-x="770" 
d="M582 680l-320 -689l-34 17l320 689zM712 97h-34v-97h-41v97h-170v31l169 284h42v-286h34v-29zM640 366h-2q-11 -29 -28 -57l-107 -183h135v178q0 34 2 62zM269 394q0 -56 -38.5 -90.5t-96.5 -34.5q-63 0 -102 21l13 32q34 -18 82 -18q44 0 69 24t25 66q0 46 -30.5 68
t-78.5 22h-14v28q48 4 77.5 26.5t29.5 58.5q0 33 -20.5 48.5t-52.5 15.5q-42 0 -78 -17l-13 30q42 21 97 21q48 0 80.5 -24.5t32.5 -67.5q0 -67 -78 -96v-2q96 -22 96 -111z" />
    <glyph glyph-name="questiondown" unicode="&#xbf;" horiz-adv-x="380" 
d="M269 436q0 -17 -12.5 -29.5t-29.5 -12.5t-29.5 12.5t-12.5 29.5t12.5 29.5t29.5 12.5t29.5 -12.5t12.5 -29.5zM360 -189q-54 -36 -130 -36q-80 0 -128 42.5t-48 114.5q0 59 47 102.5t98 57.5l8 166h40l8 -185q-56 -14 -101 -49t-45 -92q0 -53 32.5 -84.5t94.5 -31.5
t106 27z" />
    <glyph glyph-name="Agrave" unicode="&#xc0;" horiz-adv-x="572" 
d="M546 0h-60l-76 235h-253l-77 -235h-54l237 688h46zM397 272l-90 278q-9 29 -22 89h-2q-16 -66 -23 -89l-91 -278h228zM309 749h-34l-106 129q7 18 30 18q19 0 34 -13z" />
    <glyph glyph-name="Aacute" unicode="&#xc1;" horiz-adv-x="572" 
d="M546 0h-60l-76 235h-253l-77 -235h-54l237 688h46zM397 272l-90 278q-9 29 -22 89h-2q-16 -66 -23 -89l-91 -278h228zM403 878l-106 -129h-34l76 134q15 13 34 13q23 0 30 -18z" />
    <glyph glyph-name="Acircumflex" unicode="&#xc2;" horiz-adv-x="572" 
d="M546 0h-60l-76 235h-253l-77 -235h-54l237 688h46zM397 272l-90 278q-9 29 -22 89h-2q-16 -66 -23 -89l-91 -278h228zM403 764l-22 -19l-95 84l-95 -84l-22 19l89 97q12 13 28 13t28 -13z" />
    <glyph glyph-name="Atilde" unicode="&#xc3;" horiz-adv-x="572" 
d="M546 0h-60l-76 235h-253l-77 -235h-54l237 688h46zM397 272l-90 278q-9 29 -22 89h-2q-16 -66 -23 -89l-91 -278h228zM406 826q-14 -69 -70 -69q-21 0 -50.5 20.5t-47.5 20.5q-31 0 -40 -39l-30 10q14 69 70 69q21 0 50.5 -20.5t47.5 -20.5q31 0 40 39z" />
    <glyph glyph-name="Adieresis" unicode="&#xc4;" horiz-adv-x="572" 
d="M546 0h-60l-76 235h-253l-77 -235h-54l237 688h46zM397 272l-90 278q-9 29 -22 89h-2q-16 -66 -23 -89l-91 -278h228zM246 799q0 -14 -10 -24t-24 -10t-24 10t-10 24t10 24t24 10t24 -10t10 -24zM394 799q0 -14 -10 -24t-24 -10t-24 10t-10 24t10 24t24 10t24 -10t10 -24
z" />
    <glyph glyph-name="Aring" unicode="&#xc5;" horiz-adv-x="572" 
d="M546 0h-60l-76 235h-253l-77 -235h-54l237 688h46zM397 272l-90 278q-9 29 -22 89h-2q-16 -66 -23 -89l-91 -278h228zM363 824q0 -32 -22.5 -54.5t-54.5 -22.5t-54.5 22.5t-22.5 54.5t22.5 54.5t54.5 22.5t54.5 -22.5t22.5 -54.5zM333 824q0 20 -14 34.5t-33 14.5
t-33 -14.5t-14 -34.5t14 -34.5t33 -14.5t33 14.5t14 34.5z" />
    <glyph glyph-name="AE" unicode="&#xc6;" horiz-adv-x="742" 
d="M718 0h-243l-57 235h-255l-96 -235h-55l290 688h352v-39h-288l69 -272h218v-39h-208l76 -299h197v-39zM409 272l-68 279q-6 24 -18 88h-2q-26 -78 -30 -88l-113 -279h231z" />
    <glyph glyph-name="Ccedilla" unicode="&#xc7;" horiz-adv-x="472" 
d="M437 27q-55 -37 -127 -37q-82 0 -140 50.5t-84.5 129t-26.5 174.5t26.5 174.5t84.5 129t140 50.5q72 0 127 -37l-17 -35q-48 32 -110 32q-49 0 -86.5 -26.5t-60 -71.5t-33.5 -99.5t-11 -115.5q0 -130 48.5 -221.5t142.5 -91.5q62 0 110 32zM368 -124q0 -35 -42 -53.5
t-117 -18.5q-29 0 -69 4l14 28q27 -3 47 -3q50 0 83 11t33 32q0 35 -76 35q-27 0 -53 -2l13 27q33 3 58 3q109 0 109 -63z" />
    <glyph glyph-name="Egrave" unicode="&#xc8;" horiz-adv-x="433" 
d="M386 0h-303v688h303v-39h-246v-272h223v-39h-223v-299h246v-39zM267 749h-34l-106 129q8 18 30 18q19 0 34 -13z" />
    <glyph glyph-name="Eacute" unicode="&#xc9;" horiz-adv-x="433" 
d="M386 0h-303v688h303v-39h-246v-272h223v-39h-223v-299h246v-39zM342 878l-106 -129h-34l76 134q15 13 34 13q22 0 30 -18z" />
    <glyph glyph-name="Ecircumflex" unicode="&#xca;" horiz-adv-x="433" 
d="M386 0h-303v688h303v-39h-246v-272h223v-39h-223v-299h246v-39zM347 764l-22 -19l-95 84l-95 -84l-22 19l89 97q12 13 28 13t28 -13z" />
    <glyph glyph-name="Edieresis" unicode="&#xcb;" horiz-adv-x="433" 
d="M386 0h-303v688h303v-39h-246v-272h223v-39h-223v-299h246v-39zM191 799q0 -14 -10 -24t-24 -10t-24 10t-10 24t10 24t24 10t24 -10t10 -24zM339 799q0 -14 -10 -24t-24 -10t-24 10t-10 24t10 24t24 10t24 -10t10 -24z" />
    <glyph glyph-name="Igrave" unicode="&#xcc;" horiz-adv-x="231" 
d="M144 0h-57v688h57v-688zM145 749h-34l-106 129q7 18 30 18q19 0 34 -13z" />
    <glyph glyph-name="Iacute" unicode="&#xcd;" horiz-adv-x="231" 
d="M144 0h-57v688h57v-688zM226 878l-106 -129h-34l76 134q15 13 34 13q22 0 30 -18z" />
    <glyph glyph-name="Icircumflex" unicode="&#xce;" horiz-adv-x="231" 
d="M144 0h-57v688h57v-688zM233 764l-22 -19l-95 84l-95 -84l-22 19l89 97q12 13 28 13t28 -13z" />
    <glyph glyph-name="Idieresis" unicode="&#xcf;" horiz-adv-x="231" 
d="M144 0h-57v688h57v-688zM76 799q0 -14 -10 -24t-24 -10t-24 10t-10 24t10 24t24 10t24 -10t10 -24zM224 799q0 -14 -10 -24t-24 -10t-24 10t-10 24t10 24t24 10t24 -10t10 -24z" />
    <glyph glyph-name="Eth" unicode="&#xd0;" horiz-adv-x="591" 
d="M532 353q0 -169 -69 -266t-202 -97q-105 0 -170 36v319h-68v35h68v281q67 37 168 37q129 0 201 -90.5t72 -254.5zM473 353q0 150 -56 229t-166 79q-62 0 -103 -16v-265h133v-35h-133v-297q39 -17 105 -17q220 0 220 322z" />
    <glyph glyph-name="Ntilde" unicode="&#xd1;" horiz-adv-x="644" 
d="M561 0h-58l-335 576q-21 35 -38 74h-2q3 -54 3 -86v-564h-48v688h73l321 -555q21 -35 37 -73h2q-3 42 -3 83v545h48v-688zM444 826q-14 -69 -70 -69q-21 0 -50.5 20.5t-47.5 20.5q-31 0 -40 -39l-30 10q14 69 70 69q21 0 50.5 -20.5t47.5 -20.5q31 0 40 39z" />
    <glyph glyph-name="Ograve" unicode="&#xd2;" horiz-adv-x="596" 
d="M537 344q0 -157 -59.5 -255.5t-179.5 -98.5t-179.5 98.5t-59.5 255.5t59.5 255.5t179.5 98.5t179.5 -98.5t59.5 -255.5zM479 345q0 87 -15.5 154t-57.5 113t-108 46t-108 -46t-57.5 -113t-15.5 -154t15.5 -154t57.5 -113t108 -46t108 46t57.5 113t15.5 154zM328 749h-34
l-106 129q8 18 30 18q19 0 34 -13z" />
    <glyph glyph-name="Oacute" unicode="&#xd3;" horiz-adv-x="596" 
d="M537 344q0 -157 -59.5 -255.5t-179.5 -98.5t-179.5 98.5t-59.5 255.5t59.5 255.5t179.5 98.5t179.5 -98.5t59.5 -255.5zM479 345q0 87 -15.5 154t-57.5 113t-108 46t-108 -46t-57.5 -113t-15.5 -154t15.5 -154t57.5 -113t108 -46t108 46t57.5 113t15.5 154zM408 878
l-106 -129h-34l76 134q15 13 34 13q22 0 30 -18z" />
    <glyph glyph-name="Ocircumflex" unicode="&#xd4;" horiz-adv-x="596" 
d="M537 344q0 -157 -59.5 -255.5t-179.5 -98.5t-179.5 98.5t-59.5 255.5t59.5 255.5t179.5 98.5t179.5 -98.5t59.5 -255.5zM479 345q0 87 -15.5 154t-57.5 113t-108 46t-108 -46t-57.5 -113t-15.5 -154t15.5 -154t57.5 -113t108 -46t108 46t57.5 113t15.5 154zM415 764
l-22 -19l-95 84l-95 -84l-22 19l89 97q12 13 28 13t28 -13z" />
    <glyph glyph-name="Otilde" unicode="&#xd5;" horiz-adv-x="596" 
d="M537 344q0 -157 -59.5 -255.5t-179.5 -98.5t-179.5 98.5t-59.5 255.5t59.5 255.5t179.5 98.5t179.5 -98.5t59.5 -255.5zM479 345q0 87 -15.5 154t-57.5 113t-108 46t-108 -46t-57.5 -113t-15.5 -154t15.5 -154t57.5 -113t108 -46t108 46t57.5 113t15.5 154zM417 826
q-14 -69 -70 -69q-21 0 -50.5 20.5t-47.5 20.5q-31 0 -40 -39l-30 10q14 69 70 69q21 0 50.5 -20.5t47.5 -20.5q31 0 40 39z" />
    <glyph glyph-name="Odieresis" unicode="&#xd6;" horiz-adv-x="596" 
d="M537 344q0 -157 -59.5 -255.5t-179.5 -98.5t-179.5 98.5t-59.5 255.5t59.5 255.5t179.5 98.5t179.5 -98.5t59.5 -255.5zM479 345q0 87 -15.5 154t-57.5 113t-108 46t-108 -46t-57.5 -113t-15.5 -154t15.5 -154t57.5 -113t108 -46t108 46t57.5 113t15.5 154zM258 799
q0 -14 -10 -24t-24 -10t-24 10t-10 24t10 24t24 10t24 -10t10 -24zM406 799q0 -14 -10 -24t-24 -10t-24 10t-10 24t10 24t24 10t24 -10t10 -24z" />
    <glyph glyph-name="multiply" unicode="&#xd7;" 
d="M444 177l-28 -28l-161 161l-161 -161l-28 28l161 161l-161 161l28 28l161 -161l161 161l28 -28l-161 -161z" />
    <glyph glyph-name="Oslash" unicode="&#xd8;" horiz-adv-x="596" 
d="M537 344q0 -157 -59.5 -255.5t-179.5 -98.5q-94 0 -155 67l-56 -93l-26 16l62 103q-64 97 -64 261q0 157 59.5 255.5t179.5 98.5q94 0 155 -67l56 93l26 -16l-62 -103q64 -97 64 -261zM429 590q-47 72 -131 72q-67 0 -110 -47t-58.5 -114.5t-15.5 -154.5q0 -134 38 -216z
M482 346q0 130 -37 213l-276 -459q47 -70 129 -70q67 0 110 47t58.5 114.5t15.5 154.5z" />
    <glyph glyph-name="Ugrave" unicode="&#xd9;" horiz-adv-x="570" 
d="M487 193q0 -86 -54.5 -145t-147.5 -59t-147.5 59t-54.5 145v495h57v-495q0 -72 43.5 -115t104.5 -43t104.5 43t43.5 115v495h51v-495zM328 749h-34l-106 129q8 18 30 18q19 0 34 -13z" />
    <glyph glyph-name="Uacute" unicode="&#xda;" horiz-adv-x="570" 
d="M487 193q0 -86 -54.5 -145t-147.5 -59t-147.5 59t-54.5 145v495h57v-495q0 -72 43.5 -115t104.5 -43t104.5 43t43.5 115v495h51v-495zM388 878l-106 -129h-34l76 134q15 13 34 13q22 0 30 -18z" />
    <glyph glyph-name="Ucircumflex" unicode="&#xdb;" horiz-adv-x="570" 
d="M487 193q0 -86 -54.5 -145t-147.5 -59t-147.5 59t-54.5 145v495h57v-495q0 -72 43.5 -115t104.5 -43t104.5 43t43.5 115v495h51v-495zM404 764l-22 -19l-95 84l-95 -84l-22 19l89 97q12 13 28 13t28 -13z" />
    <glyph glyph-name="Udieresis" unicode="&#xdc;" horiz-adv-x="570" 
d="M487 193q0 -86 -54.5 -145t-147.5 -59t-147.5 59t-54.5 145v495h57v-495q0 -72 43.5 -115t104.5 -43t104.5 43t43.5 115v495h51v-495zM248 799q0 -14 -10 -24t-24 -10t-24 10t-10 24t10 24t24 10t24 -10t10 -24zM396 799q0 -14 -10 -24t-24 -10t-24 10t-10 24t10 24
t24 10t24 -10t10 -24z" />
    <glyph glyph-name="Yacute" unicode="&#xdd;" horiz-adv-x="486" 
d="M463 688l-191 -375v-313h-57v313l-190 375h63l157 -337h2l161 337h55zM356 878l-106 -129h-34l76 134q15 13 34 13q22 0 30 -18z" />
    <glyph glyph-name="Thorn" unicode="&#xde;" 
d="M456 375q0 -89 -59.5 -145.5t-178.5 -56.5q-37 0 -79 5v-178h-56v688h56v-125q47 14 97 14q108 0 164 -54t56 -148zM400 377q0 164 -164 164q-55 0 -97 -16v-311q40 -5 79 -5q96 0 139 46.5t43 121.5z" />
    <glyph glyph-name="germandbls" unicode="&#xdf;" horiz-adv-x="542" 
d="M491 141q0 -67 -47 -108t-122 -41q-56 0 -106 28l15 38q42 -25 91 -25q54 0 84.5 29t30.5 79q0 32 -19.5 58.5t-46.5 46l-54.5 40t-47 51t-19.5 67.5q0 57 38.5 92.5t103.5 44.5q4 36 4 62q0 66 -31 110.5t-95 44.5q-49 0 -81 -32.5t-44 -78t-12 -103.5v-544h-54v543
q0 109 47 180t144 71q86 0 132.5 -54.5t46.5 -136.5q0 -51 -14 -91q-133 -8 -133 -107q0 -28 19.5 -52t47 -43.5l55.5 -41t47.5 -54t19.5 -73.5z" />
    <glyph glyph-name="agrave" unicode="&#xe0;" horiz-adv-x="478" 
d="M401 27q-71 -37 -163 -37q-89 0 -139 41.5t-50 118.5q0 169 301 199v37q0 124 -126 124q-68 0 -130 -35l-15 35q70 39 146 39q84 0 130 -41.5t46 -122.5v-358zM350 46v270q-124 -15 -186 -52t-62 -114q0 -61 36.5 -93.5t106.5 -32.5q63 0 105 22zM281 600h-34l-106 129
q7 18 30 18q19 0 34 -13z" />
    <glyph glyph-name="aacute" unicode="&#xe1;" horiz-adv-x="478" 
d="M401 27q-71 -37 -163 -37q-89 0 -139 41.5t-50 118.5q0 169 301 199v37q0 124 -126 124q-68 0 -130 -35l-15 35q70 39 146 39q84 0 130 -41.5t46 -122.5v-358zM350 46v270q-124 -15 -186 -52t-62 -114q0 -61 36.5 -93.5t106.5 -32.5q63 0 105 22zM352 729l-106 -129h-34
l76 134q15 13 34 13q22 0 30 -18z" />
    <glyph glyph-name="acircumflex" unicode="&#xe2;" horiz-adv-x="478" 
d="M401 27q-71 -37 -163 -37q-89 0 -139 41.5t-50 118.5q0 169 301 199v37q0 124 -126 124q-68 0 -130 -35l-15 35q70 39 146 39q84 0 130 -41.5t46 -122.5v-358zM350 46v270q-124 -15 -186 -52t-62 -114q0 -61 36.5 -93.5t106.5 -32.5q63 0 105 22zM356 615l-22 -19l-95 84
l-95 -84l-22 19l89 97q12 13 28 13t28 -13z" />
    <glyph glyph-name="atilde" unicode="&#xe3;" horiz-adv-x="478" 
d="M401 27q-71 -37 -163 -37q-89 0 -139 41.5t-50 118.5q0 169 301 199v37q0 124 -126 124q-68 0 -130 -35l-15 35q70 39 146 39q84 0 130 -41.5t46 -122.5v-358zM350 46v270q-124 -15 -186 -52t-62 -114q0 -61 36.5 -93.5t106.5 -32.5q63 0 105 22zM355 677
q-14 -69 -70 -69q-21 0 -50.5 20.5t-47.5 20.5q-31 0 -40 -39l-30 10q14 69 70 69q21 0 50.5 -20.5t47.5 -20.5q31 0 40 39z" />
    <glyph glyph-name="adieresis" unicode="&#xe4;" horiz-adv-x="478" 
d="M401 27q-71 -37 -163 -37q-89 0 -139 41.5t-50 118.5q0 169 301 199v37q0 124 -126 124q-68 0 -130 -35l-15 35q70 39 146 39q84 0 130 -41.5t46 -122.5v-358zM350 46v270q-124 -15 -186 -52t-62 -114q0 -61 36.5 -93.5t106.5 -32.5q63 0 105 22zM203 650q0 -14 -10 -24
t-24 -10t-24 10t-10 24t10 24t24 10t24 -10t10 -24zM351 650q0 -14 -10 -24t-24 -10t-24 10t-10 24t10 24t24 10t24 -10t10 -24z" />
    <glyph glyph-name="aring" unicode="&#xe5;" horiz-adv-x="478" 
d="M401 27q-71 -37 -163 -37q-89 0 -139 41.5t-50 118.5q0 169 301 199v37q0 124 -126 124q-68 0 -130 -35l-15 35q70 39 146 39q84 0 130 -41.5t46 -122.5v-358zM350 46v270q-124 -15 -186 -52t-62 -114q0 -61 36.5 -93.5t106.5 -32.5q63 0 105 22zM319 677
q0 -32 -22.5 -54.5t-54.5 -22.5t-54.5 22.5t-22.5 54.5t22.5 54.5t54.5 22.5t54.5 -22.5t22.5 -54.5zM289 677q0 20 -14 34.5t-33 14.5t-33 -14.5t-14 -34.5t14 -34.5t33 -14.5t33 14.5t14 34.5z" />
    <glyph glyph-name="ae" unicode="&#xe6;" horiz-adv-x="790" 
d="M735 297l-346 -53q5 -100 51 -156.5t130 -56.5q76 0 129 33l17 -37q-59 -37 -147 -37q-126 0 -185 109q-46 -109 -160 -109q-80 0 -127.5 43.5t-47.5 116.5q0 169 301 199v37q0 124 -131 124q-64 0 -125 -35l-15 35q68 39 146 39q124 0 156 -107q25 55 68.5 81t92.5 26
q92 0 142.5 -62t50.5 -190zM682 324q-3 188 -140 188q-68 0 -111 -58t-43 -175zM350 153v163q-124 -15 -186 -52t-62 -114q0 -57 32 -91.5t93 -34.5q49 0 86 37t37 92z" />
    <glyph glyph-name="ccedilla" unicode="&#xe7;" horiz-adv-x="407" 
d="M367 24q-42 -34 -113 -34q-94 0 -146.5 78t-52.5 202t52.5 201.5t146.5 77.5q71 0 113 -34l-15 -34q-39 29 -94 29q-70 0 -109 -67.5t-39 -171.5q0 -102 39.5 -171t108.5 -69q54 0 93 29zM319 -124q0 -35 -42 -53.5t-117 -18.5q-29 0 -69 4l14 28q27 -3 47 -3q50 0 83 11
t33 32q0 35 -76 35q-27 0 -53 -2l13 27q33 3 58 3q109 0 109 -63z" />
    <glyph glyph-name="egrave" unicode="&#xe8;" horiz-adv-x="507" 
d="M452 297l-346 -53q5 -100 51 -156.5t130 -56.5q76 0 129 33l17 -37q-59 -37 -147 -37q-109 0 -170 73t-61 208q0 128 54.5 203t149.5 75q92 0 142.5 -62t50.5 -190zM399 324q-3 188 -140 188q-75 0 -114.5 -63t-39.5 -170zM292 600h-34l-106 129q8 18 30 18q19 0 34 -13z
" />
    <glyph glyph-name="eacute" unicode="&#xe9;" horiz-adv-x="507" 
d="M452 297l-346 -53q5 -100 51 -156.5t130 -56.5q76 0 129 33l17 -37q-59 -37 -147 -37q-109 0 -170 73t-61 208q0 128 54.5 203t149.5 75q92 0 142.5 -62t50.5 -190zM399 324q-3 188 -140 188q-75 0 -114.5 -63t-39.5 -170zM366 729l-106 -129h-34l76 134q15 13 34 13
q22 0 30 -18z" />
    <glyph glyph-name="ecircumflex" unicode="&#xea;" horiz-adv-x="507" 
d="M452 297l-346 -53q5 -100 51 -156.5t130 -56.5q76 0 129 33l17 -37q-59 -37 -147 -37q-109 0 -170 73t-61 208q0 128 54.5 203t149.5 75q92 0 142.5 -62t50.5 -190zM399 324q-3 188 -140 188q-75 0 -114.5 -63t-39.5 -170zM377 615l-22 -19l-95 84l-95 -84l-22 19l89 97
q12 13 28 13t28 -13z" />
    <glyph glyph-name="edieresis" unicode="&#xeb;" horiz-adv-x="507" 
d="M452 297l-346 -53q5 -100 51 -156.5t130 -56.5q76 0 129 33l17 -37q-59 -37 -147 -37q-109 0 -170 73t-61 208q0 128 54.5 203t149.5 75q92 0 142.5 -62t50.5 -190zM399 324q-3 188 -140 188q-75 0 -114.5 -63t-39.5 -170zM221 650q0 -14 -10 -24t-24 -10t-24 10t-10 24
t10 24t24 10t24 -10t10 -24zM369 650q0 -14 -10 -24t-24 -10t-24 10t-10 24t10 24t24 10t24 -10t10 -24z" />
    <glyph glyph-name="igrave" unicode="&#xec;" horiz-adv-x="222" 
d="M138 0h-54v539h54v-539zM152 600h-34l-106 129q7 18 30 18q19 0 34 -13z" />
    <glyph glyph-name="iacute" unicode="&#xed;" horiz-adv-x="222" 
d="M138 0h-54v539h54v-539zM210 729l-106 -129h-34l76 134q15 13 34 13q22 0 30 -18z" />
    <glyph glyph-name="icircumflex" unicode="&#xee;" horiz-adv-x="222" 
d="M138 0h-54v539h54v-539zM228 615l-22 -19l-95 84l-95 -84l-22 19l89 97q12 13 28 13t28 -13z" />
    <glyph glyph-name="idieresis" unicode="&#xef;" horiz-adv-x="222" 
d="M138 0h-54v539h54v-539zM71 650q0 -14 -10 -24t-24 -10t-24 10t-10 24t10 24t24 10t24 -10t10 -24zM219 650q0 -14 -10 -24t-24 -10t-24 10t-10 24t10 24t24 10t24 -10t10 -24z" />
    <glyph glyph-name="eth" unicode="&#xf0;" horiz-adv-x="506" 
d="M451 263q0 -125 -49 -199t-150 -74q-94 0 -145.5 73t-51.5 200q0 121 58.5 200t157.5 79q36 0 68 -10q-32 68 -87 130l-102 -66l-17 28l96 63l-78 81l33 29l82 -86l93 60l17 -28l-87 -57q162 -183 162 -423zM397 266q0 124 -42 230q-35 14 -76 14q-84 0 -127 -69.5
t-43 -177.5q0 -106 36 -170t108 -64q41 0 70 20.5t44.5 55.5t22.5 75t7 86z" />
    <glyph glyph-name="ntilde" unicode="&#xf1;" horiz-adv-x="511" 
d="M434 0h-54v376q0 71 -32 104t-106 33q-63 0 -111 -21v-492h-54v512q76 37 165 37q192 0 192 -173v-376zM369 677q-14 -69 -70 -69q-21 0 -50.5 20.5t-47.5 20.5q-31 0 -40 -39l-30 10q14 69 70 69q21 0 50.5 -20.5t47.5 -20.5q31 0 40 39z" />
    <glyph glyph-name="ograve" unicode="&#xf2;" horiz-adv-x="506" 
d="M451 270q0 -127 -49.5 -203.5t-148.5 -76.5t-148.5 76.5t-49.5 203.5t49.5 203t148.5 76t148.5 -76t49.5 -203zM397 272q0 50 -7.5 91.5t-23.5 76t-45 54t-68 19.5q-52 0 -85 -34.5t-46 -86.5t-13 -120t13 -120.5t46.5 -87.5t84.5 -35t84.5 35t46.5 87.5t13 120.5z
M283 600h-34l-106 129q7 18 30 18q19 0 34 -13z" />
    <glyph glyph-name="oacute" unicode="&#xf3;" horiz-adv-x="506" 
d="M451 270q0 -127 -49.5 -203.5t-148.5 -76.5t-148.5 76.5t-49.5 203.5t49.5 203t148.5 76t148.5 -76t49.5 -203zM397 272q0 50 -7.5 91.5t-23.5 76t-45 54t-68 19.5q-52 0 -85 -34.5t-46 -86.5t-13 -120t13 -120.5t46.5 -87.5t84.5 -35t84.5 35t46.5 87.5t13 120.5z
M361 729l-106 -129h-34l76 134q15 13 34 13q23 0 30 -18z" />
    <glyph glyph-name="ocircumflex" unicode="&#xf4;" horiz-adv-x="506" 
d="M451 270q0 -127 -49.5 -203.5t-148.5 -76.5t-148.5 76.5t-49.5 203.5t49.5 203t148.5 76t148.5 -76t49.5 -203zM397 272q0 50 -7.5 91.5t-23.5 76t-45 54t-68 19.5q-52 0 -85 -34.5t-46 -86.5t-13 -120t13 -120.5t46.5 -87.5t84.5 -35t84.5 35t46.5 87.5t13 120.5z
M370 615l-22 -19l-95 84l-95 -84l-22 19l89 97q12 13 28 13t28 -13z" />
    <glyph glyph-name="otilde" unicode="&#xf5;" horiz-adv-x="506" 
d="M451 270q0 -127 -49.5 -203.5t-148.5 -76.5t-148.5 76.5t-49.5 203.5t49.5 203t148.5 76t148.5 -76t49.5 -203zM397 272q0 50 -7.5 91.5t-23.5 76t-45 54t-68 19.5q-52 0 -85 -34.5t-46 -86.5t-13 -120t13 -120.5t46.5 -87.5t84.5 -35t84.5 35t46.5 87.5t13 120.5z
M372 677q-14 -69 -70 -69q-21 0 -50.5 20.5t-47.5 20.5q-31 0 -40 -39l-30 10q14 69 70 69q21 0 50.5 -20.5t47.5 -20.5q31 0 40 39z" />
    <glyph glyph-name="odieresis" unicode="&#xf6;" horiz-adv-x="506" 
d="M451 270q0 -127 -49.5 -203.5t-148.5 -76.5t-148.5 76.5t-49.5 203.5t49.5 203t148.5 76t148.5 -76t49.5 -203zM397 272q0 50 -7.5 91.5t-23.5 76t-45 54t-68 19.5q-52 0 -85 -34.5t-46 -86.5t-13 -120t13 -120.5t46.5 -87.5t84.5 -35t84.5 35t46.5 87.5t13 120.5z
M213 650q0 -14 -10 -24t-24 -10t-24 10t-10 24t10 24t24 10t24 -10t10 -24zM361 650q0 -14 -10 -24t-24 -10t-24 10t-10 24t10 24t24 10t24 -10t10 -24z" />
    <glyph glyph-name="divide" unicode="&#xf7;" 
d="M296 494q0 -17 -12 -29t-29 -12t-29 12t-12 29t12 29t29 12t29 -12t12 -29zM444 318h-378v40h378v-40zM296 182q0 -17 -12 -29t-29 -12t-29 12t-12 29t12 29t29 12t29 -12t12 -29z" />
    <glyph glyph-name="oslash" unicode="&#xf8;" horiz-adv-x="506" 
d="M451 270q0 -127 -49.5 -203.5t-148.5 -76.5q-79 0 -127 50l-46 -74l-24 14l51 82q-52 72 -52 208q0 127 49.5 203t148.5 76q79 0 127 -50l46 74l24 -14l-51 -82q52 -72 52 -207zM356 461q-37 55 -103 55q-53 0 -87 -35.5t-47 -87.5t-13 -121q0 -103 29 -165zM400 272
q0 100 -28 162l-221 -355q37 -53 102 -53q77 0 112 69t35 177z" />
    <glyph glyph-name="ugrave" unicode="&#xf9;" horiz-adv-x="500" 
d="M423 30q-69 -40 -167 -40q-179 0 -179 169v380h54v-380q0 -131 125 -131q71 0 113 22v489h54v-509zM295 600h-34l-106 129q7 18 30 18q19 0 34 -13z" />
    <glyph glyph-name="uacute" unicode="&#xfa;" horiz-adv-x="500" 
d="M423 30q-69 -40 -167 -40q-179 0 -179 169v380h54v-380q0 -131 125 -131q71 0 113 22v489h54v-509zM360 729l-106 -129h-34l76 134q15 13 34 13q22 0 30 -18z" />
    <glyph glyph-name="ucircumflex" unicode="&#xfb;" horiz-adv-x="500" 
d="M423 30q-69 -40 -167 -40q-179 0 -179 169v380h54v-380q0 -131 125 -131q71 0 113 22v489h54v-509zM367 615l-22 -19l-95 84l-95 -84l-22 19l89 97q12 13 28 13t28 -13z" />
    <glyph glyph-name="udieresis" unicode="&#xfc;" horiz-adv-x="500" 
d="M423 30q-69 -40 -167 -40q-179 0 -179 169v380h54v-380q0 -131 125 -131q71 0 113 22v489h54v-509zM210 650q0 -14 -10 -24t-24 -10t-24 10t-10 24t10 24t24 10t24 -10t10 -24zM358 650q0 -14 -10 -24t-24 -10t-24 10t-10 24t10 24t24 10t24 -10t10 -24z" />
    <glyph glyph-name="yacute" unicode="&#xfd;" horiz-adv-x="472" 
d="M438 539l-250 -754h-60l90 215l-182 539h58l131 -425q10 -30 13 -60h2q8 36 15 60l133 425h50zM345 729l-106 -129h-34l76 134q15 13 34 13q23 0 30 -18z" />
    <glyph glyph-name="thorn" unicode="&#xfe;" horiz-adv-x="506" 
d="M451 276q0 -129 -59.5 -207.5t-170.5 -78.5q-47 0 -90 15v-220h-53v1000h53v-266q50 27 115 27q92 0 148.5 -73.5t56.5 -196.5zM397 276q0 103 -42.5 169.5t-122.5 66.5q-55 0 -101 -24v-444q35 -16 90 -16q91 0 133.5 67t42.5 181z" />
    <glyph glyph-name="ydieresis" unicode="&#xff;" horiz-adv-x="472" 
d="M438 539l-250 -754h-60l90 215l-182 539h58l131 -425q10 -30 13 -60h2q8 36 15 60l133 425h50zM202 650q0 -14 -10 -24t-24 -10t-24 10t-10 24t10 24t24 10t24 -10t10 -24zM350 650q0 -14 -10 -24t-24 -10t-24 10t-10 24t10 24t24 10t24 -10t10 -24z" />
    <glyph glyph-name="Amacron" unicode="&#x100;" horiz-adv-x="572" 
d="M546 0h-60l-76 235h-253l-77 -235h-54l237 688h46zM397 272l-90 278q-9 29 -22 89h-2q-16 -66 -23 -89l-91 -278h228zM402 769h-232v39h232v-39z" />
    <glyph glyph-name="amacron" unicode="&#x101;" horiz-adv-x="478" 
d="M401 27q-71 -37 -163 -37q-89 0 -139 41.5t-50 118.5q0 169 301 199v37q0 124 -126 124q-68 0 -130 -35l-15 35q70 39 146 39q84 0 130 -41.5t46 -122.5v-358zM350 46v270q-124 -15 -186 -52t-62 -114q0 -61 36.5 -93.5t106.5 -32.5q63 0 105 22zM356 620h-232v39h232
v-39z" />
    <glyph glyph-name="Abreve" unicode="&#x102;" horiz-adv-x="572" 
d="M546 0h-60l-76 235h-253l-77 -235h-54l237 688h46zM397 272l-90 278q-9 29 -22 89h-2q-16 -66 -23 -89l-91 -278h228zM397 866q0 -55 -33 -85t-78 -30t-78 30t-33 85l31 5q4 -40 26.5 -60t53.5 -20t53.5 20t26.5 60z" />
    <glyph glyph-name="abreve" unicode="&#x103;" horiz-adv-x="478" 
d="M401 27q-71 -37 -163 -37q-89 0 -139 41.5t-50 118.5q0 169 301 199v37q0 124 -126 124q-68 0 -130 -35l-15 35q70 39 146 39q84 0 130 -41.5t46 -122.5v-358zM350 46v270q-124 -15 -186 -52t-62 -114q0 -61 36.5 -93.5t106.5 -32.5q63 0 105 22zM346 717q0 -55 -33 -85
t-78 -30t-78 30t-33 85l31 5q4 -40 26.5 -60t53.5 -20t53.5 20t26.5 60z" />
    <glyph glyph-name="Aogonek" unicode="&#x104;" horiz-adv-x="572" 
d="M597 -158q-33 -15 -75 -15q-44 0 -74 19.5t-30 60.5q0 51 68 93l-76 235h-253l-77 -235h-54l237 688h46l237 -688h-16q-61 -39 -61 -86q0 -22 17 -37.5t44 -15.5q33 0 60 12zM397 272l-90 278q-10 30 -22 89h-2q-14 -60 -23 -89l-91 -278h228z" />
    <glyph glyph-name="aogonek" unicode="&#x105;" horiz-adv-x="478" 
d="M419 -158q-33 -15 -75 -15q-44 0 -74 19.5t-30 60.5q0 49 58 87q-25 -4 -60 -4q-89 0 -139 41.5t-50 118.5q0 169 301 199v37q0 124 -131 124q-64 0 -125 -35l-15 35q68 39 146 39q76 0 126 -38.5t50 -125.5v-358q-110 -51 -110 -113q0 -22 17 -37.5t44 -15.5q33 0 60 12
zM350 46v270q-124 -15 -186 -52t-62 -114q0 -61 36.5 -93.5t106.5 -32.5q64 0 105 22z" />
    <glyph glyph-name="Cacute" unicode="&#x106;" horiz-adv-x="472" 
d="M437 27q-55 -37 -127 -37q-82 0 -140 50.5t-84.5 129t-26.5 174.5t26.5 174.5t84.5 129t140 50.5q72 0 127 -37l-17 -35q-48 32 -110 32q-49 0 -86.5 -26.5t-60 -71.5t-33.5 -99.5t-11 -115.5q0 -130 48.5 -221.5t142.5 -91.5q62 0 110 32zM403 878l-106 -129h-34l76 134
q15 13 34 13q23 0 30 -18z" />
    <glyph glyph-name="cacute" unicode="&#x107;" horiz-adv-x="407" 
d="M367 24q-42 -34 -113 -34q-94 0 -146.5 78t-52.5 202t52.5 201.5t146.5 77.5q71 0 113 -34l-15 -34q-39 29 -94 29q-70 0 -109 -67.5t-39 -171.5q0 -102 39.5 -171t108.5 -69q54 0 93 29zM342 729l-106 -129h-34l76 134q15 13 34 13q22 0 30 -18z" />
    <glyph glyph-name="Ccircumflex" unicode="&#x108;" horiz-adv-x="472" 
d="M437 27q-55 -37 -127 -37q-82 0 -140 50.5t-84.5 129t-26.5 174.5t26.5 174.5t84.5 129t140 50.5q72 0 127 -37l-17 -35q-48 32 -110 32q-49 0 -86.5 -26.5t-60 -71.5t-33.5 -99.5t-11 -115.5q0 -130 48.5 -221.5t142.5 -91.5q62 0 110 32zM413 764l-22 -19l-95 84
l-95 -84l-22 19l89 97q12 13 28 13t28 -13z" />
    <glyph glyph-name="ccircumflex" unicode="&#x109;" horiz-adv-x="407" 
d="M367 24q-42 -34 -113 -34q-94 0 -146.5 78t-52.5 202t52.5 201.5t146.5 77.5q71 0 113 -34l-15 -34q-39 29 -94 29q-70 0 -109 -67.5t-39 -171.5q0 -102 39.5 -171t108.5 -69q54 0 93 29zM356 615l-22 -19l-95 84l-95 -84l-22 19l89 97q12 13 28 13t28 -13z" />
    <glyph glyph-name="Cdotaccent" unicode="&#x10a;" horiz-adv-x="472" 
d="M437 27q-55 -37 -127 -37q-82 0 -140 50.5t-84.5 129t-26.5 174.5t26.5 174.5t84.5 129t140 50.5q72 0 127 -37l-17 -35q-48 32 -110 32q-49 0 -86.5 -26.5t-60 -71.5t-33.5 -99.5t-11 -115.5q0 -130 48.5 -221.5t142.5 -91.5q62 0 110 32zM329 802q0 -15 -11 -26
t-26 -11t-26 11t-11 26t11 26t26 11t26 -11t11 -26z" />
    <glyph glyph-name="cdotaccent" unicode="&#x10b;" horiz-adv-x="407" 
d="M367 24q-42 -34 -113 -34q-94 0 -146.5 78t-52.5 202t52.5 201.5t146.5 77.5q71 0 113 -34l-15 -34q-39 29 -94 29q-70 0 -109 -67.5t-39 -171.5q0 -102 39.5 -171t108.5 -69q54 0 93 29zM276 653q0 -15 -11 -26t-26 -11t-26 11t-11 26t11 26t26 11t26 -11t11 -26z" />
    <glyph glyph-name="Ccaron" unicode="&#x10c;" horiz-adv-x="472" 
d="M437 27q-55 -37 -127 -37q-82 0 -140 50.5t-84.5 129t-26.5 174.5t26.5 174.5t84.5 129t140 50.5q72 0 127 -37l-17 -35q-48 32 -110 32q-49 0 -86.5 -26.5t-60 -71.5t-33.5 -99.5t-11 -115.5q0 -130 48.5 -221.5t142.5 -91.5q62 0 110 32zM408 860l-89 -97
q-12 -13 -28 -13t-28 13l-89 97l22 19l95 -84l95 84z" />
    <glyph glyph-name="ccaron" unicode="&#x10d;" horiz-adv-x="407" 
d="M367 24q-42 -34 -113 -34q-94 0 -146.5 78t-52.5 202t52.5 201.5t146.5 77.5q71 0 113 -34l-15 -34q-39 29 -94 29q-70 0 -109 -67.5t-39 -171.5q0 -102 39.5 -171t108.5 -69q54 0 93 29zM355 711l-89 -97q-12 -13 -28 -13t-28 13l-89 97l22 19l95 -84l95 84z" />
    <glyph glyph-name="Dcaron" unicode="&#x10e;" horiz-adv-x="583" 
d="M524 344q0 -166 -73 -260t-203 -94q-93 0 -165 36v636q72 36 165 36q130 0 203 -94t73 -260zM465 345q0 149 -55.5 231.5t-163.5 82.5q-67 0 -106 -17v-594q39 -17 106 -17q108 0 163.5 82.5t55.5 231.5zM384 860l-89 -97q-12 -13 -28 -13t-28 13l-89 97l22 19l95 -84
l95 84z" />
    <glyph glyph-name="dcaron" unicode="&#x10f;" horiz-adv-x="505" 
d="M428 27q-54 -37 -150 -37q-109 0 -166 74t-57 194q0 124 60 205.5t173 81.5q41 0 87 -13v253h53v-758zM375 46v453q-39 11 -79 11q-51 0 -88.5 -21t-58.5 -57t-30.5 -77.5t-9.5 -89.5q0 -107 42.5 -172t131.5 -65q61 0 92 18zM567 776l-23 -152h-33v152q9 15 29 15
t27 -15z" />
    <glyph glyph-name="Dcroat" unicode="&#x110;" horiz-adv-x="591" 
d="M532 353q0 -169 -69 -266t-202 -97q-105 0 -170 36v319h-68v35h68v281q67 37 168 37q129 0 201 -90.5t72 -254.5zM473 353q0 150 -56 229t-166 79q-62 0 -103 -16v-265h133v-35h-133v-297q39 -17 105 -17q220 0 220 322z" />
    <glyph glyph-name="dcroat" unicode="&#x111;" horiz-adv-x="505" 
d="M515 639h-87v-612q-54 -37 -150 -37q-109 0 -166 74t-57 194q0 124 60 205.5t173 81.5q41 0 87 -13v107h-119v32h119v114h53v-114h87v-32zM375 46v453q-39 11 -79 11q-51 0 -88.5 -21t-58.5 -57t-30.5 -77.5t-9.5 -89.5q0 -107 42.5 -172t131.5 -65q61 0 92 18z" />
    <glyph glyph-name="Emacron" unicode="&#x112;" horiz-adv-x="433" 
d="M386 0h-303v688h303v-39h-246v-272h223v-39h-223v-299h246v-39zM350 769h-232v39h232v-39z" />
    <glyph glyph-name="emacron" unicode="&#x113;" horiz-adv-x="507" 
d="M452 297l-346 -53q5 -100 51 -156.5t130 -56.5q76 0 129 33l17 -37q-59 -37 -147 -37q-109 0 -170 73t-61 208q0 128 54.5 203t149.5 75q92 0 142.5 -62t50.5 -190zM399 324q-3 188 -140 188q-75 0 -114.5 -63t-39.5 -170zM375 620h-232v39h232v-39z" />
    <glyph glyph-name="Ebreve" unicode="&#x114;" horiz-adv-x="433" 
d="M386 0h-303v688h303v-39h-246v-272h223v-39h-223v-299h246v-39zM345 866q0 -55 -33 -85t-78 -30t-78 30t-33 85l31 5q4 -40 26.5 -60t53.5 -20t53.5 20t26.5 60z" />
    <glyph glyph-name="ebreve" unicode="&#x115;" horiz-adv-x="507" 
d="M452 297l-346 -53q5 -100 51 -156.5t130 -56.5q76 0 129 33l17 -37q-59 -37 -147 -37q-109 0 -170 73t-61 208q0 128 54.5 203t149.5 75q92 0 142.5 -62t50.5 -190zM399 324q-3 188 -140 188q-75 0 -114.5 -63t-39.5 -170zM366 717q0 -55 -33 -85t-78 -30t-78 30t-33 85
l31 5q4 -40 26.5 -60t53.5 -20t53.5 20t26.5 60z" />
    <glyph glyph-name="Edotaccent" unicode="&#x116;" horiz-adv-x="433" 
d="M386 0h-303v688h303v-39h-246v-272h223v-39h-223v-299h246v-39zM271 802q0 -15 -11 -26t-26 -11t-26 11t-11 26t11 26t26 11t26 -11t11 -26z" />
    <glyph glyph-name="edotaccent" unicode="&#x117;" horiz-adv-x="507" 
d="M452 297l-346 -53q5 -100 51 -156.5t130 -56.5q76 0 129 33l17 -37q-59 -37 -147 -37q-109 0 -170 73t-61 208q0 128 54.5 203t149.5 75q92 0 142.5 -62t50.5 -190zM399 324q-3 188 -140 188q-75 0 -114.5 -63t-39.5 -170zM296 653q0 -15 -11 -26t-26 -11t-26 11t-11 26
t11 26t26 11t26 -11t11 -26z" />
    <glyph glyph-name="Eogonek" unicode="&#x118;" horiz-adv-x="433" 
d="M453 -158q-33 -15 -75 -15q-44 0 -74 19.5t-30 60.5q0 51 68 93h-259v688h303v-39h-246v-272h223v-39h-223v-299h246v-39q-61 -39 -61 -86q0 -22 17 -37.5t44 -15.5q33 0 60 12z" />
    <glyph glyph-name="eogonek" unicode="&#x119;" horiz-adv-x="507" 
d="M452 297l-346 -53q5 -100 51 -156.5t130 -56.5q76 0 129 33l17 -37q-110 -51 -110 -113q0 -22 17 -37.5t44 -15.5q33 0 60 12l7 -31q-33 -15 -75 -15q-44 0 -74 19.5t-30 60.5q0 47 57 86q-21 -3 -43 -3q-109 0 -170 73t-61 208q0 128 54.5 203t149.5 75q92 0 142.5 -62
t50.5 -190zM399 324q-3 188 -140 188q-75 0 -114.5 -63t-39.5 -170z" />
    <glyph glyph-name="Ecaron" unicode="&#x11a;" horiz-adv-x="433" 
d="M386 0h-303v688h303v-39h-246v-272h223v-39h-223v-299h246v-39zM351 860l-89 -97q-12 -13 -28 -13t-28 13l-89 97l22 19l95 -84l95 84z" />
    <glyph glyph-name="ecaron" unicode="&#x11b;" horiz-adv-x="507" 
d="M452 297l-346 -53q5 -100 51 -156.5t130 -56.5q76 0 129 33l17 -37q-59 -37 -147 -37q-109 0 -170 73t-61 208q0 128 54.5 203t149.5 75q92 0 142.5 -62t50.5 -190zM399 324q-3 188 -140 188q-75 0 -114.5 -63t-39.5 -170zM373 711l-89 -97q-12 -13 -28 -13t-28 13
l-89 97l22 19l95 -84l95 84z" />
    <glyph glyph-name="Gcircumflex" unicode="&#x11c;" horiz-adv-x="583" 
d="M506 26q-63 -36 -165 -36q-55 0 -104 21t-89.5 62.5t-64.5 111t-24 159.5q0 164 78.5 259t208.5 95q81 0 145 -37l-17 -35q-59 31 -128 31q-106 0 -167 -83.5t-61 -229.5q0 -153 64.5 -233t158.5 -80q67 0 108 17v290h-147v39h204v-351zM440 764l-22 -19l-95 84l-95 -84
l-22 19l89 97q12 13 28 13t28 -13z" />
    <glyph glyph-name="gcircumflex" unicode="&#x11d;" horiz-adv-x="505" 
d="M428 -15q0 -97 -50 -153.5t-142 -56.5q-87 0 -149 36l20 37q53 -31 121 -31q76 0 112 43.5t36 116.5v42q-44 -27 -114 -27q-96 0 -151.5 72.5t-55.5 196.5q0 130 59.5 209t169.5 79q89 0 144 -36v-528zM376 55v441q-36 18 -91 18q-89 0 -132.5 -67.5t-43.5 -185.5
q0 -232 167 -232q58 0 100 26zM387 615l-22 -19l-95 84l-95 -84l-22 19l89 97q12 13 28 13t28 -13z" />
    <glyph glyph-name="Gbreve" unicode="&#x11e;" horiz-adv-x="583" 
d="M506 26q-63 -36 -165 -36q-55 0 -104 21t-89.5 62.5t-64.5 111t-24 159.5q0 164 78.5 259t208.5 95q81 0 145 -37l-17 -35q-59 31 -128 31q-106 0 -167 -83.5t-61 -229.5q0 -153 64.5 -233t158.5 -80q67 0 108 17v290h-147v39h204v-351zM432 866q0 -55 -33 -85t-78 -30
t-78 30t-33 85l31 5q4 -40 26.5 -60t53.5 -20t53.5 20t26.5 60z" />
    <glyph glyph-name="gbreve" unicode="&#x11f;" horiz-adv-x="505" 
d="M428 -15q0 -97 -50 -153.5t-142 -56.5q-87 0 -149 36l20 37q53 -31 121 -31q76 0 112 43.5t36 116.5v42q-44 -27 -114 -27q-96 0 -151.5 72.5t-55.5 196.5q0 130 59.5 209t169.5 79q89 0 144 -36v-528zM376 55v441q-36 18 -91 18q-89 0 -132.5 -67.5t-43.5 -185.5
q0 -232 167 -232q58 0 100 26zM375 717q0 -55 -33 -85t-78 -30t-78 30t-33 85l31 5q4 -40 26.5 -60t53.5 -20t53.5 20t26.5 60z" />
    <glyph glyph-name="Gdotaccent" unicode="&#x120;" horiz-adv-x="583" 
d="M506 26q-63 -36 -165 -36q-55 0 -104 21t-89.5 62.5t-64.5 111t-24 159.5q0 164 78.5 259t208.5 95q81 0 145 -37l-17 -35q-59 31 -128 31q-106 0 -167 -83.5t-61 -229.5q0 -153 64.5 -233t158.5 -80q67 0 108 17v290h-147v39h204v-351zM358 802q0 -15 -11 -26t-26 -11
t-26 11t-11 26t11 26t26 11t26 -11t11 -26z" />
    <glyph glyph-name="gdotaccent" unicode="&#x121;" horiz-adv-x="505" 
d="M428 -15q0 -97 -50 -153.5t-142 -56.5q-87 0 -149 36l20 37q53 -31 121 -31q76 0 112 43.5t36 116.5v42q-44 -27 -114 -27q-96 0 -151.5 72.5t-55.5 196.5q0 130 59.5 209t169.5 79q89 0 144 -36v-528zM376 55v441q-36 18 -91 18q-89 0 -132.5 -67.5t-43.5 -185.5
q0 -232 167 -232q58 0 100 26zM304 653q0 -15 -11 -26t-26 -11t-26 11t-11 26t11 26t26 11t26 -11t11 -26z" />
    <glyph glyph-name="Gcommaaccent" unicode="&#x122;" horiz-adv-x="583" 
d="M506 26q-63 -36 -165 -36q-55 0 -104 21t-89.5 62.5t-64.5 111t-24 159.5q0 164 78.5 259t208.5 95q81 0 145 -37l-17 -35q-59 31 -128 31q-106 0 -167 -83.5t-61 -229.5q0 -153 64.5 -233t158.5 -80q67 0 108 17v290h-147v39h204v-351zM361 -79l-94 -136h-34l65 141
q15 13 34 13q22 0 29 -18z" />
    <glyph glyph-name="gcommaaccent" unicode="&#x123;" horiz-adv-x="505" 
d="M428 -15q0 -97 -50 -153.5t-142 -56.5q-87 0 -149 36l20 37q53 -31 121 -31q76 0 112 43.5t36 116.5v42q-44 -27 -114 -27q-96 0 -151.5 72.5t-55.5 196.5q0 130 59.5 209t169.5 79q89 0 144 -36v-528zM376 55v441q-36 18 -91 18q-89 0 -132.5 -67.5t-43.5 -185.5
q0 -232 167 -232q58 0 100 26zM362 755l-65 -141q-15 -13 -34 -13q-22 0 -29 18l94 136h34z" />
    <glyph glyph-name="Hcircumflex" unicode="&#x124;" horiz-adv-x="581" 
d="M498 0h-57v338h-301v-338h-57v688h57v-311h301v311h57v-688zM408 764l-22 -19l-95 84l-95 -84l-22 19l89 97q12 13 28 13t28 -13z" />
    <glyph glyph-name="hcircumflex" unicode="&#x125;" horiz-adv-x="511" 
d="M434 0h-54v386q0 121 -124 121q-68 0 -125 -35v-472h-54v785h54v-279q57 37 128 37q93 0 134 -46t41 -109v-388zM222 833l-22 -19l-95 84l-95 -84l-22 19l89 97q12 13 28 13t28 -13z" />
    <glyph glyph-name="Hbar" unicode="&#x126;" horiz-adv-x="581" 
d="M581 525h-83v-525h-57v338h-301v-338h-57v525h-83v32h83v131h57v-131h301v131h57v-131h83v-32zM441 377v148h-301v-148h301z" />
    <glyph glyph-name="hbar" unicode="&#x127;" horiz-adv-x="511" 
d="M434 0h-54v386q0 121 -124 121q-68 0 -125 -35v-472h-54v639h-87v32h87v114h54v-114h118v-32h-118v-133q57 37 128 37q93 0 134 -46t41 -109v-388z" />
    <glyph glyph-name="Itilde" unicode="&#x128;" horiz-adv-x="231" 
d="M144 0h-57v688h57v-688zM235 826q-14 -69 -70 -69q-21 0 -50.5 20.5t-47.5 20.5q-31 0 -40 -39l-30 10q14 69 70 69q21 0 50.5 -20.5t47.5 -20.5q31 0 40 39z" />
    <glyph glyph-name="itilde" unicode="&#x129;" horiz-adv-x="222" 
d="M138 0h-54v539h54v-539zM230 677q-14 -69 -70 -69q-21 0 -50.5 20.5t-47.5 20.5q-31 0 -40 -39l-30 10q14 69 70 69q21 0 50.5 -20.5t47.5 -20.5q31 0 40 39z" />
    <glyph glyph-name="Imacron" unicode="&#x12a;" horiz-adv-x="231" 
d="M144 0h-57v688h57v-688zM232 769h-232v39h232v-39z" />
    <glyph glyph-name="imacron" unicode="&#x12b;" horiz-adv-x="222" 
d="M138 0h-54v539h54v-539zM227 620h-232v39h232v-39z" />
    <glyph glyph-name="Ibreve" unicode="&#x12c;" horiz-adv-x="231" 
d="M144 0h-57v688h57v-688zM227 866q0 -55 -33 -85t-78 -30t-78 30t-33 85l31 5q4 -40 26.5 -60t53.5 -20t53.5 20t26.5 60z" />
    <glyph glyph-name="ibreve" unicode="&#x12d;" horiz-adv-x="222" 
d="M138 0h-54v539h54v-539zM222 717q0 -55 -33 -85t-78 -30t-78 30t-33 85l31 5q4 -40 26.5 -60t53.5 -20t53.5 20t26.5 60z" />
    <glyph glyph-name="Iogonek" unicode="&#x12e;" horiz-adv-x="231" 
d="M198 -158q-33 -15 -75 -15q-44 0 -74 19.5t-30 60.5q0 51 68 93v688h57v-688h-13q-61 -39 -61 -86q0 -22 17 -37.5t44 -15.5q33 0 60 12z" />
    <glyph glyph-name="iogonek" unicode="&#x12f;" horiz-adv-x="222" 
d="M195 -158q-33 -15 -75 -15q-44 0 -74 19.5t-30 60.5q0 51 68 93v539h54v-539h-10q-61 -39 -61 -86q0 -22 17 -37.5t44 -15.5q33 0 60 12zM148 690q0 -15 -11 -26t-26 -11t-26 11t-11 26t11 26t26 11t26 -11t11 -26z" />
    <glyph glyph-name="Idotaccent" unicode="&#x130;" horiz-adv-x="231" 
d="M144 0h-57v688h57v-688zM153 802q0 -15 -11 -26t-26 -11t-26 11t-11 26t11 26t26 11t26 -11t11 -26z" />
    <glyph glyph-name="dotlessi" unicode="&#x131;" horiz-adv-x="222" 
d="M138 0h-54v539h54v-539z" />
    <glyph glyph-name="IJ" unicode="&#x132;" horiz-adv-x="462" 
d="M375 688v-621q0 -107 -50.5 -183t-140.5 -104v42q62 27 98 90t36 155v621h57zM144 0h-57v688h57v-688z" />
    <glyph glyph-name="ij" unicode="&#x133;" horiz-adv-x="449" 
d="M365 539v-471q0 -113 -36 -183t-122 -106v37q58 39 81 94.5t23 151.5v477h54zM138 0h-54v539h54v-539zM148 690q0 -15 -11 -26t-26 -11t-26 11t-11 26t11 26t26 11t26 -11t11 -26zM375 690q0 -15 -11 -26t-26 -11t-26 11t-11 26t11 26t26 11t26 -11t11 -26z" />
    <glyph glyph-name="Jcircumflex" unicode="&#x134;" horiz-adv-x="231" 
d="M144 688v-621q0 -107 -50.5 -183t-140.5 -104v42q62 27 98 90t36 155v621h57zM233 764l-22 -19l-95 84l-95 -84l-22 19l89 97q12 13 28 13t28 -13z" />
    <glyph glyph-name="jcircumflex" unicode="&#x135;" horiz-adv-x="227" 
d="M143 539v-471q0 -113 -36 -183t-122 -106v37q58 39 81 94.5t23 151.5v477h54zM233 615l-22 -19l-95 84l-95 -84l-22 19l89 97q12 13 28 13t28 -13z" />
    <glyph glyph-name="Kcommaaccent" unicode="&#x136;" 
d="M488 0h-73l-271 363h-2v-363h-55v688h55v-323h2l266 323h68l-281 -323zM300 -79l-94 -136h-34l65 141q15 13 34 13q22 0 29 -18z" />
    <glyph glyph-name="kcommaaccent" unicode="&#x137;" horiz-adv-x="454" 
d="M444 0h-68l-239 281h-2v-281h-52v785h52v-502h2l222 256h64l-233 -257zM276 -79l-94 -136h-34l65 141q15 13 34 13q22 0 29 -18z" />
    <glyph glyph-name="kgreenlandic" unicode="&#x138;" horiz-adv-x="454" 
d="M444 0h-68l-239 281h-2v-281h-52v539h52v-256h2l222 256h64l-233 -257z" />
    <glyph glyph-name="Lacute" unicode="&#x139;" horiz-adv-x="400" 
d="M367 0h-280v688h57v-649h223v-39zM255 878l-106 -129h-34l76 134q15 13 34 13q22 0 30 -18z" />
    <glyph glyph-name="lacute" unicode="&#x13a;" horiz-adv-x="224" 
d="M139 0h-54v785h54v-785zM233 972l-106 -129h-34l76 134q15 13 34 13q23 0 30 -18z" />
    <glyph glyph-name="Lcommaaccent" unicode="&#x13b;" horiz-adv-x="400" 
d="M367 0h-280v688h57v-649h223v-39zM250 -79l-94 -136h-34l65 141q15 13 34 13q22 0 29 -18z" />
    <glyph glyph-name="lcommaaccent" unicode="&#x13c;" horiz-adv-x="224" 
d="M139 0h-54v785h54v-785zM141 -79l-94 -136h-34l65 141q15 13 34 13q22 0 29 -18z" />
    <glyph glyph-name="Lcaron" unicode="&#x13d;" horiz-adv-x="400" 
d="M367 0h-280v688h57v-649h223v-39zM292 678l-23 -152h-33v152q9 15 29 15q19 0 27 -15z" />
    <glyph glyph-name="lcaron" unicode="&#x13e;" horiz-adv-x="224" 
d="M139 0h-54v785h54v-785zM278 776l-23 -152h-33v152q9 15 29 15q19 0 27 -15z" />
    <glyph glyph-name="Ldot" unicode="&#x13f;" horiz-adv-x="429" 
d="M367 0h-280v688h57v-649h223v-39zM367 370q0 -15 -11 -26t-26 -11t-26 11t-11 26t11 26t26 11t26 -11t11 -26z" />
    <glyph glyph-name="ldot" unicode="&#x140;" horiz-adv-x="296" 
d="M139 0h-54v785h54v-785zM297 416q0 -15 -11 -26t-26 -11t-26 11t-11 26t11 26t26 11t26 -11t11 -26z" />
    <glyph glyph-name="Lslash" unicode="&#x141;" horiz-adv-x="410" 
d="M377 0h-280v361l-74 -37v40l74 37v287h57v-258l92 47v-40l-92 -47v-351h223v-39z" />
    <glyph glyph-name="lslash" unicode="&#x142;" horiz-adv-x="246" 
d="M224 500l-74 -38v-462h-54v435l-74 -38v36l74 38v314h54v-287l74 38v-36z" />
    <glyph glyph-name="Nacute" unicode="&#x143;" horiz-adv-x="644" 
d="M561 0h-58l-335 576q-21 35 -38 74h-2q3 -54 3 -86v-564h-48v688h73l321 -555q21 -35 37 -73h2q-3 42 -3 83v545h48v-688zM442 878l-106 -129h-34l76 134q15 13 34 13q22 0 30 -18z" />
    <glyph glyph-name="nacute" unicode="&#x144;" horiz-adv-x="511" 
d="M434 0h-54v376q0 71 -32 104t-106 33q-63 0 -111 -21v-492h-54v512q76 37 165 37q192 0 192 -173v-376zM352 729l-106 -129h-34l76 134q15 13 34 13q22 0 30 -18z" />
    <glyph glyph-name="Ncommaaccent" unicode="&#x145;" horiz-adv-x="644" 
d="M561 0h-58l-335 576q-21 35 -38 74h-2q3 -54 3 -86v-564h-48v688h73l321 -555q21 -35 37 -73h2q-3 42 -3 83v545h48v-688zM350 -79l-94 -136h-34l65 141q15 13 34 13q22 0 29 -18z" />
    <glyph glyph-name="ncommaaccent" unicode="&#x146;" horiz-adv-x="511" 
d="M434 0h-54v376q0 71 -32 104t-106 33q-63 0 -111 -21v-492h-54v512q76 37 165 37q192 0 192 -173v-376zM290 -79l-94 -136h-34l65 141q15 13 34 13q22 0 29 -18z" />
    <glyph glyph-name="Ncaron" unicode="&#x147;" horiz-adv-x="644" 
d="M561 0h-58l-335 576q-21 35 -38 74h-2q3 -54 3 -86v-564h-48v688h73l321 -555q21 -35 37 -73h2q-3 42 -3 83v545h48v-688zM444 860l-89 -97q-12 -13 -28 -13t-28 13l-89 97l22 19l95 -84l95 84z" />
    <glyph glyph-name="ncaron" unicode="&#x148;" horiz-adv-x="511" 
d="M434 0h-54v376q0 71 -32 104t-106 33q-63 0 -111 -21v-492h-54v512q76 37 165 37q192 0 192 -173v-376zM364 711l-89 -97q-12 -13 -28 -13t-28 13l-89 97l22 19l95 -84l95 84z" />
    <glyph glyph-name="napostrophe" unicode="&#x149;" horiz-adv-x="511" 
d="M56 776l-23 -152h-33v152q9 15 29 15q19 0 27 -15zM434 0h-54v376q0 71 -32 104t-106 33q-63 0 -111 -21v-492h-54v512q76 37 165 37q192 0 192 -173v-376z" />
    <glyph glyph-name="Eng" unicode="&#x14a;" horiz-adv-x="644" 
d="M561 688v-621q0 -107 -50.5 -183t-140.5 -104v42q110 47 135 174l-337 580q-20 33 -38 74h-2q3 -57 3 -86v-564h-48v688h73l321 -555q18 -31 37 -73h2q-3 41 -3 83v545h48z" />
    <glyph glyph-name="eng" unicode="&#x14b;" horiz-adv-x="511" 
d="M434 376v-308q0 -113 -36 -183t-122 -106v37q58 39 81 94.5t23 151.5v314q0 69 -31 103t-107 34q-62 0 -111 -21v-492h-54v512q76 37 165 37q192 0 192 -173z" />
    <glyph glyph-name="Omacron" unicode="&#x14c;" horiz-adv-x="596" 
d="M537 344q0 -157 -59.5 -255.5t-179.5 -98.5t-179.5 98.5t-59.5 255.5t59.5 255.5t179.5 98.5t179.5 -98.5t59.5 -255.5zM479 345q0 87 -15.5 154t-57.5 113t-108 46t-108 -46t-57.5 -113t-15.5 -154t15.5 -154t57.5 -113t108 -46t108 46t57.5 113t15.5 154zM414 769h-232
v39h232v-39z" />
    <glyph glyph-name="omacron" unicode="&#x14d;" horiz-adv-x="506" 
d="M451 270q0 -127 -49.5 -203.5t-148.5 -76.5t-148.5 76.5t-49.5 203.5t49.5 203t148.5 76t148.5 -76t49.5 -203zM397 272q0 50 -7.5 91.5t-23.5 76t-45 54t-68 19.5q-52 0 -85 -34.5t-46 -86.5t-13 -120t13 -120.5t46.5 -87.5t84.5 -35t84.5 35t46.5 87.5t13 120.5z
M369 620h-232v39h232v-39z" />
    <glyph glyph-name="Obreve" unicode="&#x14e;" horiz-adv-x="596" 
d="M537 344q0 -157 -59.5 -255.5t-179.5 -98.5t-179.5 98.5t-59.5 255.5t59.5 255.5t179.5 98.5t179.5 -98.5t59.5 -255.5zM479 345q0 87 -15.5 154t-57.5 113t-108 46t-108 -46t-57.5 -113t-15.5 -154t15.5 -154t57.5 -113t108 -46t108 46t57.5 113t15.5 154zM409 866
q0 -55 -33 -85t-78 -30t-78 30t-33 85l31 5q4 -40 26.5 -60t53.5 -20t53.5 20t26.5 60z" />
    <glyph glyph-name="obreve" unicode="&#x14f;" horiz-adv-x="506" 
d="M451 270q0 -127 -49.5 -203.5t-148.5 -76.5t-148.5 76.5t-49.5 203.5t49.5 203t148.5 76t148.5 -76t49.5 -203zM397 272q0 50 -7.5 91.5t-23.5 76t-45 54t-68 19.5q-52 0 -85 -34.5t-46 -86.5t-13 -120t13 -120.5t46.5 -87.5t84.5 -35t84.5 35t46.5 87.5t13 120.5z
M364 717q0 -55 -33 -85t-78 -30t-78 30t-33 85l31 5q4 -40 26.5 -60t53.5 -20t53.5 20t26.5 60z" />
    <glyph glyph-name="Ohungarumlaut" unicode="&#x150;" horiz-adv-x="596" 
d="M537 344q0 -157 -59.5 -255.5t-179.5 -98.5t-179.5 98.5t-59.5 255.5t59.5 255.5t179.5 98.5t179.5 -98.5t59.5 -255.5zM479 345q0 87 -15.5 154t-57.5 113t-108 46t-108 -46t-57.5 -113t-15.5 -154t15.5 -154t57.5 -113t108 -46t108 46t57.5 113t15.5 154zM470 874
l-104 -125h-31l81 130q15 13 30 13q19 0 24 -18zM356 874l-104 -125h-31l81 130q15 13 30 13q19 0 24 -18z" />
    <glyph glyph-name="ohungarumlaut" unicode="&#x151;" horiz-adv-x="506" 
d="M451 270q0 -127 -49.5 -203.5t-148.5 -76.5t-148.5 76.5t-49.5 203.5t49.5 203t148.5 76t148.5 -76t49.5 -203zM397 272q0 50 -7.5 91.5t-23.5 76t-45 54t-68 19.5q-52 0 -85 -34.5t-46 -86.5t-13 -120t13 -120.5t46.5 -87.5t84.5 -35t84.5 35t46.5 87.5t13 120.5z
M419 725l-104 -125h-31l81 130q15 13 30 13q19 0 24 -18zM305 725l-104 -125h-31l81 130q15 13 30 13q19 0 24 -18z" />
    <glyph glyph-name="OE" unicode="&#x152;" horiz-adv-x="752" 
d="M705 0h-299q-37 -10 -83 -10q-90 0 -150.5 49t-87 126.5t-26.5 178.5t26.5 178.5t87 126.5t150.5 49q46 0 83 -10h299v-39h-245v-272h224v-39h-224v-299h245v-39zM406 37v615q-40 11 -83 11q-56 0 -97 -26t-64 -72t-34 -101t-11 -120t11 -119.5t34 -100t64 -71t97 -25.5
q50 0 83 9z" />
    <glyph glyph-name="oe" unicode="&#x153;" horiz-adv-x="840" 
d="M785 297l-346 -53q5 -100 51 -156.5t130 -56.5q76 0 129 33l17 -37q-59 -37 -147 -37q-144 0 -199 141q-44 -141 -167 -141q-99 0 -148.5 76.5t-49.5 203.5t49.5 203t148.5 76q118 0 167 -131q23 65 70.5 98t101.5 33q92 0 142.5 -62t50.5 -190zM732 324q-3 188 -140 188
q-75 0 -114.5 -63t-39.5 -170zM397 272q0 50 -7.5 91.5t-23.5 76t-45 54t-68 19.5q-52 0 -85 -34.5t-46 -86.5t-13 -120t13 -120.5t46.5 -87.5t84.5 -35t84.5 35t46.5 87.5t13 120.5z" />
    <glyph glyph-name="Racute" unicode="&#x154;" horiz-adv-x="522" 
d="M480 0h-68l-149 235q-51 79 -123 92v-327h-55v662q67 36 153 36q106 0 164 -49t58 -140q0 -76 -59 -130t-151 -62v-2q39 -29 69 -75zM405 509q0 152 -167 152q-54 0 -98 -17v-291q31 -6 73 -6q86 0 139 45t53 117zM371 878l-106 -129h-34l76 134q15 13 34 13q23 0 30 -18
z" />
    <glyph glyph-name="racute" unicode="&#x155;" horiz-adv-x="303" 
d="M279 546l-15 -45q-22 7 -54 7q-45 0 -79 -17v-491h-54v512q72 36 166 36q16 0 36 -2zM282 729l-106 -129h-34l76 134q15 13 34 13q22 0 30 -18z" />
    <glyph glyph-name="Rcommaaccent" unicode="&#x156;" horiz-adv-x="522" 
d="M480 0h-68l-149 235q-51 79 -123 92v-327h-55v662q67 36 153 36q106 0 164 -49t58 -140q0 -76 -59 -130t-151 -62v-2q39 -29 69 -75zM405 509q0 152 -167 152q-54 0 -98 -17v-291q31 -6 73 -6q86 0 139 45t53 117zM291 -79l-94 -136h-34l65 141q15 13 34 13q22 0 29 -18z
" />
    <glyph glyph-name="rcommaaccent" unicode="&#x157;" horiz-adv-x="303" 
d="M279 546l-15 -45q-22 7 -54 7q-45 0 -79 -17v-491h-54v512q72 36 166 36q16 0 36 -2zM137 -79l-94 -136h-34l65 141q15 13 34 13q22 0 29 -18z" />
    <glyph glyph-name="Rcaron" unicode="&#x158;" horiz-adv-x="522" 
d="M480 0h-68l-149 235q-51 79 -123 92v-327h-55v662q67 36 153 36q106 0 164 -49t58 -140q0 -76 -59 -130t-151 -62v-2q39 -29 69 -75zM405 509q0 152 -167 152q-54 0 -98 -17v-291q31 -6 73 -6q86 0 139 45t53 117zM376 860l-89 -97q-12 -13 -28 -13t-28 13l-89 97l22 19
l95 -84l95 84z" />
    <glyph glyph-name="rcaron" unicode="&#x159;" horiz-adv-x="303" 
d="M279 546l-15 -45q-22 7 -54 7q-45 0 -79 -17v-491h-54v512q72 36 166 36q16 0 36 -2zM292 711l-89 -97q-12 -13 -28 -13t-28 13l-89 97l22 19l95 -84l95 84z" />
    <glyph glyph-name="Sacute" unicode="&#x15a;" horiz-adv-x="474" 
d="M414 172q0 -79 -57 -130.5t-149 -51.5q-98 0 -158 37l19 38q52 -32 139 -32q70 0 109.5 38.5t39.5 99.5q0 53 -31 88.5t-74.5 56.5l-87.5 43.5t-75 65t-31 105.5q0 77 53 122.5t139 45.5q79 0 137 -37l-18 -35q-52 32 -119 32q-64 0 -100 -33.5t-36 -93.5q0 -52 31 -86.5
t75 -55l88 -43t75 -66t31 -108.5zM348 878l-106 -129h-34l76 134q15 13 34 13q22 0 30 -18z" />
    <glyph glyph-name="sacute" unicode="&#x15b;" horiz-adv-x="404" 
d="M351 142q0 -62 -48.5 -107t-121.5 -45q-82 0 -134 36l17 37q48 -32 114 -32q53 0 86 31.5t33 78.5q0 42 -24.5 68t-59.5 40.5l-70 30t-59.5 48t-24.5 82.5q0 58 42 98.5t112 40.5q71 0 120 -36l-16 -35q-46 32 -102 32q-51 0 -77.5 -28t-26.5 -71q0 -38 24.5 -62.5
t60 -38.5t71 -30.5t60 -50.5t24.5 -87zM315 729l-106 -129h-34l76 134q15 13 34 13q23 0 30 -18z" />
    <glyph glyph-name="Scircumflex" unicode="&#x15c;" horiz-adv-x="474" 
d="M414 172q0 -79 -57 -130.5t-149 -51.5q-98 0 -158 37l19 38q52 -32 139 -32q70 0 109.5 38.5t39.5 99.5q0 53 -31 88.5t-74.5 56.5l-87.5 43.5t-75 65t-31 105.5q0 77 53 122.5t139 45.5q79 0 137 -37l-18 -35q-52 32 -119 32q-64 0 -100 -33.5t-36 -93.5q0 -52 31 -86.5
t75 -55l88 -43t75 -66t31 -108.5zM354 764l-22 -19l-95 84l-95 -84l-22 19l89 97q12 13 28 13t28 -13z" />
    <glyph glyph-name="scircumflex" unicode="&#x15d;" horiz-adv-x="404" 
d="M351 142q0 -62 -48.5 -107t-121.5 -45q-82 0 -134 36l17 37q48 -32 114 -32q53 0 86 31.5t33 78.5q0 42 -24.5 68t-59.5 40.5l-70 30t-59.5 48t-24.5 82.5q0 58 42 98.5t112 40.5q71 0 120 -36l-16 -35q-46 32 -102 32q-51 0 -77.5 -28t-26.5 -71q0 -38 24.5 -62.5
t60 -38.5t71 -30.5t60 -50.5t24.5 -87zM325 615l-22 -19l-95 84l-95 -84l-22 19l89 97q12 13 28 13t28 -13z" />
    <glyph glyph-name="Scedilla" unicode="&#x15e;" horiz-adv-x="474" 
d="M414 172q0 -79 -57 -130.5t-149 -51.5q-98 0 -158 37l19 38q52 -32 139 -32q70 0 109.5 38.5t39.5 99.5q0 53 -31 88.5t-74.5 56.5l-87.5 43.5t-75 65t-31 105.5q0 77 53 122.5t139 45.5q79 0 137 -37l-18 -35q-52 32 -119 32q-64 0 -100 -33.5t-36 -93.5q0 -52 31 -86.5
t75 -55l88 -43t75 -66t31 -108.5zM312 -124q0 -35 -42 -53.5t-117 -18.5q-29 0 -69 4l14 28q27 -3 47 -3q50 0 83 11t33 32q0 35 -76 35q-27 0 -53 -2l13 27q33 3 58 3q109 0 109 -63z" />
    <glyph glyph-name="scedilla" unicode="&#x15f;" horiz-adv-x="404" 
d="M351 142q0 -62 -48.5 -107t-121.5 -45q-82 0 -134 36l17 37q48 -32 114 -32q53 0 86 31.5t33 78.5q0 42 -24.5 68t-59.5 40.5l-70 30t-59.5 48t-24.5 82.5q0 58 42 98.5t112 40.5q71 0 120 -36l-16 -35q-46 32 -102 32q-51 0 -77.5 -28t-26.5 -71q0 -38 24.5 -62.5
t60 -38.5t71 -30.5t60 -50.5t24.5 -87zM288 -124q0 -35 -42 -53.5t-117 -18.5q-29 0 -69 4l14 28q27 -3 47 -3q50 0 83 11t33 32q0 35 -76 35q-27 0 -53 -2l13 27q33 3 58 3q109 0 109 -63z" />
    <glyph glyph-name="Scaron" unicode="&#x160;" horiz-adv-x="474" 
d="M414 172q0 -79 -57 -130.5t-149 -51.5q-98 0 -158 37l19 38q52 -32 139 -32q70 0 109.5 38.5t39.5 99.5q0 53 -31 88.5t-74.5 56.5l-87.5 43.5t-75 65t-31 105.5q0 77 53 122.5t139 45.5q79 0 137 -37l-18 -35q-52 32 -119 32q-64 0 -100 -33.5t-36 -93.5q0 -52 31 -86.5
t75 -55l88 -43t75 -66t31 -108.5zM356 860l-89 -97q-12 -13 -28 -13t-28 13l-89 97l22 19l95 -84l95 84z" />
    <glyph glyph-name="scaron" unicode="&#x161;" horiz-adv-x="404" 
d="M351 142q0 -62 -48.5 -107t-121.5 -45q-82 0 -134 36l17 37q48 -32 114 -32q53 0 86 31.5t33 78.5q0 42 -24.5 68t-59.5 40.5l-70 30t-59.5 48t-24.5 82.5q0 58 42 98.5t112 40.5q71 0 120 -36l-16 -35q-46 32 -102 32q-51 0 -77.5 -28t-26.5 -71q0 -38 24.5 -62.5
t60 -38.5t71 -30.5t60 -50.5t24.5 -87zM321 711l-89 -97q-12 -13 -28 -13t-28 13l-89 97l22 19l95 -84l95 84z" />
    <glyph glyph-name="Tcommaaccent" unicode="&#x162;" horiz-adv-x="427" 
d="M397 649h-155v-649h-57v649h-155v39h367v-39zM304 -124q0 -35 -42 -53.5t-117 -18.5q-29 0 -69 4l14 28q27 -3 47 -3q50 0 83 11t33 32q0 35 -76 35q-27 0 -53 -2l13 27q33 3 58 3q109 0 109 -63z" />
    <glyph glyph-name="tcommaaccent" unicode="&#x163;" horiz-adv-x="299" 
d="M260 2q-15 -5 -40 -5q-50 0 -82 32t-32 91v386h-63v33h63v129l54 20v-149h100v-33h-100v-386q0 -85 75 -85q15 0 25 3v-36zM245 -124q0 -35 -42 -53.5t-117 -18.5q-29 0 -69 4l14 28q27 -3 47 -3q50 0 83 11t33 32q0 35 -76 35q-27 0 -53 -2l13 27q33 3 58 3
q109 0 109 -63z" />
    <glyph glyph-name="Tcaron" unicode="&#x164;" horiz-adv-x="427" 
d="M397 649h-155v-649h-57v649h-155v39h367v-39zM331 860l-89 -97q-12 -13 -28 -13t-28 13l-89 97l22 19l95 -84l95 84z" />
    <glyph glyph-name="tcaron" unicode="&#x165;" horiz-adv-x="299" 
d="M260 2q-15 -5 -40 -5q-50 0 -82 32t-32 91v386h-63v33h63v129l54 20v-149h100v-33h-100v-386q0 -85 75 -85q15 0 25 3v-36zM299 776l-23 -152h-33v152q9 15 29 15t27 -15z" />
    <glyph glyph-name="Tbar" unicode="&#x166;" horiz-adv-x="427" 
d="M397 649h-155v-238h131v-35h-131v-376h-57v376h-131v35h131v238h-155v39h367v-39z" />
    <glyph glyph-name="tbar" unicode="&#x167;" horiz-adv-x="299" 
d="M260 2q-15 -5 -40 -5q-50 0 -82 32t-32 91v198h-63v33h63v155h-63v33h63v129l54 20v-149h100v-33h-100v-155h100v-33h-100v-198q0 -85 75 -85q15 0 25 3v-36z" />
    <glyph glyph-name="Utilde" unicode="&#x168;" horiz-adv-x="570" 
d="M487 193q0 -86 -54.5 -145t-147.5 -59t-147.5 59t-54.5 145v495h57v-495q0 -72 43.5 -115t104.5 -43t104.5 43t43.5 115v495h51v-495zM404 826q-14 -69 -70 -69q-21 0 -50.5 20.5t-47.5 20.5q-31 0 -40 -39l-30 10q14 69 70 69q21 0 50.5 -20.5t47.5 -20.5q31 0 40 39z
" />
    <glyph glyph-name="utilde" unicode="&#x169;" horiz-adv-x="500" 
d="M423 30q-69 -40 -167 -40q-179 0 -179 169v380h54v-380q0 -131 125 -131q71 0 113 22v489h54v-509zM369 677q-14 -69 -70 -69q-21 0 -50.5 20.5t-47.5 20.5q-31 0 -40 -39l-30 10q14 69 70 69q21 0 50.5 -20.5t47.5 -20.5q31 0 40 39z" />
    <glyph glyph-name="Umacron" unicode="&#x16a;" horiz-adv-x="570" 
d="M487 193q0 -86 -54.5 -145t-147.5 -59t-147.5 59t-54.5 145v495h57v-495q0 -72 43.5 -115t104.5 -43t104.5 43t43.5 115v495h51v-495zM404 769h-232v39h232v-39z" />
    <glyph glyph-name="umacron" unicode="&#x16b;" horiz-adv-x="500" 
d="M423 30q-69 -40 -167 -40q-179 0 -179 169v380h54v-380q0 -131 125 -131q71 0 113 22v489h54v-509zM366 620h-232v39h232v-39z" />
    <glyph glyph-name="Ubreve" unicode="&#x16c;" horiz-adv-x="570" 
d="M487 193q0 -86 -54.5 -145t-147.5 -59t-147.5 59t-54.5 145v495h57v-495q0 -72 43.5 -115t104.5 -43t104.5 43t43.5 115v495h51v-495zM399 866q0 -55 -33 -85t-78 -30t-78 30t-33 85l31 5q4 -40 26.5 -60t53.5 -20t53.5 20t26.5 60z" />
    <glyph glyph-name="ubreve" unicode="&#x16d;" horiz-adv-x="500" 
d="M423 30q-69 -40 -167 -40q-179 0 -179 169v380h54v-380q0 -131 125 -131q71 0 113 22v489h54v-509zM361 717q0 -55 -33 -85t-78 -30t-78 30t-33 85l31 5q4 -40 26.5 -60t53.5 -20t53.5 20t26.5 60z" />
    <glyph glyph-name="Uring" unicode="&#x16e;" horiz-adv-x="570" 
d="M487 193q0 -86 -54.5 -145t-147.5 -59t-147.5 59t-54.5 145v495h57v-495q0 -72 43.5 -115t104.5 -43t104.5 43t43.5 115v495h51v-495zM363 824q0 -32 -22.5 -54.5t-54.5 -22.5t-54.5 22.5t-22.5 54.5t22.5 54.5t54.5 22.5t54.5 -22.5t22.5 -54.5zM333 824q0 20 -14 34.5
t-33 14.5t-33 -14.5t-14 -34.5t14 -34.5t33 -14.5t33 14.5t14 34.5z" />
    <glyph glyph-name="uring" unicode="&#x16f;" horiz-adv-x="500" 
d="M423 30q-69 -40 -167 -40q-179 0 -179 169v380h54v-380q0 -131 125 -131q71 0 113 22v489h54v-509zM327 677q0 -32 -22.5 -54.5t-54.5 -22.5t-54.5 22.5t-22.5 54.5t22.5 54.5t54.5 22.5t54.5 -22.5t22.5 -54.5zM297 677q0 20 -14 34.5t-33 14.5t-33 -14.5t-14 -34.5
t14 -34.5t33 -14.5t33 14.5t14 34.5z" />
    <glyph glyph-name="Uhungarumlaut" unicode="&#x170;" horiz-adv-x="570" 
d="M487 193q0 -86 -54.5 -145t-147.5 -59t-147.5 59t-54.5 145v495h57v-495q0 -72 43.5 -115t104.5 -43t104.5 43t43.5 115v495h51v-495zM451 874l-104 -125h-31l81 130q15 13 30 13q19 0 24 -18zM337 874l-104 -125h-31l81 130q15 13 30 13q19 0 24 -18z" />
    <glyph glyph-name="uhungarumlaut" unicode="&#x171;" horiz-adv-x="500" 
d="M423 30q-69 -40 -167 -40q-179 0 -179 169v380h54v-380q0 -131 125 -131q71 0 113 22v489h54v-509zM415 725l-104 -125h-31l81 130q15 13 30 13q19 0 24 -18zM301 725l-104 -125h-31l81 130q15 13 30 13q19 0 24 -18z" />
    <glyph glyph-name="Uogonek" unicode="&#x172;" horiz-adv-x="570" 
d="M487 688v-495q0 -74 -40 -129t-112 -70q-52 -37 -52 -80q0 -22 17 -37.5t44 -15.5q33 0 60 12l7 -31q-33 -15 -75 -15q-44 0 -74 19.5t-30 60.5q0 45 51 82q-93 1 -146.5 59.5t-53.5 144.5v495h57v-495q0 -72 43.5 -115t104.5 -43t104.5 43t43.5 115v495h51z" />
    <glyph glyph-name="uogonek" unicode="&#x173;" horiz-adv-x="500" 
d="M435 -158q-33 -15 -75 -15q-44 0 -74 19.5t-30 60.5q0 50 60 88q-33 -5 -60 -5q-179 0 -179 169v380h54v-380q0 -131 125 -131q71 0 113 22v489h54v-509q-116 -54 -116 -116q0 -22 17 -37.5t44 -15.5q33 0 60 12z" />
    <glyph glyph-name="Wcircumflex" unicode="&#x174;" horiz-adv-x="806" 
d="M764 688l-164 -688h-50l-131 539q-8 32 -14 82h-2q-6 -50 -14 -82l-131 -539h-50l-164 688h61l114 -545q10 -49 14 -85h2q8 49 16 85l133 545h48l129 -545q7 -30 15 -85h2q8 54 15 85l118 545h53zM525 764l-22 -19l-95 84l-95 -84l-22 19l89 97q12 13 28 13t28 -13z" />
    <glyph glyph-name="wcircumflex" unicode="&#x175;" horiz-adv-x="756" 
d="M716 539l-156 -539h-43l-125 432q-7 24 -12 59h-2q-5 -38 -12 -59l-125 -432h-43l-156 539h57l110 -425q8 -30 11 -60h2q6 35 13 60l123 425h49l121 -425q7 -26 12 -60h2q4 31 12 60l111 425h51zM500 615l-22 -19l-95 84l-95 -84l-22 19l89 97q12 13 28 13t28 -13z" />
    <glyph glyph-name="Ycircumflex" unicode="&#x176;" horiz-adv-x="486" 
d="M463 688l-191 -375v-313h-57v313l-190 375h63l157 -337h2l161 337h55zM364 764l-22 -19l-95 84l-95 -84l-22 19l89 97q12 13 28 13t28 -13z" />
    <glyph glyph-name="ycircumflex" unicode="&#x177;" horiz-adv-x="472" 
d="M438 539l-250 -754h-60l90 215l-182 539h58l131 -425q10 -30 13 -60h2q8 36 15 60l133 425h50zM358 615l-22 -19l-95 84l-95 -84l-22 19l89 97q12 13 28 13t28 -13z" />
    <glyph glyph-name="Ydieresis" unicode="&#x178;" horiz-adv-x="486" 
d="M463 688l-191 -375v-313h-57v313l-190 375h63l157 -337h2l161 337h55zM207 799q0 -14 -10 -24t-24 -10t-24 10t-10 24t10 24t24 10t24 -10t10 -24zM355 799q0 -14 -10 -24t-24 -10t-24 10t-10 24t10 24t24 10t24 -10t10 -24z" />
    <glyph glyph-name="Zacute" unicode="&#x179;" horiz-adv-x="428" 
d="M395 0h-367l284 649h-272v39h346l-283 -649h292v-39zM319 878l-106 -129h-34l76 134q15 13 34 13q23 0 30 -18z" />
    <glyph glyph-name="zacute" unicode="&#x17a;" horiz-adv-x="406" 
d="M363 0h-330l248 506h-232v33h304l-247 -506h257v-33zM307 729l-106 -129h-34l76 134q15 13 34 13q23 0 30 -18z" />
    <glyph glyph-name="Zdotaccent" unicode="&#x17b;" horiz-adv-x="428" 
d="M395 0h-367l284 649h-272v39h346l-283 -649h292v-39zM252 802q0 -15 -11 -26t-26 -11t-26 11t-11 26t11 26t26 11t26 -11t11 -26z" />
    <glyph glyph-name="zdotaccent" unicode="&#x17c;" horiz-adv-x="406" 
d="M363 0h-330l248 506h-232v33h304l-247 -506h257v-33zM237 653q0 -15 -11 -26t-26 -11t-26 11t-11 26t11 26t26 11t26 -11t11 -26z" />
    <glyph glyph-name="Zcaron" unicode="&#x17d;" horiz-adv-x="428" 
d="M395 0h-367l284 649h-272v39h346l-283 -649h292v-39zM327 860l-89 -97q-12 -13 -28 -13t-28 13l-89 97l22 19l95 -84l95 84z" />
    <glyph glyph-name="zcaron" unicode="&#x17e;" horiz-adv-x="406" 
d="M363 0h-330l248 506h-232v33h304l-247 -506h257v-33zM315 711l-89 -97q-12 -13 -28 -13t-28 13l-89 97l22 19l95 -84l95 84z" />
    <glyph glyph-name="longs" unicode="&#x17f;" horiz-adv-x="300" 
d="M292 780l-9 -37q-20 6 -43 6q-102 0 -102 -128v-836h-52v834q0 77 39.5 123t109.5 46q33 0 57 -8z" />
    <glyph glyph-name="uni018F" unicode="&#x18f;" horiz-adv-x="594" 
d="M535 343q0 -165 -61 -259t-181 -94q-233 0 -234 343l418 68q-11 115 -64 185.5t-157 70.5q-89 0 -155 -42l-18 36q73 47 174 47q133 0 205.5 -91t72.5 -264zM479 363l-362 -60q0 -129 43.5 -199.5t132.5 -70.5q186 0 186 330z" />
    <glyph glyph-name="florin" unicode="&#x192;" 
d="M468 681l-9 -37q-22 10 -54 10q-99 0 -122 -175l-10 -78h122v-38h-127l-47 -363q-29 -220 -178 -220q-37 0 -63 12l9 39q22 -10 54 -10q100 0 123 179l47 363h-107v38h112l10 78q27 214 177 214q37 0 63 -12z" />
    <glyph glyph-name="uni01B5" unicode="&#x1b5;" horiz-adv-x="428" 
d="M395 0h-367l149 340h-121v35h136l120 274h-272v39h346l-136 -313h122v-35h-138l-131 -301h292v-39z" />
    <glyph glyph-name="uni01B6" unicode="&#x1b6;" horiz-adv-x="406" 
d="M363 0h-330l129 263h-106v33h122l103 210h-232v33h304l-119 -243h108v-33h-124l-112 -230h257v-33z" />
    <glyph glyph-name="uni01C4" unicode="&#x1c4;" horiz-adv-x="1011" 
d="M524 344q0 -166 -73 -260t-203 -94q-93 0 -165 36v636q72 36 165 36q130 0 203 -94t73 -260zM465 345q0 149 -55.5 231.5t-163.5 82.5q-67 0 -106 -17v-594q39 -17 106 -17q108 0 163.5 82.5t55.5 231.5zM978 0h-367l284 649h-272v39h346l-283 -649h292v-39zM910 860
l-89 -97q-12 -13 -28 -13t-28 13l-89 97l22 19l95 -84l95 84z" />
    <glyph glyph-name="uni01C5" unicode="&#x1c5;" horiz-adv-x="989" 
d="M524 344q0 -166 -73 -260t-203 -94q-93 0 -165 36v636q72 36 165 36q130 0 203 -94t73 -260zM465 345q0 149 -55.5 231.5t-163.5 82.5q-67 0 -106 -17v-594q39 -17 106 -17q108 0 163.5 82.5t55.5 231.5zM946 0h-330l248 506h-232v33h304l-247 -506h257v-33zM898 711
l-89 -97q-12 -13 -28 -13t-28 13l-89 97l22 19l95 -84l95 84z" />
    <glyph glyph-name="uni01C6" unicode="&#x1c6;" horiz-adv-x="911" 
d="M428 27q-54 -37 -150 -37q-109 0 -166 74t-57 194q0 124 60 205.5t173 81.5q41 0 87 -13v253h53v-758zM375 46v453q-39 11 -79 11q-51 0 -88.5 -21t-58.5 -57t-30.5 -77.5t-9.5 -89.5q0 -107 42.5 -172t131.5 -65q61 0 92 18zM868 0h-330l248 506h-232v33h304l-247 -506
h257v-33zM820 711l-89 -97q-12 -13 -28 -13t-28 13l-89 97l22 19l95 -84l95 84z" />
    <glyph glyph-name="uni01C7" unicode="&#x1c7;" horiz-adv-x="631" 
d="M367 0h-280v688h57v-649h223v-39zM544 688v-621q0 -107 -50.5 -183t-140.5 -104v42q62 27 98 90t36 155v621h57z" />
    <glyph glyph-name="uni01C8" unicode="&#x1c8;" horiz-adv-x="627" 
d="M367 0h-280v688h57v-649h223v-39zM553 690q0 -15 -11 -26t-26 -11t-26 11t-11 26t11 26t26 11t26 -11t11 -26zM543 68q0 -113 -36 -183t-122 -106v37q58 39 81 94.5t23 151.5v477h54v-471z" />
    <glyph glyph-name="uni01C9" unicode="&#x1c9;" horiz-adv-x="451" 
d="M139 0h-54v785h54v-785zM377 690q0 -15 -11 -26t-26 -11t-26 11t-11 26t11 26t26 11t26 -11t11 -26zM367 68q0 -113 -36 -183t-122 -106v37q58 39 81 94.5t23 151.5v477h54v-471z" />
    <glyph glyph-name="uni01CA" unicode="&#x1ca;" horiz-adv-x="875" 
d="M561 0h-58l-335 576q-21 35 -38 74h-2q3 -54 3 -86v-564h-48v688h73l321 -555q21 -35 37 -73h2q-3 42 -3 83v545h48v-688zM788 688v-621q0 -107 -50.5 -183t-140.5 -104v42q62 27 98 90t36 155v621h57z" />
    <glyph glyph-name="uni01CB" unicode="&#x1cb;" horiz-adv-x="871" 
d="M561 0h-58l-335 576q-21 35 -38 74h-2q3 -54 3 -86v-564h-48v688h73l321 -555q21 -35 37 -73h2q-3 42 -3 83v545h48v-688zM797 690q0 -15 -11 -26t-26 -11t-26 11t-11 26t11 26t26 11t26 -11t11 -26zM787 68q0 -113 -36 -183t-122 -106v37q58 39 81 94.5t23 151.5v477h54
v-471z" />
    <glyph glyph-name="uni01CC" unicode="&#x1cc;" horiz-adv-x="738" 
d="M434 0h-54v376q0 71 -32 104t-106 33q-63 0 -111 -21v-492h-54v512q76 37 165 37q192 0 192 -173v-376zM664 690q0 -15 -11 -26t-26 -11t-26 11t-11 26t11 26t26 11t26 -11t11 -26zM654 68q0 -113 -36 -183t-122 -106v37q58 39 81 94.5t23 151.5v477h54v-471z" />
    <glyph glyph-name="uni01F1" unicode="&#x1f1;" horiz-adv-x="1011" 
d="M524 344q0 -166 -73 -260t-203 -94q-93 0 -165 36v636q72 36 165 36q130 0 203 -94t73 -260zM465 345q0 149 -55.5 231.5t-163.5 82.5q-67 0 -106 -17v-594q39 -17 106 -17q108 0 163.5 82.5t55.5 231.5zM978 0h-367l284 649h-272v39h346l-283 -649h292v-39z" />
    <glyph glyph-name="uni01F2" unicode="&#x1f2;" horiz-adv-x="989" 
d="M524 344q0 -166 -73 -260t-203 -94q-93 0 -165 36v636q72 36 165 36q130 0 203 -94t73 -260zM465 345q0 149 -55.5 231.5t-163.5 82.5q-67 0 -106 -17v-594q39 -17 106 -17q108 0 163.5 82.5t55.5 231.5zM946 0h-330l248 506h-232v33h304l-247 -506h257v-33z" />
    <glyph glyph-name="uni01F3" unicode="&#x1f3;" horiz-adv-x="911" 
d="M428 27q-54 -37 -150 -37q-109 0 -166 74t-57 194q0 124 60 205.5t173 81.5q41 0 87 -13v253h53v-758zM375 46v453q-39 11 -79 11q-51 0 -88.5 -21t-58.5 -57t-30.5 -77.5t-9.5 -89.5q0 -107 42.5 -172t131.5 -65q61 0 92 18zM868 0h-330l248 506h-232v33h304l-247 -506
h257v-33z" />
    <glyph glyph-name="Aringacute" unicode="&#x1fa;" horiz-adv-x="572" 
d="M333 824q0 20 -14 34.5t-33 14.5t-33 -14.5t-14 -34.5t14 -34.5t33 -14.5t33 14.5t14 34.5zM445 897l-93 -115q-29 -35 -66 -35q-32 0 -54.5 22.5t-22.5 54.5t22.5 54.5t54.5 22.5q23 0 42 -13t27 -33l26 47q15 13 34 13q22 0 30 -18zM546 0h-60l-76 235h-253l-77 -235
h-54l237 688h46zM397 272l-90 278q-9 29 -22 89h-2q-16 -66 -23 -89l-91 -278h228z" />
    <glyph glyph-name="aringacute" unicode="&#x1fb;" horiz-adv-x="478" 
d="M285 677q0 20 -14 34.5t-33 14.5t-33 -14.5t-14 -34.5t14 -34.5t33 -14.5t33 14.5t14 34.5zM397 750l-93 -115q-29 -35 -66 -35q-32 0 -54.5 22.5t-22.5 54.5t22.5 54.5t54.5 22.5q23 0 42 -13t27 -33l26 47q15 13 34 13q23 0 30 -18zM401 27q-71 -37 -163 -37
q-89 0 -139 41.5t-50 118.5q0 169 301 199v37q0 124 -126 124q-68 0 -130 -35l-15 35q70 39 146 39q84 0 130 -41.5t46 -122.5v-358zM350 46v270q-124 -15 -186 -52t-62 -114q0 -61 36.5 -93.5t106.5 -32.5q63 0 105 22z" />
    <glyph glyph-name="AEacute" unicode="&#x1fc;" horiz-adv-x="742" 
d="M718 0h-243l-57 235h-255l-96 -235h-55l290 688h352v-39h-288l69 -272h218v-39h-208l76 -299h197v-39zM409 272l-68 279q-6 24 -18 88h-2q-26 -78 -30 -88l-113 -279h231zM534 878l-106 -129h-34l76 134q15 13 34 13q22 0 30 -18z" />
    <glyph glyph-name="aeacute" unicode="&#x1fd;" horiz-adv-x="790" 
d="M735 297l-346 -53q5 -100 51 -156.5t130 -56.5q76 0 129 33l17 -37q-59 -37 -147 -37q-126 0 -185 109q-46 -109 -160 -109q-80 0 -127.5 43.5t-47.5 116.5q0 169 301 199v37q0 124 -131 124q-64 0 -125 -35l-15 35q68 39 146 39q124 0 156 -107q25 55 68.5 81t92.5 26
q92 0 142.5 -62t50.5 -190zM682 324q-3 188 -140 188q-68 0 -111 -58t-43 -175zM350 153v163q-124 -15 -186 -52t-62 -114q0 -57 32 -91.5t93 -34.5q49 0 86 37t37 92zM501 729l-106 -129h-34l76 134q15 13 34 13q23 0 30 -18z" />
    <glyph glyph-name="Oslashacute" unicode="&#x1fe;" horiz-adv-x="596" 
d="M537 344q0 -157 -59.5 -255.5t-179.5 -98.5q-94 0 -155 67l-56 -93l-26 16l62 103q-64 97 -64 261q0 157 59.5 255.5t179.5 98.5q94 0 155 -67l56 93l26 -16l-62 -103q64 -97 64 -261zM429 590q-47 72 -131 72q-67 0 -110 -47t-58.5 -114.5t-15.5 -154.5q0 -134 38 -216z
M482 346q0 130 -37 213l-276 -459q47 -70 129 -70q67 0 110 47t58.5 114.5t15.5 154.5zM408 878l-106 -129h-34l76 134q15 13 34 13q22 0 30 -18z" />
    <glyph glyph-name="oslashacute" unicode="&#x1ff;" horiz-adv-x="506" 
d="M451 270q0 -127 -49.5 -203.5t-148.5 -76.5q-79 0 -127 50l-46 -74l-24 14l51 82q-52 72 -52 208q0 127 49.5 203t148.5 76q79 0 127 -50l46 74l24 -14l-51 -82q52 -72 52 -207zM356 461q-37 55 -103 55q-53 0 -87 -35.5t-47 -87.5t-13 -121q0 -103 29 -165zM400 272
q0 100 -28 162l-221 -355q37 -53 102 -53q77 0 112 69t35 177zM361 729l-106 -129h-34l76 134q15 13 34 13q23 0 30 -18z" />
    <glyph glyph-name="Scommaaccent" unicode="&#x218;" horiz-adv-x="474" 
d="M414 172q0 -79 -57 -130.5t-149 -51.5q-98 0 -158 37l19 38q52 -32 139 -32q70 0 109.5 38.5t39.5 99.5q0 53 -31 88.5t-74.5 56.5l-87.5 43.5t-75 65t-31 105.5q0 77 53 122.5t139 45.5q79 0 137 -37l-18 -35q-52 32 -119 32q-64 0 -100 -33.5t-36 -93.5q0 -52 31 -86.5
t75 -55l88 -43t75 -66t31 -108.5zM251 -79l-94 -136h-34l65 141q15 13 34 13q22 0 29 -18z" />
    <glyph glyph-name="scommaaccent" unicode="&#x219;" horiz-adv-x="404" 
d="M351 142q0 -62 -48.5 -107t-121.5 -45q-82 0 -134 36l17 37q48 -32 114 -32q53 0 86 31.5t33 78.5q0 42 -24.5 68t-59.5 40.5l-70 30t-59.5 48t-24.5 82.5q0 58 42 98.5t112 40.5q71 0 120 -36l-16 -35q-46 32 -102 32q-51 0 -77.5 -28t-26.5 -71q0 -38 24.5 -62.5
t60 -38.5t71 -30.5t60 -50.5t24.5 -87zM233 -79l-94 -136h-34l65 141q15 13 34 13q22 0 29 -18z" />
    <glyph glyph-name="uni021A" unicode="&#x21a;" horiz-adv-x="427" 
d="M397 649h-155v-649h-57v649h-155v39h367v-39zM242 -79l-94 -136h-34l65 141q15 13 34 13q22 0 29 -18z" />
    <glyph glyph-name="uni021B" unicode="&#x21b;" horiz-adv-x="299" 
d="M260 2q-15 -5 -40 -5q-50 0 -82 32t-32 91v386h-63v33h63v129l54 20v-149h100v-33h-100v-386q0 -85 75 -85q15 0 25 3v-36zM188 -79l-94 -136h-34l65 141q15 13 34 13q22 0 29 -18z" />
    <glyph glyph-name="uni0237" unicode="&#x237;" horiz-adv-x="227" 
d="M143 539v-471q0 -113 -36 -183t-122 -106v37q58 39 81 94.5t23 151.5v477h54z" />
    <glyph glyph-name="uni0259" unicode="&#x259;" horiz-adv-x="507" 
d="M452 268q0 -129 -52 -203.5t-149 -74.5q-196 0 -196 272l345 53q-8 86 -52 140.5t-128 54.5q-71 0 -129 -36l-17 35q64 40 147 40q111 0 171 -73t60 -208zM402 280l-294 -45q2 -95 38 -150.5t105 -55.5q75 0 113 66t38 185z" />
    <glyph glyph-name="uni02BB" unicode="&#x2bb;" horiz-adv-x="234" 
d="M186 785l-74 -207q-12 -17 -36 -17q-21 0 -26 17l102 207h34z" />
    <glyph glyph-name="afii57929" unicode="&#x2bc;" horiz-adv-x="234" 
d="M184 774l-102 -207h-34l74 207q12 17 36 17q21 0 26 -17z" />
    <glyph glyph-name="circumflex" unicode="&#x2c6;" horiz-adv-x="222" 
d="M228 615l-22 -19l-95 84l-95 -84l-22 19l89 97q12 13 28 13t28 -13z" />
    <glyph glyph-name="caron" unicode="&#x2c7;" horiz-adv-x="222" 
d="M228 711l-89 -97q-12 -13 -28 -13t-28 13l-89 97l22 19l95 -84l95 84z" />
    <glyph glyph-name="uni02C9" unicode="&#x2c9;" horiz-adv-x="222" 
d="M227 620h-232v39h232v-39z" />
    <glyph glyph-name="breve" unicode="&#x2d8;" horiz-adv-x="222" 
d="M222 717q0 -55 -33 -85t-78 -30t-78 30t-33 85l31 5q4 -40 26.5 -60t53.5 -20t53.5 20t26.5 60z" />
    <glyph glyph-name="dotaccent" unicode="&#x2d9;" horiz-adv-x="222" 
d="M148 653q0 -15 -11 -26t-26 -11t-26 11t-11 26t11 26t26 11t26 -11t11 -26z" />
    <glyph glyph-name="ring" unicode="&#x2da;" horiz-adv-x="222" 
d="M188 677q0 -32 -22.5 -54.5t-54.5 -22.5t-54.5 22.5t-22.5 54.5t22.5 54.5t54.5 22.5t54.5 -22.5t22.5 -54.5zM158 677q0 20 -14 34.5t-33 14.5t-33 -14.5t-14 -34.5t14 -34.5t33 -14.5t33 14.5t14 34.5z" />
    <glyph glyph-name="ogonek" unicode="&#x2db;" horiz-adv-x="222" 
d="M210 -158q-33 -15 -75 -15q-44 0 -74 19.5t-30 60.5q0 61 86 103h43q-78 -42 -78 -96q0 -22 17 -37.5t44 -15.5q33 0 60 12z" />
    <glyph glyph-name="tilde" unicode="&#x2dc;" horiz-adv-x="222" 
d="M230 677q-14 -69 -70 -69q-21 0 -50.5 20.5t-47.5 20.5q-31 0 -40 -39l-30 10q14 69 70 69q21 0 50.5 -20.5t47.5 -20.5q31 0 40 39z" />
    <glyph glyph-name="hungarumlaut" unicode="&#x2dd;" horiz-adv-x="222" 
d="M269 725l-104 -125h-31l81 130q15 13 30 13q19 0 24 -18zM155 725l-104 -125h-31l81 130q15 13 30 13q19 0 24 -18z" />
    <glyph glyph-name="uni037E" unicode="&#x37e;" horiz-adv-x="246" 
d="M170 337q0 -17 -12.5 -29.5t-29.5 -12.5t-29.5 12.5t-12.5 29.5t12.5 29.5t29.5 12.5t29.5 -12.5t12.5 -29.5zM172 60l-106 -205h-34l73 205q13 19 38 19q23 0 29 -19z" />
    <glyph glyph-name="tonos" unicode="&#x384;" horiz-adv-x="222" 
d="M196 729l-74 -129h-34l46 134q11 14 32 14q23 0 30 -19z" />
    <glyph glyph-name="dieresistonos" unicode="&#x385;" horiz-adv-x="240" 
d="M245 650q0 -14 -10 -24t-24 -10t-24 10t-10 24t10 24t24 10t24 -10t10 -24zM150 741l-27 -141h-30v143q10 16 28 16q20 0 29 -18zM51 650q0 -14 -10 -24t-24 -10t-24 10t-10 24t10 24t24 10t24 -10t10 -24z" />
    <glyph glyph-name="Alphatonos" unicode="&#x386;" horiz-adv-x="572" 
d="M546 0h-60l-76 235h-253l-77 -235h-54l237 688h46zM397 272l-90 278q-9 29 -22 89h-2q-16 -66 -23 -89l-91 -278h228zM152 679l-30 -175h-32v176q10 16 32 16q21 0 30 -17z" />
    <glyph glyph-name="anoteleia" unicode="&#x387;" horiz-adv-x="276" 
d="M182 334q0 -18 -13 -31t-31 -13t-31 13t-13 31t13 31t31 13t31 -13t13 -31z" />
    <glyph glyph-name="Epsilontonos" unicode="&#x388;" horiz-adv-x="494" 
d="M447 0h-303v688h303v-39h-246v-272h223v-39h-223v-299h246v-39zM62 679l-30 -175h-32v176q10 16 32 16q21 0 30 -17z" />
    <glyph glyph-name="Etatonos" unicode="&#x389;" horiz-adv-x="642" 
d="M559 0h-57v338h-301v-338h-57v688h57v-311h301v311h57v-688zM62 679l-30 -175h-32v176q10 16 32 16q21 0 30 -17z" />
    <glyph glyph-name="Iotatonos" unicode="&#x38a;" horiz-adv-x="288" 
d="M201 0h-57v688h57v-688zM62 679l-30 -175h-32v176q10 16 32 16q21 0 30 -17z" />
    <glyph glyph-name="Omicrontonos" unicode="&#x38c;" horiz-adv-x="630" 
d="M571 344q0 -157 -59.5 -255.5t-179.5 -98.5t-179.5 98.5t-59.5 255.5t59.5 255.5t179.5 98.5t179.5 -98.5t59.5 -255.5zM513 345q0 87 -15.5 154t-57.5 113t-108 46t-108 -46t-57.5 -113t-15.5 -154t15.5 -154t57.5 -113t108 -46t108 46t57.5 113t15.5 154zM62 679
l-30 -175h-32v176q10 16 32 16q21 0 30 -17z" />
    <glyph glyph-name="Upsilontonos" unicode="&#x38e;" horiz-adv-x="608" 
d="M62 679l-30 -175h-32v176q10 16 32 16q21 0 30 -17zM584 645q-105 -76 -153 -181.5t-48 -261.5v-202h-57v202q0 155 -48.5 260.5t-153.5 181.5l23 53q93 -67 147.5 -157t60.5 -190h2q7 101 61 190.5t146 156.5z" />
    <glyph glyph-name="Omegatonos" unicode="&#x38f;" horiz-adv-x="642" 
d="M584 0h-203v38q144 153 144 348q0 109 -48 190.5t-137 81.5t-137 -81.5t-48 -190.5q0 -195 144 -348v-38h-203v39h152q-151 158 -151 347q0 130 64.5 221t178.5 91t178.5 -91t64.5 -221q0 -189 -151 -347h152v-39zM62 679l-30 -175h-32v176q10 16 32 16q21 0 30 -17z" />
    <glyph glyph-name="iotadieresistonos" unicode="&#x390;" horiz-adv-x="222" 
d="M138 0h-54v539h54v-539zM242 650q0 -14 -10 -24t-24 -10t-24 10t-10 24t10 24t24 10t24 -10t10 -24zM147 741l-27 -141h-30v143q10 16 28 16q20 0 29 -18zM48 650q0 -14 -10 -24t-24 -10t-24 10t-10 24t10 24t24 10t24 -10t10 -24z" />
    <glyph glyph-name="Alpha" unicode="&#x391;" horiz-adv-x="572" 
d="M546 0h-60l-76 235h-253l-77 -235h-54l237 688h46zM397 272l-90 278q-9 29 -22 89h-2q-16 -66 -23 -89l-91 -278h228z" />
    <glyph glyph-name="Beta" unicode="&#x392;" horiz-adv-x="543" 
d="M490 184q0 -99 -65.5 -146.5t-169.5 -47.5q-105 0 -172 36v636q72 36 163 36q100 0 157.5 -46t57.5 -121q0 -129 -138 -164v-2q68 -10 117.5 -60.5t49.5 -120.5zM406 526q0 135 -163 135q-61 0 -107 -18v-264h60q109 0 159.5 36.5t50.5 110.5zM432 179q0 89 -58 129.5
t-178 40.5h-60v-301q44 -19 114 -19q81 0 131.5 36t50.5 114z" />
    <glyph glyph-name="Gamma" unicode="&#x393;" horiz-adv-x="425" 
d="M395 649h-250v-649h-57v688h307v-39z" />
    <glyph glyph-name="uni0394" unicode="&#x394;" horiz-adv-x="572" 
d="M546 0h-520l237 688h46zM473 39l-166 511q-10 33 -22 88h-2q-10 -48 -23 -88l-167 -511h380z" />
    <glyph glyph-name="Epsilon" unicode="&#x395;" horiz-adv-x="433" 
d="M386 0h-303v688h303v-39h-246v-272h223v-39h-223v-299h246v-39z" />
    <glyph glyph-name="Zeta" unicode="&#x396;" horiz-adv-x="428" 
d="M395 0h-367l284 649h-272v39h346l-283 -649h292v-39z" />
    <glyph glyph-name="Eta" unicode="&#x397;" horiz-adv-x="581" 
d="M498 0h-57v338h-301v-338h-57v688h57v-311h301v311h57v-688z" />
    <glyph glyph-name="Theta" unicode="&#x398;" horiz-adv-x="606" 
d="M547 344q0 -156 -62 -255t-182 -99t-182 99t-62 255t62 255t182 99t182 -99t62 -255zM489 345q0 135 -45 224t-141 89t-141 -89t-45 -224t45 -224t141 -89t141 89t45 224zM432 338h-258v39h258v-39z" />
    <glyph glyph-name="Iota" unicode="&#x399;" horiz-adv-x="231" 
d="M144 0h-57v688h57v-688z" />
    <glyph glyph-name="Kappa" unicode="&#x39a;" 
d="M488 0h-73l-271 363h-2v-363h-55v688h55v-323h2l266 323h68l-281 -323z" />
    <glyph glyph-name="Lambda" unicode="&#x39b;" horiz-adv-x="572" 
d="M546 0h-64l-176 550q-13 41 -20 88h-2q-9 -48 -21 -88l-177 -550h-60l237 688h46z" />
    <glyph glyph-name="Mu" unicode="&#x39c;" horiz-adv-x="774" 
d="M714 0h-56l-62 575q-4 34 -6 79h-2q-12 -57 -18 -79l-162 -575h-48l-161 575q-9 32 -18 79h-2q-2 -40 -6 -79l-63 -575h-50l86 688h67l155 -552q10 -37 18 -84h2q8 45 18 84l155 552h67z" />
    <glyph glyph-name="Nu" unicode="&#x39d;" horiz-adv-x="644" 
d="M561 0h-58l-335 576q-21 35 -38 74h-2q3 -54 3 -86v-564h-48v688h73l321 -555q21 -35 37 -73h2q-3 42 -3 83v545h48v-688z" />
    <glyph glyph-name="Xi" unicode="&#x39e;" horiz-adv-x="440" 
d="M389 649h-338v39h338v-39zM370 338h-300v39h300v-39zM393 0h-346v39h346v-39z" />
    <glyph glyph-name="Omicron" unicode="&#x39f;" horiz-adv-x="596" 
d="M537 344q0 -157 -59.5 -255.5t-179.5 -98.5t-179.5 98.5t-59.5 255.5t59.5 255.5t179.5 98.5t179.5 -98.5t59.5 -255.5zM479 345q0 87 -15.5 154t-57.5 113t-108 46t-108 -46t-57.5 -113t-15.5 -154t15.5 -154t57.5 -113t108 -46t108 46t57.5 113t15.5 154z" />
    <glyph glyph-name="Pi" unicode="&#x3a0;" horiz-adv-x="581" 
d="M498 0h-57v649h-301v-649h-57v688h415v-688z" />
    <glyph glyph-name="Rho" unicode="&#x3a1;" horiz-adv-x="501" 
d="M456 496q0 -89 -59.5 -146t-178.5 -57q-37 0 -79 7v-300h-56v662q70 36 153 36q108 0 164 -54t56 -148zM400 498q0 163 -164 163q-53 0 -97 -17v-308q35 -6 79 -6q96 0 139 46.5t43 121.5z" />
    <glyph glyph-name="Sigma" unicode="&#x3a3;" horiz-adv-x="436" 
d="M395 0h-370l232 363l-219 325h353v-39h-265l192 -285l-207 -325h284v-39z" />
    <glyph glyph-name="Tau" unicode="&#x3a4;" horiz-adv-x="427" 
d="M397 649h-155v-649h-57v649h-155v39h367v-39z" />
    <glyph glyph-name="Upsilon" unicode="&#x3a5;" horiz-adv-x="508" 
d="M484 645q-105 -76 -153 -181.5t-48 -261.5v-202h-57v202q0 155 -48.5 260.5t-153.5 181.5l23 53q93 -67 147.5 -157t60.5 -190h2q7 101 61 190.5t146 156.5z" />
    <glyph glyph-name="Phi" unicode="&#x3a6;" horiz-adv-x="678" 
d="M623 345q0 -123 -70 -211t-188 -95v-66h-52v66q-118 7 -188 95t-70 211t70 211.5t188 94.5v64h52v-64q118 -6 188 -94.5t70 -211.5zM566 346q0 106 -53.5 185t-147.5 85v-540q94 7 147.5 85.5t53.5 184.5zM313 76v540q-94 -6 -147.5 -85t-53.5 -185t53.5 -184.5
t147.5 -85.5z" />
    <glyph glyph-name="Chi" unicode="&#x3a7;" horiz-adv-x="508" 
d="M476 0h-64l-157 319h-2l-163 -319h-58l194 358l-174 330h61l140 -285h2l146 285h55l-174 -324z" />
    <glyph glyph-name="Psi" unicode="&#x3a8;" horiz-adv-x="660" 
d="M595 476q0 -241 -237 -257v-219h-56v219q-237 16 -237 257v212h56v-212q0 -205 181 -218v430h56v-430q181 13 181 218v212h56v-212z" />
    <glyph glyph-name="uni03A9" unicode="&#x3a9;" horiz-adv-x="604" 
d="M546 0h-203v38q144 153 144 348q0 109 -48 190.5t-137 81.5t-137 -81.5t-48 -190.5q0 -195 144 -348v-38h-203v39h152q-151 158 -151 347q0 130 64.5 221t178.5 91t178.5 -91t64.5 -221q0 -189 -151 -347h152v-39z" />
    <glyph glyph-name="Iotadieresis" unicode="&#x3aa;" horiz-adv-x="231" 
d="M144 0h-57v688h57v-688zM224 799q0 -14 -10 -24t-24 -10t-24 10t-10 24t10 24t24 10t24 -10t10 -24zM76 799q0 -14 -10 -24t-24 -10t-24 10t-10 24t10 24t24 10t24 -10t10 -24z" />
    <glyph glyph-name="Upsilondieresis" unicode="&#x3ab;" horiz-adv-x="504" 
d="M484 645q-105 -76 -153 -181.5t-48 -261.5v-202h-57v202q0 155 -48.5 260.5t-153.5 181.5l23 53q93 -67 147.5 -157t60.5 -190h2q7 101 61 190.5t146 156.5zM363 779q0 -14 -10 -24t-24 -10t-24 10t-10 24t10 24t24 10t24 -10t10 -24zM215 779q0 -14 -10 -24t-24 -10
t-24 10t-10 24t10 24t24 10t24 -10t10 -24z" />
    <glyph glyph-name="alphatonos" unicode="&#x3ac;" horiz-adv-x="575" 
d="M530 0h-56l-49 203h-2q-11 -38 -21.5 -66t-27 -57.5t-34.5 -48t-44 -30t-57 -11.5q-88 0 -136 79.5t-48 200.5t48 200t136 79q73 0 113.5 -54.5t70.5 -155.5h2l49 200h55l-82 -268zM403 270q-31 112 -69.5 177.5t-94.5 65.5q-62 0 -96 -71.5t-34 -169.5t34 -170.5
t96 -72.5q56 0 93.5 63.5t70.5 177.5zM388 729l-74 -129h-34l46 134q11 14 32 14q23 0 30 -19z" />
    <glyph glyph-name="epsilontonos" unicode="&#x3ad;" horiz-adv-x="439" 
d="M402 26q-66 -36 -154 -36q-92 0 -144.5 44.5t-52.5 105.5q0 47 32.5 86t94.5 56v2q-52 18 -79.5 54t-27.5 78q0 55 46.5 94t131.5 39q81 0 146 -36l-17 -34q-57 31 -129 31q-59 0 -91 -28.5t-32 -68.5q0 -46 40.5 -80.5t109.5 -34.5h59v-37h-67q-77 0 -119 -34.5
t-42 -82.5q0 -46 38 -79.5t103 -33.5q80 0 137 31zM326 729l-74 -129h-34l46 134q11 14 32 14q23 0 30 -19z" />
    <glyph glyph-name="etatonos" unicode="&#x3ae;" horiz-adv-x="511" 
d="M434 -215h-54v591q0 71 -32 104t-106 33q-63 0 -111 -21v-492h-54v512q76 37 165 37q192 0 192 -173v-591zM338 729l-74 -129h-34l46 134q11 14 32 14q23 0 30 -19z" />
    <glyph glyph-name="iotatonos" unicode="&#x3af;" horiz-adv-x="222" 
d="M138 0h-54v539h54v-539zM197 729l-74 -129h-34l46 134q11 14 32 14q23 0 30 -19z" />
    <glyph glyph-name="upsilondieresistonos" unicode="&#x3b0;" horiz-adv-x="500" 
d="M423 160q0 -81 -51.5 -125.5t-121.5 -44.5t-121.5 44.5t-51.5 125.5v379h54v-382q0 -60 35.5 -93.5t83.5 -33.5t83.5 33.5t35.5 93.5v382h54v-379zM381 650q0 -14 -10 -24t-24 -10t-24 10t-10 24t10 24t24 10t24 -10t10 -24zM286 741l-27 -141h-30v143q10 16 28 16
q20 0 29 -18zM187 650q0 -14 -10 -24t-24 -10t-24 10t-10 24t10 24t24 10t24 -10t10 -24z" />
    <glyph glyph-name="alpha" unicode="&#x3b1;" horiz-adv-x="575" 
d="M530 0h-56l-49 203h-2q-11 -38 -21.5 -66t-27 -57.5t-34.5 -48t-44 -30t-57 -11.5q-88 0 -136 79.5t-48 200.5t48 200t136 79q73 0 113.5 -54.5t70.5 -155.5h2l49 200h55l-82 -268zM403 270q-31 112 -69.5 177.5t-94.5 65.5q-62 0 -96 -71.5t-34 -169.5t34 -170.5
t96 -72.5q56 0 93.5 63.5t70.5 177.5z" />
    <glyph glyph-name="beta" unicode="&#x3b2;" horiz-adv-x="516" 
d="M465 222q0 -93 -61 -162.5t-164 -69.5q-54 0 -107 25v-230h-52v765q0 110 41.5 177t131.5 67q76 0 119.5 -52t43.5 -128q0 -60 -31 -109.5t-85 -68.5v-2q80 -19 122 -78.5t42 -133.5zM411 221q0 77 -46.5 132.5t-130.5 55.5h-29v34q160 16 160 171q0 60 -28.5 102
t-82.5 42q-121 0 -121 -208v-494q49 -28 103 -28q82 0 128.5 57.5t46.5 135.5z" />
    <glyph glyph-name="gamma" unicode="&#x3b3;" horiz-adv-x="486" 
d="M440 539q-13 -256 -181 -539v-215h-53v125q0 277 -176 629h58q121 -243 151 -493h2q59 105 100 240t46 253h53z" />
    <glyph glyph-name="delta" unicode="&#x3b4;" horiz-adv-x="506" 
d="M451 247q0 -105 -51.5 -181t-146.5 -76q-92 0 -145 73t-53 176q0 92 44 174t127 124q-45 42 -67.5 74.5t-22.5 70.5q0 45 31 74t79 29h147v-37h-148q-27 0 -43.5 -19t-16.5 -47q0 -25 16 -52t33 -44t53 -49q38 -34 59 -55.5t49.5 -59.5t42 -81.5t13.5 -93.5zM397 248
q0 45 -11.5 83.5t-35 72t-43.5 55.5t-53 52q-70 -33 -107.5 -108t-37.5 -161q0 -89 38.5 -151t105.5 -62q48 0 82 34.5t48 82t14 102.5z" />
    <glyph glyph-name="epsilon" unicode="&#x3b5;" horiz-adv-x="439" 
d="M402 26q-66 -36 -154 -36q-92 0 -144.5 44.5t-52.5 105.5q0 47 32.5 86t94.5 56v2q-52 18 -79.5 54t-27.5 78q0 55 46.5 94t131.5 39q81 0 146 -36l-17 -34q-57 31 -129 31q-59 0 -91 -28.5t-32 -68.5q0 -46 40.5 -80.5t109.5 -34.5h59v-37h-67q-77 0 -119 -34.5
t-42 -82.5q0 -46 38 -79.5t103 -33.5q80 0 137 31z" />
    <glyph glyph-name="zeta" unicode="&#x3b6;" horiz-adv-x="397" 
d="M392 -70q0 -48 -47 -99l-32 23q28 36 28 76q0 27 -19 41.5t-60 27.5q-104 32 -156.5 87.5t-52.5 166.5q0 116 85 258t192 235v2h-222v37h276v-37q-113 -95 -194.5 -236t-81.5 -259q0 -45 11 -80.5t25.5 -56t41.5 -38t44 -24.5t49 -18q31 -11 44.5 -16.5t33 -18t27.5 -30
t8 -41.5z" />
    <glyph glyph-name="eta" unicode="&#x3b7;" horiz-adv-x="511" 
d="M434 -215h-54v591q0 71 -32 104t-106 33q-63 0 -111 -21v-492h-54v512q76 37 165 37q192 0 192 -173v-591z" />
    <glyph glyph-name="theta" unicode="&#x3b8;" horiz-adv-x="522" 
d="M460 393q0 -78 -9.5 -145t-30.5 -127.5t-62 -95.5t-97 -35t-97 35t-62 95.5t-30.5 127.5t-9.5 145q0 62 5.5 116.5t19.5 108t36 92t57.5 62t80.5 23.5t80.5 -23.5t57.5 -62t36 -92t19.5 -108t5.5 -116.5zM407 416q-1 64 -8.5 119.5t-22.5 108.5t-44.5 83.5t-70.5 30.5
t-70.5 -30.5t-44.5 -83.5t-22.5 -108.5t-8.5 -119.5h292zM407 379h-292q1 -65 8 -121.5t22 -110.5t45 -86t71 -32t71 32t45 86t22 110.5t8 121.5z" />
    <glyph glyph-name="iota" unicode="&#x3b9;" horiz-adv-x="222" 
d="M138 0h-54v539h54v-539z" />
    <glyph glyph-name="kappa" unicode="&#x3ba;" horiz-adv-x="474" 
d="M450 0h-63l-62 104q-41 69 -84 111t-109 66v-281h-53v539h53v-253h2l237 253h67l-244 -246q104 -46 180 -169z" />
    <glyph glyph-name="lambda" unicode="&#x3bb;" horiz-adv-x="490" 
d="M455 0h-58l-130 423q-10 33 -17 70h-2q-5 -33 -17 -70l-142 -423h-54l194 539l-89 246h54z" />
    <glyph glyph-name="uni03BC" unicode="&#x3bc;" horiz-adv-x="504" 
d="M427 42q-71 -52 -167 -52q-73 0 -125 34v-239h-54v754h54v-473q52 -38 125 -38q64 0 113 34v477h54v-497z" />
    <glyph glyph-name="nu" unicode="&#x3bd;" horiz-adv-x="484" 
d="M438 539q-13 -258 -180 -539h-44l-179 539h58l149 -487h2q57 104 96.5 236.5t44.5 250.5h53z" />
    <glyph glyph-name="xi" unicode="&#x3be;" horiz-adv-x="412" 
d="M402 -70q0 -48 -47 -99l-32 23q28 36 28 76q0 27 -19.5 42t-59.5 27q-50 15 -83 29.5t-68 40t-52.5 66t-17.5 94.5q0 71 44.5 130t119.5 76v2q-61 24 -94 73t-33 104q0 71 51.5 121t142.5 50h119v-37h-115q-68 0 -106 -40t-38 -97q0 -66 50.5 -116t140.5 -50h17v-35h-71
q-75 0 -124 -53.5t-49 -125.5q0 -29 6.5 -53.5t14 -41t25.5 -32t28.5 -23.5t35.5 -18.5t34 -13.5l37 -12t45 -16.5t35 -19.5t26.5 -29.5t8.5 -41.5z" />
    <glyph glyph-name="omicron" unicode="&#x3bf;" horiz-adv-x="506" 
d="M451 270q0 -127 -49.5 -203.5t-148.5 -76.5t-148.5 76.5t-49.5 203.5t49.5 203t148.5 76t148.5 -76t49.5 -203zM397 272q0 50 -7.5 91.5t-23.5 76t-45 54t-68 19.5q-52 0 -85 -34.5t-46 -86.5t-13 -120t13 -120.5t46.5 -87.5t84.5 -35t84.5 35t46.5 87.5t13 120.5z" />
    <glyph glyph-name="pi" unicode="&#x3c0;" horiz-adv-x="558" 
d="M518 504h-80v-504h-54v504h-196l-68 -504h-55l69 504h-84v35h468v-35z" />
    <glyph glyph-name="rho" unicode="&#x3c1;" horiz-adv-x="514" 
d="M459 275q0 -116 -58 -200.5t-167 -84.5q-59 0 -105 26v-231h-53v490q0 123 47.5 198.5t143.5 75.5q97 0 144.5 -75.5t47.5 -198.5zM405 275q0 49 -7 90t-22 75t-43 53.5t-66 19.5q-73 0 -105.5 -66.5t-32.5 -171.5v-218q43 -29 105 -29q86 0 128.5 73.5t42.5 173.5z" />
    <glyph glyph-name="sigma1" unicode="&#x3c2;" horiz-adv-x="396" 
d="M376 -70q0 -48 -47 -99l-32 23q28 36 28 76q0 46 -69 69q-105 35 -153 96.5t-48 178.5q0 50 12.5 97.5t36.5 88t65 65t93 24.5q64 0 110 -34l-15 -34q-43 29 -91 29q-54 0 -91 -39.5t-51 -90.5t-14 -106q0 -50 10.5 -89t24.5 -62t39 -41.5t42 -26.5t47 -19
q28 -11 40.5 -16.5t30.5 -18t25 -30t7 -41.5z" />
    <glyph glyph-name="sigma" unicode="&#x3c3;" horiz-adv-x="536" 
d="M504 502h-64q-40 0 -72 5v-2q83 -65 83 -235q0 -127 -49.5 -203.5t-148.5 -76.5t-148.5 76.5t-49.5 203.5t49.5 203t148.5 76q18 0 49.5 -5t59.5 -5h142v-37zM397 272q0 50 -7.5 91.5t-23.5 76t-45 54t-68 19.5q-52 0 -85 -34.5t-46 -86.5t-13 -120t13 -120.5t46.5 -87.5
t84.5 -35t84.5 35t46.5 87.5t13 120.5z" />
    <glyph glyph-name="tau" unicode="&#x3c4;" horiz-adv-x="382" 
d="M350 502h-132v-502h-54v502h-132v37h318v-37z" />
    <glyph glyph-name="upsilon" unicode="&#x3c5;" horiz-adv-x="500" 
d="M423 160q0 -81 -51.5 -125.5t-121.5 -44.5t-121.5 44.5t-51.5 125.5v379h54v-382q0 -60 35.5 -93.5t83.5 -33.5t83.5 33.5t35.5 93.5v382h54v-379z" />
    <glyph glyph-name="phi" unicode="&#x3c6;" horiz-adv-x="656" 
d="M601 288q0 -124 -63.5 -205t-193.5 -92v-206h-50v206q-77 6 -132.5 50.5t-81 107t-25.5 134.5q0 86 38 159.5t108 106.5l16 -36q-52 -28 -81 -91.5t-29 -138.5q0 -97 48.5 -171t138.5 -84v484q55 37 121 37q90 0 138 -73.5t48 -187.5zM550 288q0 97 -33.5 161.5
t-102.5 64.5q-38 0 -70 -18v-468q206 20 206 260z" />
    <glyph glyph-name="chi" unicode="&#x3c7;" horiz-adv-x="492" 
d="M468 -215h-58l-170 354h-2q-126 -160 -161 -354h-53q21 117 70.5 209t123.5 187l-181 358h58l153 -321h2q115 147 146 321h53q-14 -76 -45.5 -148t-60 -114.5t-73.5 -100.5z" />
    <glyph glyph-name="psi" unicode="&#x3c8;" horiz-adv-x="636" 
d="M564 256q0 -125 -52.5 -190.5t-168.5 -74.5v-206h-50v206q-116 9 -168.5 74.5t-52.5 190.5v283h52v-283q0 -107 39 -163t130 -65v660h50v-660q91 9 130 65t39 163v283h52v-283z" />
    <glyph glyph-name="omega" unicode="&#x3c9;" horiz-adv-x="656" 
d="M599 252q0 -110 -39 -186t-115 -76q-85 0 -116 98h-2q-31 -98 -116 -98q-76 0 -115 76t-39 186q0 78 19 155.5t51 131.5h53q-32 -55 -51.5 -133t-19.5 -154q0 -56 9 -104t33.5 -83.5t60.5 -35.5q43 0 67 48t24 140v200h50v-200q0 -92 24 -140t67 -48q36 0 60.5 35.5
t33.5 83.5t9 104q0 76 -19.5 154t-51.5 133h53q32 -54 51 -131.5t19 -155.5z" />
    <glyph glyph-name="iotadieresis" unicode="&#x3ca;" horiz-adv-x="222" 
d="M138 0h-54v539h54v-539zM219 650q0 -14 -10 -24t-24 -10t-24 10t-10 24t10 24t24 10t24 -10t10 -24zM71 650q0 -14 -10 -24t-24 -10t-24 10t-10 24t10 24t24 10t24 -10t10 -24z" />
    <glyph glyph-name="upsilondieresis" unicode="&#x3cb;" horiz-adv-x="500" 
d="M423 160q0 -81 -51.5 -125.5t-121.5 -44.5t-121.5 44.5t-51.5 125.5v379h54v-382q0 -60 35.5 -93.5t83.5 -33.5t83.5 33.5t35.5 93.5v382h54v-379zM358 650q0 -14 -10 -24t-24 -10t-24 10t-10 24t10 24t24 10t24 -10t10 -24zM210 650q0 -14 -10 -24t-24 -10t-24 10
t-10 24t10 24t24 10t24 -10t10 -24z" />
    <glyph glyph-name="omicrontonos" unicode="&#x3cc;" horiz-adv-x="506" 
d="M451 270q0 -127 -49.5 -203.5t-148.5 -76.5t-148.5 76.5t-49.5 203.5t49.5 203t148.5 76t148.5 -76t49.5 -203zM397 272q0 50 -7.5 91.5t-23.5 76t-45 54t-68 19.5q-52 0 -85 -34.5t-46 -86.5t-13 -120t13 -120.5t46.5 -87.5t84.5 -35t84.5 35t46.5 87.5t13 120.5z
M339 729l-74 -129h-34l46 134q11 14 32 14q23 0 30 -19z" />
    <glyph glyph-name="upsilontonos" unicode="&#x3cd;" horiz-adv-x="500" 
d="M423 160q0 -81 -51.5 -125.5t-121.5 -44.5t-121.5 44.5t-51.5 125.5v379h54v-382q0 -60 35.5 -93.5t83.5 -33.5t83.5 33.5t35.5 93.5v382h54v-379zM334 729l-74 -129h-34l46 134q11 14 32 14q23 0 30 -19z" />
    <glyph glyph-name="omegatonos" unicode="&#x3ce;" horiz-adv-x="656" 
d="M599 252q0 -110 -39 -186t-115 -76q-85 0 -116 98h-2q-31 -98 -116 -98q-76 0 -115 76t-39 186q0 78 19 155.5t51 131.5h53q-32 -55 -51.5 -133t-19.5 -154q0 -56 9 -104t33.5 -83.5t60.5 -35.5q43 0 67 48t24 140v200h50v-200q0 -92 24 -140t67 -48q36 0 60.5 35.5
t33.5 83.5t9 104q0 76 -19.5 154t-51.5 133h53q32 -54 51 -131.5t19 -155.5zM416 729l-74 -129h-34l46 134q11 14 32 14q23 0 30 -19z" />
    <glyph glyph-name="uni03D0" unicode="&#x3d0;" horiz-adv-x="512" 
d="M461 219q0 -95 -52 -162t-144 -67q-97 0 -142.5 66.5t-45.5 178.5v315q0 110 41.5 177t131.5 67q76 0 119.5 -52t43.5 -128q0 -56 -29 -104.5t-87 -68.5v-2q80 -19 122 -81t42 -139zM361 614q0 60 -28.5 102t-82.5 42q-121 0 -121 -208v-112l81 11q76 11 113.5 51
t37.5 114zM407 219q0 84 -47.5 139.5t-134.5 55.5q-49 0 -96 -11v-168q0 -90 32.5 -148.5t103.5 -58.5q70 0 106 55t36 136z" />
    <glyph glyph-name="theta1" unicode="&#x3d1;" horiz-adv-x="516" 
d="M454 425q0 -91 -10 -165.5t-31.5 -137t-61 -97.5t-93.5 -35q-49 0 -87 26t-61.5 71t-37 100.5t-17.5 121.5h54q20 -280 149 -280q40 0 69 33.5t44.5 91t22.5 122t7 138.5q-51 -25 -121 -25q-108 0 -166.5 62t-58.5 148q0 79 49.5 137.5t134.5 58.5q110 0 162.5 -100.5
t52.5 -269.5zM401 450q-9 308 -162 308q-60 0 -95.5 -47t-35.5 -112q0 -71 44 -122t128 -51q70 0 121 24z" />
    <glyph glyph-name="Upsilon1" unicode="&#x3d2;" horiz-adv-x="508" 
d="M478 648q-17 7 -39 7q-37 0 -71 -46t-56 -115t-34.5 -146.5t-12.5 -144.5v-203h-57v203q0 146 -44.5 263.5t-143.5 221.5h66q132 -145 151 -338h2q6 59 19.5 115t35.5 110t58 86.5t80 32.5q22 0 46 -9v-37z" />
    <glyph glyph-name="uni03D3" unicode="&#x3d3;" horiz-adv-x="610" 
d="M62 679l-30 -175h-32v176q10 16 32 16q21 0 30 -17zM580 648q-17 7 -39 7q-37 0 -71 -46t-56 -115t-34.5 -146.5t-12.5 -144.5v-203h-57v203q0 146 -44.5 263.5t-143.5 221.5h66q132 -145 151 -338h2q6 59 19.5 115t35.5 110t58 86.5t80 32.5q22 0 46 -9v-37z" />
    <glyph glyph-name="uni03D4" unicode="&#x3d4;" horiz-adv-x="508" 
d="M478 648q-17 7 -39 7q-37 0 -71 -46t-56 -115t-34.5 -146.5t-12.5 -144.5v-203h-57v203q0 146 -44.5 263.5t-143.5 221.5h66q132 -145 151 -338h2q6 59 19.5 115t35.5 110t58 86.5t80 32.5q22 0 46 -9v-37zM350 789q0 -14 -10 -24t-24 -10t-24 10t-10 24t10 24t24 10
t24 -10t10 -24zM202 789q0 -14 -10 -24t-24 -10t-24 10t-10 24t10 24t24 10t24 -10t10 -24z" />
    <glyph glyph-name="phi1" unicode="&#x3d5;" horiz-adv-x="656" 
d="M601 270q0 -106 -65.5 -187.5t-182.5 -90.5v-207h-50v207q-117 9 -182.5 90.5t-65.5 187.5t65.5 187t182.5 90v141h50v-141q117 -9 182.5 -90t65.5 -187zM549 271q0 92 -49.5 161t-146.5 80v-483q97 10 146.5 80t49.5 162zM303 29v483q-97 -11 -146.5 -80t-49.5 -161
t49.5 -162t146.5 -80z" />
    <glyph glyph-name="uni0400" unicode="&#x400;" horiz-adv-x="433" 
d="M386 0h-303v688h303v-39h-246v-272h223v-39h-223v-299h246v-39zM267 749h-34l-106 129q8 18 30 18q19 0 34 -13z" />
    <glyph glyph-name="afii10023" unicode="&#x401;" horiz-adv-x="433" 
d="M197 799q0 -14 -10 -24t-24 -10t-24 10t-10 24t10 24t24 10t24 -10t10 -24zM345 799q0 -14 -10 -24t-24 -10t-24 10t-10 24t10 24t24 10t24 -10t10 -24zM386 0h-303v688h303v-39h-246v-272h223v-39h-223v-299h246v-39z" />
    <glyph glyph-name="afii10051" unicode="&#x402;" horiz-adv-x="666" 
d="M609 191q0 -123 -69 -232.5t-188 -146.5l-16 40q68 21 118 75.5t73.5 121.5t23.5 137q0 98 -47 164.5t-133 66.5q-77 0 -129 -35v-382h-57v649h-153v39h445v-39h-235v-230q56 38 129 38q118 0 178 -75.5t60 -190.5z" />
    <glyph glyph-name="afii10052" unicode="&#x403;" horiz-adv-x="444" 
d="M414 649h-268v-649h-57v688h325v-39zM364 878l-106 -129h-34l76 134q15 13 34 13q22 0 30 -18z" />
    <glyph glyph-name="afii10053" unicode="&#x404;" horiz-adv-x="494" 
d="M455 27q-60 -37 -141 -37q-65 0 -115.5 29t-80 79t-44.5 112t-15 134t15 134t44.5 112t80 79t115.5 29q81 0 141 -37l-18 -35q-51 32 -123 32q-96 0 -143.5 -79t-52.5 -202h286v-39h-287q1 -84 19 -149.5t63.5 -110.5t114.5 -45q72 0 123 32z" />
    <glyph glyph-name="afii10054" unicode="&#x405;" horiz-adv-x="474" 
d="M414 172q0 -79 -57 -130.5t-149 -51.5q-98 0 -158 37l19 38q52 -32 139 -32q70 0 109.5 38.5t39.5 99.5q0 53 -31 88.5t-74.5 56.5l-87.5 43.5t-75 65t-31 105.5q0 77 53 122.5t139 45.5q79 0 137 -37l-18 -35q-52 32 -119 32q-64 0 -100 -33.5t-36 -93.5q0 -52 31 -86.5
t75 -55l88 -43t75 -66t31 -108.5z" />
    <glyph glyph-name="afii10055" unicode="&#x406;" horiz-adv-x="231" 
d="M144 0h-57v688h57v-688z" />
    <glyph glyph-name="afii10056" unicode="&#x407;" horiz-adv-x="231" 
d="M76 799q0 -14 -10 -24t-24 -10t-24 10t-10 24t10 24t24 10t24 -10t10 -24zM224 799q0 -14 -10 -24t-24 -10t-24 10t-10 24t10 24t24 10t24 -10t10 -24zM144 0h-57v688h57v-688z" />
    <glyph glyph-name="afii10057" unicode="&#x408;" horiz-adv-x="231" 
d="M144 67q0 -107 -50.5 -183t-140.5 -104v42q62 27 98 90t36 155v621h57v-621z" />
    <glyph glyph-name="afii10058" unicode="&#x409;" horiz-adv-x="918" 
d="M865 194q0 -96 -64 -150t-167 -54q-81 0 -156 36l-50 623h-183l-14 -175q-4 -51 -7.5 -84.5t-10.5 -80t-16 -79.5t-23.5 -71.5t-33.5 -67.5t-46 -56.5t-60 -48.5l-18 53q45 30 75.5 77t47 111t23.5 117t13 133l16 211h290l24 -303q56 22 122 22q105 0 171.5 -53.5
t66.5 -159.5zM807 194q0 89 -48.5 132t-131.5 43q-61 0 -119 -20l24 -301q44 -19 102 -19q80 0 126.5 43.5t46.5 121.5z" />
    <glyph glyph-name="afii10059" unicode="&#x40a;" horiz-adv-x="884" 
d="M831 194q0 -97 -65 -150.5t-167 -53.5t-168 36v312h-292v-338h-56v688h56v-311h292v311h56v-301q55 20 112 20q106 0 169 -56t63 -157zM773 194q0 84 -45 129.5t-129 45.5q-61 0 -112 -18v-303q42 -19 112 -19q80 0 127 42.5t47 122.5z" />
    <glyph glyph-name="afii10060" unicode="&#x40b;" horiz-adv-x="660" 
d="M581 0h-57v261q0 73 -37 114.5t-108 41.5q-80 0 -137 -35v-382h-57v649h-153v39h445v-39h-235v-230q61 38 137 38q97 0 149.5 -50.5t52.5 -145.5v-261z" />
    <glyph glyph-name="afii10061" unicode="&#x40c;" horiz-adv-x="530" 
d="M383 878l-106 -129h-34l76 134q15 13 34 13q23 0 30 -18zM504 0h-67l-71 133q-46 87 -96.5 140.5t-127.5 84.5v-358h-55v688h55v-326h2l275 326h71l-282 -315q66 -32 114 -83t93 -131z" />
    <glyph glyph-name="uni040D" unicode="&#x40d;" horiz-adv-x="604" 
d="M521 0h-50v564q0 42 3 86h-2q-16 -40 -37 -81l-295 -569h-57v688h50v-545q0 -50 -3 -83h2q16 46 34 80l283 548h72v-688zM339 749h-34l-106 129q7 18 30 18q19 0 34 -13z" />
    <glyph glyph-name="afii10062" unicode="&#x40e;" horiz-adv-x="504" 
d="M474 688q-47 -241 -169 -473l-114 -215h-66l122 214q-166 239 -217 474h61q51 -230 183 -429h2q104 210 143 429h55zM366 866q0 -55 -33 -85t-78 -30t-78 30t-33 85l31 5q4 -40 26.5 -60t53.5 -20t53.5 20t26.5 60z" />
    <glyph glyph-name="afii10145" unicode="&#x40f;" horiz-adv-x="576" 
d="M493 0h-176l-8 -162h-42l-8 162h-176v688h57v-649h296v649h57v-688z" />
    <glyph glyph-name="afii10017" unicode="&#x410;" horiz-adv-x="572" 
d="M546 0h-60l-76 235h-253l-77 -235h-54l237 688h46zM397 272l-90 278q-13 41 -22 89h-2q-10 -46 -23 -89l-91 -278h228z" />
    <glyph glyph-name="afii10018" unicode="&#x411;" horiz-adv-x="546" 
d="M493 194q0 -97 -66.5 -150.5t-171.5 -53.5t-172 36v662h347v-39h-291v-262q57 20 116 20q109 0 173.5 -55.5t64.5 -157.5zM435 194q0 84 -47 129.5t-133 45.5q-64 0 -116 -18v-303q44 -19 116 -19q82 0 131 42.5t49 122.5z" />
    <glyph glyph-name="afii10019" unicode="&#x412;" horiz-adv-x="543" 
d="M490 184q0 -99 -65.5 -146.5t-169.5 -47.5q-105 0 -172 36v636q72 36 163 36q100 0 157.5 -46t57.5 -121q0 -129 -138 -164v-2q68 -10 117.5 -60.5t49.5 -120.5zM406 526q0 135 -163 135q-61 0 -107 -18v-264h60q109 0 159.5 36.5t50.5 110.5zM432 179q0 89 -58 129.5
t-178 40.5h-60v-301q44 -19 114 -19q81 0 131.5 36t50.5 114z" />
    <glyph glyph-name="afii10020" unicode="&#x413;" horiz-adv-x="444" 
d="M414 649h-268v-649h-57v688h325v-39z" />
    <glyph glyph-name="afii10021" unicode="&#x414;" horiz-adv-x="638" 
d="M594 21l-10 -183h-42l-5 162h-441l-5 -162h-42l-10 183q70 75 99.5 176t45.5 257l24 234h286l52 -649zM491 38l-49 612h-184l-20 -200q-15 -149 -39 -237t-85 -175h377z" />
    <glyph glyph-name="afii10022" unicode="&#x415;" horiz-adv-x="433" 
d="M386 0h-303v688h303v-39h-246v-272h223v-39h-223v-299h246v-39z" />
    <glyph glyph-name="afii10024" unicode="&#x416;" horiz-adv-x="793" 
d="M767 0h-65l-68 133q-46 91 -91 143t-120 82v-358h-53v358q-75 -30 -120 -82t-91 -143l-68 -133h-65l86 159q45 83 88 133t106 81l-266 315h68l260 -326h2v326h53v-326h2l260 326h68l-266 -315q63 -31 106 -81t88 -133z" />
    <glyph glyph-name="afii10025" unicode="&#x417;" horiz-adv-x="470" 
d="M417 182q0 -90 -62 -141t-158 -51q-95 0 -158 37l19 38q54 -32 139 -32q74 0 118 39.5t44 109.5q0 80 -56 118t-146 38h-48v39h48q81 0 131 42.5t50 112.5q0 58 -40 92t-103 34q-72 0 -128 -32l-18 35q63 37 146 37q88 0 144 -43.5t56 -122.5q0 -63 -39 -107.5
t-105 -61.5v-2q166 -33 166 -179z" />
    <glyph glyph-name="afii10026" unicode="&#x418;" horiz-adv-x="604" 
d="M521 0h-50v564q0 42 3 86h-2q-16 -40 -37 -81l-295 -569h-57v688h50v-545q0 -50 -3 -83h2q16 46 34 80l283 548h72v-688z" />
    <glyph glyph-name="afii10027" unicode="&#x419;" horiz-adv-x="604" 
d="M521 0h-50v564q0 42 3 86h-2q-16 -40 -37 -81l-295 -569h-57v688h50v-545q0 -50 -3 -83h2q16 46 34 80l283 548h72v-688zM413 866q0 -55 -33 -85t-78 -30t-78 30t-33 85l31 5q4 -40 26.5 -60t53.5 -20t53.5 20t26.5 60z" />
    <glyph glyph-name="afii10028" unicode="&#x41a;" horiz-adv-x="530" 
d="M504 0h-67l-71 133q-46 87 -96.5 140.5t-127.5 84.5v-358h-55v688h55v-326h2l275 326h71l-282 -315q66 -32 114 -83t93 -131z" />
    <glyph glyph-name="afii10029" unicode="&#x41b;" horiz-adv-x="606" 
d="M538 0h-57l-52 649h-184l-14 -175q-4 -51 -7.5 -84.5t-10.5 -80t-16 -79.5t-23.5 -71.5t-33.5 -67.5t-46 -56.5t-60 -48.5l-18 53q45 30 75.5 77t47 111t23.5 117t13 133l16 211h292z" />
    <glyph glyph-name="afii10030" unicode="&#x41c;" horiz-adv-x="774" 
d="M714 0h-56l-62 575q-4 34 -6 79h-2q-9 -47 -18 -79l-162 -575h-48l-161 575q-9 32 -18 79h-2q-2 -40 -6 -79l-63 -575h-50l86 688h67l155 -552q10 -37 18 -84h2q8 47 18 84l155 552h67z" />
    <glyph glyph-name="afii10031" unicode="&#x41d;" horiz-adv-x="581" 
d="M498 0h-57v338h-301v-338h-57v688h57v-311h301v311h57v-688z" />
    <glyph glyph-name="afii10032" unicode="&#x41e;" horiz-adv-x="596" 
d="M537 344q0 -157 -59.5 -255.5t-179.5 -98.5t-179.5 98.5t-59.5 255.5t59.5 255.5t179.5 98.5t179.5 -98.5t59.5 -255.5zM479 345q0 87 -15.5 154t-57.5 113t-108 46t-108 -46t-57.5 -113t-15.5 -154t15.5 -154t57.5 -113t108 -46t108 46t57.5 113t15.5 154z" />
    <glyph glyph-name="afii10033" unicode="&#x41f;" horiz-adv-x="581" 
d="M498 0h-57v649h-301v-649h-57v688h415v-688z" />
    <glyph glyph-name="afii10034" unicode="&#x420;" horiz-adv-x="501" 
d="M456 496q0 -89 -59.5 -146t-178.5 -57q-37 0 -79 7v-300h-56v662q70 36 153 36q108 0 164 -54t56 -148zM400 498q0 163 -164 163q-53 0 -97 -17v-308q35 -6 79 -6q96 0 139 46.5t43 121.5z" />
    <glyph glyph-name="afii10035" unicode="&#x421;" horiz-adv-x="474" 
d="M437 27q-55 -37 -127 -37q-82 0 -140 50.5t-84.5 129t-26.5 174.5t26.5 174.5t84.5 129t140 50.5q72 0 127 -37l-17 -35q-48 32 -110 32q-49 0 -86.5 -26.5t-60 -71.5t-33.5 -99.5t-11 -115.5q0 -130 48.5 -221.5t142.5 -91.5q62 0 110 32z" />
    <glyph glyph-name="afii10036" unicode="&#x422;" horiz-adv-x="451" 
d="M419 649h-165v-649h-57v649h-165v39h387v-39z" />
    <glyph glyph-name="afii10037" unicode="&#x423;" horiz-adv-x="504" 
d="M474 688q-47 -241 -169 -473l-114 -215h-66l122 214q-166 239 -217 474h61q51 -230 183 -429h2q104 210 143 429h55z" />
    <glyph glyph-name="afii10038" unicode="&#x424;" horiz-adv-x="678" 
d="M623 345q0 -123 -70 -211t-188 -95v-66h-52v66q-118 7 -188 95t-70 211t70 211.5t188 94.5v64h52v-64q118 -6 188 -94.5t70 -211.5zM566 346q0 106 -53.5 185t-147.5 85v-540q94 7 147.5 85.5t53.5 184.5zM313 76v540q-94 -6 -147.5 -85t-53.5 -185t53.5 -184.5
t147.5 -85.5z" />
    <glyph glyph-name="afii10039" unicode="&#x425;" horiz-adv-x="526" 
d="M494 0h-67l-163 319h-2l-170 -319h-60l202 359l-181 329h63l146 -285h2l152 285h57l-181 -324z" />
    <glyph glyph-name="afii10040" unicode="&#x426;" horiz-adv-x="594" 
d="M541 21l-10 -183h-42l-5 162h-401v688h57v-649h296v649h57v-649z" />
    <glyph glyph-name="afii10041" unicode="&#x427;" horiz-adv-x="558" 
d="M475 0h-57v298q-62 -37 -143 -37q-91 0 -143.5 46t-52.5 133v248h57v-248q0 -66 36.5 -102t102.5 -36q86 0 143 35v351h57v-688z" />
    <glyph glyph-name="afii10042" unicode="&#x428;" horiz-adv-x="889" 
d="M806 0h-723v688h57v-649h276v649h57v-649h276v649h57v-688z" />
    <glyph glyph-name="afii10043" unicode="&#x429;" horiz-adv-x="907" 
d="M854 21l-10 -183h-42l-5 162h-714v688h57v-649h276v649h57v-649h276v649h57v-649z" />
    <glyph glyph-name="afii10044" unicode="&#x42a;" horiz-adv-x="648" 
d="M595 194q0 -97 -65 -150.5t-167 -53.5t-168 36v623h-163v39h219v-301q55 20 112 20q106 0 169 -56t63 -157zM537 194q0 84 -45 129.5t-129 45.5q-61 0 -112 -18v-303q42 -19 112 -19q80 0 127 42.5t47 122.5z" />
    <glyph glyph-name="afii10045" unicode="&#x42b;" horiz-adv-x="728" 
d="M645 0h-56v688h56v-688zM483 194q0 -97 -65 -150.5t-167 -53.5t-168 36v662h56v-301q55 20 112 20q106 0 169 -56t63 -157zM425 194q0 84 -45 129.5t-129 45.5q-61 0 -112 -18v-303q42 -19 112 -19q80 0 127 42.5t47 122.5z" />
    <glyph glyph-name="afii10046" unicode="&#x42c;" horiz-adv-x="536" 
d="M483 194q0 -97 -65 -150.5t-167 -53.5t-168 36v662h56v-301q55 20 112 20q106 0 169 -56t63 -157zM425 194q0 84 -45 129.5t-129 45.5q-61 0 -112 -18v-303q42 -19 112 -19q80 0 127 42.5t47 122.5z" />
    <glyph glyph-name="afii10047" unicode="&#x42d;" horiz-adv-x="494" 
d="M435 344q0 -72 -15 -134t-44.5 -112t-80 -79t-115.5 -29q-81 0 -141 37l18 38q51 -32 123 -32q69 0 114.5 45t63.5 110.5t19 149.5h-287v39h286q-5 123 -52.5 202t-143.5 79q-72 0 -123 -32l-18 35q60 37 141 37q65 0 115.5 -29t80 -79t44.5 -112t15 -134z" />
    <glyph glyph-name="afii10048" unicode="&#x42e;" horiz-adv-x="818" 
d="M758 344q0 -102 -22 -179.5t-73 -126t-127 -48.5q-111 0 -166 96.5t-56 251.5h-174v-338h-57v688h57v-311h175q6 144 60.5 232.5t160.5 88.5q76 0 127 -48.5t73 -126t22 -179.5zM700 345q0 65 -8 118t-26 98.5t-51 71t-79 25.5t-79 -25.5t-51.5 -71t-26.5 -99t-8 -117.5
t8 -117.5t26.5 -99t51.5 -71t79 -25.5t79 25.5t51 71t26 98.5t8 118z" />
    <glyph glyph-name="afii10049" unicode="&#x42f;" horiz-adv-x="528" 
d="M442 0h-54v327q-80 -14 -129 -92l-149 -235h-68l161 240q33 48 69 75v2q-92 8 -151 62t-59 130q0 91 60.5 140t167.5 49q80 0 152 -36v-662zM388 354v289q-47 18 -98 18q-83 0 -128 -38.5t-45 -113.5q0 -72 53 -117t139 -45q42 0 79 7z" />
    <glyph glyph-name="afii10065" unicode="&#x430;" horiz-adv-x="478" 
d="M401 27q-71 -37 -163 -37q-89 0 -139 41.5t-50 118.5q0 169 301 199v37q0 124 -126 124q-68 0 -130 -35l-15 35q70 39 146 39q84 0 130 -41.5t46 -122.5v-358zM350 46v270q-124 -15 -186 -52t-62 -114q0 -61 36.5 -93.5t106.5 -32.5q63 0 105 22z" />
    <glyph glyph-name="afii10066" unicode="&#x431;" horiz-adv-x="502" 
d="M447 237q0 -101 -51 -174t-144 -73q-97 0 -146 78.5t-49 227.5q0 102 19.5 185t70 147t128.5 80l135 27v-41l-117 -24q-125 -26 -165 -194q58 26 114 26q93 0 149 -68.5t56 -196.5zM393 238q0 113 -42 170.5t-118 57.5q-49 0 -113 -28q-10 -58 -10 -142q0 -267 142 -267
q68 0 104.5 63t36.5 146z" />
    <glyph glyph-name="afii10067" unicode="&#x432;" horiz-adv-x="498" 
d="M447 143q0 -74 -58 -113.5t-151 -39.5q-94 0 -161 37v486q69 36 156 36q86 0 139 -34.5t53 -100.5q0 -51 -32.5 -85t-87.5 -43v-2q63 -10 102.5 -49t39.5 -92zM373 410q0 105 -140 105q-60 0 -104 -18v-199h70q92 0 133 28t41 84zM393 143q0 63 -47 94t-147 31h-70v-222
q43 -20 109 -20q73 0 114 30t41 87z" />
    <glyph glyph-name="afii10068" unicode="&#x433;" horiz-adv-x="384" 
d="M352 502h-217v-502h-54v539h271v-37z" />
    <glyph glyph-name="afii10069" unicode="&#x434;" horiz-adv-x="560" 
d="M520 19l-10 -165h-39l-5 146h-385l-5 -146h-39l-10 165q55 61 78 133t35 181l23 206h260l49 -502zM421 36l-45 467h-166l-19 -170q-12 -103 -30.5 -168t-61.5 -129h322z" />
    <glyph glyph-name="afii10070" unicode="&#x435;" horiz-adv-x="507" 
d="M452 297l-345 -53q5 -100 50.5 -156.5t129.5 -56.5q76 0 129 33l17 -37q-59 -37 -147 -37q-109 0 -170 73t-61 208q0 128 54.5 203t149.5 75q92 0 142.5 -62t50.5 -190zM399 324q-3 188 -140 188q-74 0 -113.5 -63t-39.5 -170z" />
    <glyph glyph-name="afii10072" unicode="&#x436;" horiz-adv-x="698" 
d="M672 0h-62l-56 104q-39 73 -77 114t-103 64v-282h-50v282q-65 -23 -103 -64t-77 -114l-56 -104h-62l70 124q37 67 74 106t94 64l-224 245h65l217 -253h2v253h50v-253h2l217 253h65l-224 -245q57 -25 94 -64t74 -106z" />
    <glyph glyph-name="afii10073" unicode="&#x437;" horiz-adv-x="442" 
d="M391 140q0 -61 -52.5 -105.5t-144.5 -44.5q-88 0 -154 36l17 36q57 -31 137 -31q65 0 103 33.5t38 79.5q0 48 -42 82.5t-119 34.5h-67v37h59q69 0 109.5 34.5t40.5 80.5q0 40 -32 68.5t-91 28.5q-72 0 -129 -31l-17 34q65 36 146 36q85 0 131.5 -39t46.5 -94
q0 -42 -27.5 -78t-79.5 -54v-2q62 -17 94.5 -56t32.5 -86z" />
    <glyph glyph-name="afii10074" unicode="&#x438;" horiz-adv-x="528" 
d="M451 0h-48v422q0 35 3 74h-2q-16 -38 -32 -66l-245 -430h-50v539h48v-404q0 -35 -3 -73h2q12 29 32 67l233 410h62v-539z" />
    <glyph glyph-name="afii10075" unicode="&#x439;" horiz-adv-x="528" 
d="M451 0h-48v422q0 35 3 74h-2q-16 -38 -32 -66l-245 -430h-50v539h48v-404q0 -35 -3 -73h2q12 29 32 67l233 410h62v-539zM375 717q0 -55 -33 -85t-78 -30t-78 30t-33 85l31 5q4 -40 26.5 -60t53.5 -20t53.5 20t26.5 60z" />
    <glyph glyph-name="afii10076" unicode="&#x43a;" horiz-adv-x="474" 
d="M450 0h-63l-62 104q-41 69 -84 111t-109 66v-281h-53v539h53v-253h2l237 253h67l-244 -246q104 -46 180 -169z" />
    <glyph glyph-name="afii10077" unicode="&#x43b;" horiz-adv-x="540" 
d="M478 0h-55l-48 502h-166l-19 -196q-6 -60 -13 -96.5t-23 -81t-47 -78t-78 -61.5l-15 44q66 43 90 107.5t33 165.5l22 233h266z" />
    <glyph glyph-name="afii10078" unicode="&#x43c;" horiz-adv-x="654" 
d="M596 0h-53l-50 435q-3 27 -5 65h-2q-8 -42 -15 -65l-127 -435h-40l-126 435q-7 23 -15 65h-2q-2 -43 -5 -65l-51 -435h-47l72 539h61l121 -419q8 -29 14 -66h2q6 37 14 66l121 419h61z" />
    <glyph glyph-name="afii10079" unicode="&#x43d;" 
d="M433 0h-54v261h-248v-261h-54v539h54v-241h248v241h54v-539z" />
    <glyph glyph-name="afii10080" unicode="&#x43e;" horiz-adv-x="508" 
d="M453 270q0 -127 -50 -203.5t-149 -76.5t-149 76.5t-50 203.5q0 126 50 202.5t149 76.5t149 -76.5t50 -202.5zM398 272q0 50 -7.5 91.5t-23.5 76t-45 54t-68 19.5q-52 0 -85 -34.5t-46 -86.5t-13 -120t13 -120.5t46.5 -87.5t84.5 -35t84.5 35t46.5 87.5t13 120.5z" />
    <glyph glyph-name="afii10081" unicode="&#x43f;" 
d="M433 0h-54v502h-248v-502h-54v539h356v-539z" />
    <glyph glyph-name="afii10082" unicode="&#x440;" horiz-adv-x="508" 
d="M453 281q0 -136 -63 -212.5t-171 -76.5q-47 0 -86 14v-221h-53v728q63 36 149 36q107 0 165.5 -73.5t58.5 -194.5zM399 275q0 239 -175 239q-54 0 -91 -18v-454q35 -13 77 -13q92 0 140.5 64.5t48.5 181.5z" />
    <glyph glyph-name="afii10083" unicode="&#x441;" horiz-adv-x="407" 
d="M367 24q-42 -34 -113 -34q-94 0 -146.5 78t-52.5 202t52.5 201.5t146.5 77.5q71 0 113 -34l-15 -34q-39 29 -94 29q-70 0 -109 -67.5t-39 -171.5q0 -102 39.5 -171t108.5 -69q54 0 93 29z" />
    <glyph glyph-name="afii10084" unicode="&#x442;" horiz-adv-x="392" 
d="M360 502h-137v-502h-54v502h-137v37h328v-37z" />
    <glyph glyph-name="afii10085" unicode="&#x443;" horiz-adv-x="490" 
d="M450 539q-43 -270 -155 -518l-106 -236h-60l112 233q-154 265 -201 521h58q47 -254 167 -470h2q93 225 130 470h53z" />
    <glyph glyph-name="afii10086" unicode="&#x444;" horiz-adv-x="676" 
d="M620 269q0 -125 -48.5 -202t-135.5 -77q-38 0 -73 23v-228h-50v228q-35 -23 -73 -23q-87 0 -135.5 77t-48.5 202t48.5 202t135.5 77q38 0 73 -23v260h50v-260q35 23 73 23q87 0 135.5 -77t48.5 -202zM567 270q0 107 -33.5 175t-97.5 68q-43 0 -73 -20v-446q30 -20 73 -20
q64 0 97.5 68t33.5 175zM313 47v446q-30 20 -73 20q-64 0 -97.5 -68t-33.5 -175t33.5 -175t97.5 -68q43 0 73 20z" />
    <glyph glyph-name="afii10087" unicode="&#x445;" horiz-adv-x="450" 
d="M417 0h-59l-133 244h-2l-134 -244h-56l166 282l-148 257h57l117 -216h2l119 216h53l-148 -254z" />
    <glyph glyph-name="afii10088" unicode="&#x446;" horiz-adv-x="519" 
d="M471 19l-10 -165h-39l-5 146h-340v539h54v-502h238v502h54v-502z" />
    <glyph glyph-name="afii10089" unicode="&#x447;" horiz-adv-x="494" 
d="M417 0h-54v237q-57 -37 -123 -37q-81 0 -125 40.5t-44 118.5v180h54v-180q0 -121 115 -121q66 0 123 35v266h54v-539z" />
    <glyph glyph-name="afii10090" unicode="&#x448;" horiz-adv-x="748" 
d="M671 0h-594v539h54v-502h216v502h54v-502h216v502h54v-539z" />
    <glyph glyph-name="afii10091" unicode="&#x449;" horiz-adv-x="767" 
d="M719 19l-10 -165h-39l-5 146h-588v539h54v-502h216v502h54v-502h216v502h54v-502z" />
    <glyph glyph-name="afii10092" unicode="&#x44a;" horiz-adv-x="580" 
d="M529 150q0 -75 -58.5 -117.5t-150.5 -42.5q-85 0 -152 37v475h-136v37h189v-239q51 14 96 14q93 0 152.5 -41.5t59.5 -122.5zM475 150q0 128 -158 128q-52 0 -96 -13v-218q43 -20 99 -20q72 0 113.5 32t41.5 91z" />
    <glyph glyph-name="afii10093" unicode="&#x44b;" horiz-adv-x="660" 
d="M439 150q0 -75 -58.5 -117.5t-150.5 -42.5q-85 0 -152 37v512h53v-239q51 14 96 14q93 0 152.5 -41.5t59.5 -122.5zM385 150q0 128 -158 128q-52 0 -96 -13v-218q43 -20 99 -20q72 0 113.5 32t41.5 91zM582 0h-54v539h54v-539z" />
    <glyph glyph-name="afii10094" unicode="&#x44c;" horiz-adv-x="490" 
d="M439 150q0 -75 -58.5 -117.5t-150.5 -42.5q-85 0 -152 37v512h53v-239q51 14 96 14q93 0 152.5 -41.5t59.5 -122.5zM385 150q0 128 -158 128q-52 0 -96 -13v-218q43 -20 99 -20q72 0 113.5 32t41.5 91z" />
    <glyph glyph-name="afii10095" unicode="&#x44d;" horiz-adv-x="454" 
d="M399 270q0 -123 -61 -201.5t-167 -78.5q-80 0 -131 36l18 36q47 -31 108 -31q85 0 132 64t49 166h-244v37h243q-6 96 -52 154t-128 58q-61 0 -108 -31l-18 34q51 36 131 36q106 0 167 -78t61 -201z" />
    <glyph glyph-name="afii10096" unicode="&#x44e;" horiz-adv-x="730" 
d="M675 270q0 -127 -50 -203.5t-149 -76.5q-97 0 -146.5 74t-51.5 197h-147v-261h-54v539h54v-241h148q6 115 54.5 183t142.5 68q99 0 149 -76.5t50 -202.5zM620 272q0 50 -7.5 91.5t-23.5 76t-45 54t-68 19.5q-52 0 -85 -34.5t-46 -86.5t-13 -120t13 -120.5t46.5 -87.5
t84.5 -35t84.5 35t46.5 87.5t13 120.5z" />
    <glyph glyph-name="afii10097" unicode="&#x44f;" horiz-adv-x="482" 
d="M403 0h-52v255q-93 -11 -133 -73l-120 -182h-62l129 186q26 39 63 61v1q-75 7 -125 46t-50 100q0 75 55 115t144 40q82 0 151 -36v-513zM351 280v217q-37 17 -99 17q-68 0 -107 -30t-39 -90q0 -56 47.5 -88t115.5 -32q52 0 82 6z" />
    <glyph glyph-name="uni0450" unicode="&#x450;" horiz-adv-x="507" 
d="M452 297l-345 -53q5 -100 50.5 -156.5t129.5 -56.5q76 0 129 33l17 -37q-59 -37 -147 -37q-109 0 -170 73t-61 208q0 128 54.5 203t149.5 75q92 0 142.5 -62t50.5 -190zM399 324q-3 188 -140 188q-74 0 -113.5 -63t-39.5 -170zM323 600h-34l-106 129q7 18 30 18
q19 0 34 -13z" />
    <glyph glyph-name="afii10071" unicode="&#x451;" horiz-adv-x="507" 
d="M452 297l-345 -53q5 -100 50.5 -156.5t129.5 -56.5q76 0 129 33l17 -37q-59 -37 -147 -37q-109 0 -170 73t-61 208q0 128 54.5 203t149.5 75q92 0 142.5 -62t50.5 -190zM399 324q-3 188 -140 188q-74 0 -113.5 -63t-39.5 -170zM221 650q0 -14 -10 -24t-24 -10t-24 10
t-10 24t10 24t24 10t24 -10t10 -24zM369 650q0 -14 -10 -24t-24 -10t-24 10t-10 24t10 24t24 10t24 -10t10 -24z" />
    <glyph glyph-name="afii10099" unicode="&#x452;" horiz-adv-x="514" 
d="M459 206q0 -85 -26 -165t-81 -143.5t-130 -86.5l-16 39q94 29 146 131t52 222q0 119 -40.5 190t-124.5 71q-57 0 -108 -27v-437h-54v613h-87v35h87v137h54v-137h188v-35h-188v-142q53 29 108 29q112 0 166 -80t54 -214z" />
    <glyph glyph-name="afii10100" unicode="&#x453;" horiz-adv-x="384" 
d="M352 502h-217v-502h-54v539h271v-37zM313 729l-106 -129h-34l76 134q15 13 34 13q23 0 30 -18z" />
    <glyph glyph-name="afii10101" unicode="&#x454;" horiz-adv-x="454" 
d="M414 26q-51 -36 -131 -36q-106 0 -167 78.5t-61 201.5t61 201t167 78q80 0 131 -36l-18 -34q-47 31 -108 31q-82 0 -128 -58t-52 -154h243v-37h-244q2 -102 49 -166t132 -64q61 0 108 31z" />
    <glyph glyph-name="afii10102" unicode="&#x455;" horiz-adv-x="404" 
d="M351 142q0 -62 -48.5 -107t-121.5 -45q-82 0 -134 36l17 37q48 -32 114 -32q53 0 86 31.5t33 78.5q0 42 -24.5 68t-59.5 40.5l-70 30t-59.5 48t-24.5 82.5q0 58 42 98.5t112 40.5q71 0 120 -36l-16 -35q-46 32 -102 32q-51 0 -77.5 -28t-26.5 -71q0 -38 24.5 -62.5
t60 -38.5t71 -30.5t60 -50.5t24.5 -87z" />
    <glyph glyph-name="afii10103" unicode="&#x456;" horiz-adv-x="222" 
d="M148 690q0 -15 -11 -26t-26 -11t-26 11t-11 26t11 26t26 11t26 -11t11 -26zM138 0h-54v539h54v-539z" />
    <glyph glyph-name="afii10104" unicode="&#x457;" horiz-adv-x="222" 
d="M138 0h-54v539h54v-539zM219 650q0 -14 -10 -24t-24 -10t-24 10t-10 24t10 24t24 10t24 -10t10 -24zM71 650q0 -14 -10 -24t-24 -10t-24 10t-10 24t10 24t24 10t24 -10t10 -24z" />
    <glyph glyph-name="afii10105" unicode="&#x458;" horiz-adv-x="227" 
d="M153 690q0 -15 -11 -26t-26 -11t-26 11t-11 26t11 26t26 11t26 -11t11 -26zM143 68q0 -113 -36 -183t-122 -106v37q58 39 81 94.5t23 151.5v477h54v-471z" />
    <glyph glyph-name="afii10106" unicode="&#x459;" horiz-adv-x="820" 
d="M769 150q0 -75 -57 -117.5t-146 -42.5q-82 0 -146 37l-45 475h-166l-19 -196q-6 -60 -13 -96.5t-23 -81t-47 -78t-78 -61.5l-15 44q66 43 90 107.5t33 165.5l22 233h265l24 -242q51 17 110 17q94 0 152.5 -40.5t58.5 -123.5zM715 150q0 128 -157 128q-60 0 -107 -15
l21 -217q43 -19 94 -19q69 0 109 32t40 91z" />
    <glyph glyph-name="afii10107" unicode="&#x45a;" horiz-adv-x="786" 
d="M735 150q0 -75 -58.5 -117.5t-150.5 -42.5q-85 0 -152 37v234h-244v-261h-53v539h53v-241h244v241h53v-239q51 14 96 14q93 0 152.5 -41.5t59.5 -122.5zM681 150q0 128 -158 128q-52 0 -96 -13v-218q43 -20 99 -20q72 0 113.5 32t41.5 91z" />
    <glyph glyph-name="afii10108" unicode="&#x45b;" horiz-adv-x="511" 
d="M434 0h-54v325q0 139 -123 139q-69 0 -126 -35v-429h-54v613h-87v35h87v137h54v-137h178v-35h-178v-150q57 37 127 37q86 0 131 -44.5t45 -130.5v-325z" />
    <glyph glyph-name="afii10109" unicode="&#x45c;" horiz-adv-x="474" 
d="M450 0h-63l-62 104q-41 69 -84 111t-109 66v-281h-53v539h53v-253h2l237 253h67l-244 -246q104 -46 180 -169zM350 729l-106 -129h-34l76 134q15 13 34 13q22 0 30 -18z" />
    <glyph glyph-name="uni045D" unicode="&#x45d;" horiz-adv-x="528" 
d="M451 0h-48v422q0 35 3 74h-2q-16 -38 -32 -66l-245 -430h-50v539h48v-404q0 -35 -3 -73h2q12 29 32 67l233 410h62v-539zM305 600h-34l-106 129q7 18 30 18q19 0 34 -13z" />
    <glyph glyph-name="afii10110" unicode="&#x45e;" horiz-adv-x="490" 
d="M450 539q-43 -270 -155 -518l-106 -236h-60l112 233q-154 265 -201 521h58q47 -254 167 -470h2q93 225 130 470h53zM358 717q0 -55 -33 -85t-78 -30t-78 30t-33 85l31 5q4 -40 26.5 -60t53.5 -20t53.5 20t26.5 60z" />
    <glyph glyph-name="afii10193" unicode="&#x45f;" horiz-adv-x="500" 
d="M423 0h-146l-7 -146h-39l-7 146h-147v539h54v-502h238v502h54v-539z" />
    <glyph glyph-name="afii10050" unicode="&#x490;" horiz-adv-x="450" 
d="M420 649h-274v-649h-57v688h279l12 132h40v-171z" />
    <glyph glyph-name="afii10098" unicode="&#x491;" horiz-adv-x="390" 
d="M358 502h-223v-502h-54v539h227l11 125h39v-162z" />
    <glyph glyph-name="uni0492" unicode="&#x492;" horiz-adv-x="456" 
d="M426 649h-268v-269h149v-35h-149v-345h-57v345h-75v35h75v308h325v-39z" />
    <glyph glyph-name="uni0493" unicode="&#x493;" horiz-adv-x="394" 
d="M362 502h-217v-205h128v-33h-128v-264h-54v264h-65v33h65v242h271v-37z" />
    <glyph glyph-name="uni0496" unicode="&#x496;" horiz-adv-x="820" 
d="M793 21l-10 -183h-42l-5 162h-34l-68 133q-46 91 -91 143t-120 82v-358h-53v358q-75 -30 -120 -82t-91 -143l-68 -133h-65l86 159q45 83 88 133t106 81l-266 315h68l260 -326h2v326h53v-326h2l260 326h68l-266 -315q63 -31 106 -81t88 -133l65 -121z" />
    <glyph glyph-name="uni0497" unicode="&#x497;" horiz-adv-x="726" 
d="M699 19l-10 -165h-39l-5 146h-35l-56 104q-39 73 -77 114t-103 64v-282h-50v282q-65 -23 -103 -64t-77 -114l-56 -104h-62l70 124q37 67 74 106t94 64l-224 245h65l217 -253h2v253h50v-253h2l217 253h65l-224 -245q57 -25 94 -64t74 -106l49 -87z" />
    <glyph glyph-name="uni049A" unicode="&#x49a;" horiz-adv-x="557" 
d="M530 21l-10 -183h-42l-5 162h-36l-71 133q-46 87 -96.5 140.5t-127.5 84.5v-358h-55v688h55v-326h2l275 326h71l-282 -315q66 -32 114 -83t93 -131l67 -120z" />
    <glyph glyph-name="uni049B" unicode="&#x49b;" horiz-adv-x="502" 
d="M475 19l-10 -165h-39l-5 146h-34l-62 104q-41 69 -84 111t-109 66v-281h-53v539h53v-253h2l237 253h67l-244 -246q104 -46 180 -169l54 -87z" />
    <glyph glyph-name="uni04A2" unicode="&#x4a2;" horiz-adv-x="599" 
d="M546 21l-10 -183h-42l-5 162h-48v338h-301v-338h-57v688h57v-311h301v311h57v-649z" />
    <glyph glyph-name="uni04A3" unicode="&#x4a3;" horiz-adv-x="529" 
d="M481 19l-10 -165h-39l-5 146h-48v261h-248v-261h-54v539h54v-241h248v241h54v-502z" />
    <glyph glyph-name="uni04AE" unicode="&#x4ae;" horiz-adv-x="486" 
d="M463 688l-191 -375v-313h-57v313l-190 375h63l157 -337h2l161 337h55z" />
    <glyph glyph-name="uni04AF" unicode="&#x4af;" horiz-adv-x="490" 
d="M455 539l-183 -539v-215h-54v215l-183 539h59l138 -438q10 -30 14 -60h2q4 30 14 60l140 438h53z" />
    <glyph glyph-name="uni04B0" unicode="&#x4b0;" horiz-adv-x="486" 
d="M463 688l-191 -375h120v-35h-120v-278h-57v278h-120v35h120l-190 375h63l157 -337h2l161 337h55z" />
    <glyph glyph-name="uni04B1" unicode="&#x4b1;" horiz-adv-x="490" 
d="M455 539l-183 -539h118v-33h-118v-182h-54v182h-118v33h118l-183 539h59l138 -438q10 -30 14 -60h2q4 30 14 60l140 438h53z" />
    <glyph glyph-name="uni04B2" unicode="&#x4b2;" horiz-adv-x="530" 
d="M503 21l-10 -183h-42l-5 162h-34l-157 319h-2l-163 -319h-58l194 358l-174 330h61l140 -285h2l146 285h55l-174 -324l173 -325z" />
    <glyph glyph-name="uni04B3" unicode="&#x4b3;" horiz-adv-x="471" 
d="M444 19l-10 -165h-39l-5 146h-32l-133 244h-2l-134 -244h-56l166 282l-148 257h57l117 -216h2l119 216h53l-148 -254l145 -248z" />
    <glyph glyph-name="uni04B6" unicode="&#x4b6;" horiz-adv-x="576" 
d="M523 21l-10 -183h-42l-5 162h-48v298q-62 -37 -143 -37q-91 0 -143.5 46t-52.5 133v248h57v-248q0 -66 36.5 -102t102.5 -36q86 0 143 35v351h57v-649z" />
    <glyph glyph-name="uni04B7" unicode="&#x4b7;" horiz-adv-x="513" 
d="M465 19l-10 -165h-39l-5 146h-48v237q-57 -37 -123 -37q-81 0 -125 40.5t-44 118.5v180h54v-180q0 -121 115 -121q66 0 123 35v266h54v-502z" />
    <glyph glyph-name="uni04BA" unicode="&#x4ba;" horiz-adv-x="558" 
d="M479 0h-57v261q0 73 -37 114.5t-108 41.5q-80 0 -137 -35v-382h-57v688h57v-269q61 38 137 38q97 0 149.5 -50.5t52.5 -145.5v-261z" />
    <glyph glyph-name="uni04BB" unicode="&#x4bb;" horiz-adv-x="511" 
d="M434 0h-54v381q0 129 -124 129q-68 0 -125 -35v-475h-54v785h54v-276q57 37 125 37q178 0 178 -165v-381z" />
    <glyph glyph-name="uni04C0" unicode="&#x4c0;" horiz-adv-x="231" 
d="M144 0h-57v688h57v-688z" />
    <glyph glyph-name="uni04CF" unicode="&#x4cf;" horiz-adv-x="224" 
d="M139 0h-54v785h54v-785z" />
    <glyph glyph-name="uni04D8" unicode="&#x4d8;" horiz-adv-x="594" 
d="M535 343q0 -165 -61 -259t-181 -94q-233 0 -234 343l418 68q-11 115 -64 185.5t-157 70.5q-89 0 -155 -42l-18 36q73 47 174 47q133 0 205.5 -91t72.5 -264zM479 363l-362 -60q0 -129 43.5 -199.5t132.5 -70.5q186 0 186 330z" />
    <glyph glyph-name="afii10846" unicode="&#x4d9;" horiz-adv-x="507" 
d="M452 268q0 -129 -52 -203.5t-149 -74.5q-196 0 -196 272l345 53q-8 86 -52 140.5t-128 54.5q-71 0 -129 -36l-17 35q64 40 147 40q111 0 171 -73t60 -208zM402 280l-294 -45q2 -95 38 -150.5t105 -55.5q75 0 113 66t38 185z" />
    <glyph glyph-name="uni04E2" unicode="&#x4e2;" horiz-adv-x="604" 
d="M521 0h-50v564q0 42 3 86h-2q-16 -40 -37 -81l-295 -569h-57v688h50v-545q0 -50 -3 -83h2q16 46 34 80l283 548h72v-688zM417 769h-232v39h232v-39z" />
    <glyph glyph-name="uni04E3" unicode="&#x4e3;" horiz-adv-x="528" 
d="M451 0h-48v422q0 35 3 74h-2q-16 -38 -32 -66l-245 -430h-50v539h48v-404q0 -35 -3 -73h2q12 29 32 67l233 410h62v-539zM379 620h-232v39h232v-39z" />
    <glyph glyph-name="uni04E8" unicode="&#x4e8;" horiz-adv-x="596" 
d="M537 344q0 -157 -59.5 -255.5t-179.5 -98.5t-179.5 98.5t-59.5 255.5t59.5 255.5t179.5 98.5t179.5 -98.5t59.5 -255.5zM479 377q-2 59 -13 107.5t-31.5 88.5t-55 62.5t-81.5 22.5t-81.5 -22.5t-55 -62.5t-31.5 -88.5t-13 -107.5h362zM480 338h-364q1 -85 17 -150.5
t58 -110.5t107 -45t107 45t58 110.5t17 150.5z" />
    <glyph glyph-name="uni04E9" unicode="&#x4e9;" horiz-adv-x="506" 
d="M451 270q0 -127 -49.5 -203.5t-148.5 -76.5t-148.5 76.5t-49.5 203.5t49.5 203t148.5 76t148.5 -76t49.5 -203zM397 298q-4 96 -38.5 155.5t-105.5 59.5t-105.5 -59t-38.5 -156h288zM398 261h-290q2 -103 36.5 -167.5t108.5 -64.5t108.5 64.5t36.5 167.5z" />
    <glyph glyph-name="uni04EE" unicode="&#x4ee;" horiz-adv-x="504" 
d="M474 688q-47 -241 -169 -473l-114 -215h-66l122 214q-166 239 -217 474h61q51 -230 183 -429h2q104 210 143 429h55zM370 769h-232v39h232v-39z" />
    <glyph glyph-name="uni04EF" unicode="&#x4ef;" horiz-adv-x="490" 
d="M450 539q-43 -270 -155 -518l-106 -236h-60l112 233q-154 265 -201 521h58q47 -254 167 -470h2q93 225 130 470h53zM363 620h-232v39h232v-39z" />
    <glyph glyph-name="Wgrave" unicode="&#x1e80;" horiz-adv-x="806" 
d="M764 688l-164 -688h-50l-131 539q-8 32 -14 82h-2q-6 -50 -14 -82l-131 -539h-50l-164 688h61l114 -545q10 -49 14 -85h2q8 49 16 85l133 545h48l129 -545q7 -30 15 -85h2q8 54 15 85l118 545h53zM432 749h-34l-106 129q8 18 30 18q19 0 34 -13z" />
    <glyph glyph-name="wgrave" unicode="&#x1e81;" horiz-adv-x="756" 
d="M716 539l-156 -539h-43l-125 432q-7 24 -12 59h-2q-5 -38 -12 -59l-125 -432h-43l-156 539h57l110 -425q8 -30 11 -60h2q6 35 13 60l123 425h49l121 -425q7 -26 12 -60h2q4 31 12 60l111 425h51zM407 600h-34l-106 129q7 18 30 18q19 0 34 -13z" />
    <glyph glyph-name="Wacute" unicode="&#x1e82;" horiz-adv-x="806" 
d="M764 688l-164 -688h-50l-131 539q-8 32 -14 82h-2q-6 -50 -14 -82l-131 -539h-50l-164 688h61l114 -545q10 -49 14 -85h2q8 49 16 85l133 545h48l129 -545q7 -30 15 -85h2q8 54 15 85l118 545h53zM524 878l-106 -129h-34l76 134q15 13 34 13q22 0 30 -18z" />
    <glyph glyph-name="wacute" unicode="&#x1e83;" horiz-adv-x="756" 
d="M716 539l-156 -539h-43l-125 432q-7 24 -12 59h-2q-5 -38 -12 -59l-125 -432h-43l-156 539h57l110 -425q8 -30 11 -60h2q6 35 13 60l123 425h49l121 -425q7 -26 12 -60h2q4 31 12 60l111 425h51zM498 729l-106 -129h-34l76 134q15 13 34 13q22 0 30 -18z" />
    <glyph glyph-name="Wdieresis" unicode="&#x1e84;" horiz-adv-x="806" 
d="M764 688l-164 -688h-50l-131 539q-8 32 -14 82h-2q-6 -50 -14 -82l-131 -539h-50l-164 688h61l114 -545q10 -49 14 -85h2q8 49 16 85l133 545h48l129 -545q7 -30 15 -85h2q8 54 15 85l118 545h53zM516 799q0 -14 -10 -24t-24 -10t-24 10t-10 24t10 24t24 10t24 -10
t10 -24zM368 799q0 -14 -10 -24t-24 -10t-24 10t-10 24t10 24t24 10t24 -10t10 -24z" />
    <glyph glyph-name="wdieresis" unicode="&#x1e85;" horiz-adv-x="756" 
d="M716 539l-156 -539h-43l-125 432q-7 24 -12 59h-2q-5 -38 -12 -59l-125 -432h-43l-156 539h57l110 -425q8 -30 11 -60h2q6 35 13 60l123 425h49l121 -425q7 -26 12 -60h2q4 31 12 60l111 425h51zM491 650q0 -14 -10 -24t-24 -10t-24 10t-10 24t10 24t24 10t24 -10t10 -24
zM343 650q0 -14 -10 -24t-24 -10t-24 10t-10 24t10 24t24 10t24 -10t10 -24z" />
    <glyph glyph-name="uni1E8A" unicode="&#x1e8a;" horiz-adv-x="508" 
d="M476 0h-64l-157 319h-2l-163 -319h-58l194 358l-174 330h61l140 -285h2l146 285h55l-174 -324zM294 802q0 -15 -11 -26t-26 -11t-26 11t-11 26t11 26t26 11t26 -11t11 -26z" />
    <glyph glyph-name="uni1E8B" unicode="&#x1e8b;" horiz-adv-x="450" 
d="M417 0h-59l-133 244h-2l-134 -244h-56l166 282l-148 257h57l117 -216h2l119 216h53l-148 -254zM264 653q0 -15 -11 -26t-26 -11t-26 11t-11 26t11 26t26 11t26 -11t11 -26z" />
    <glyph glyph-name="Ygrave" unicode="&#x1ef2;" horiz-adv-x="486" 
d="M463 688l-191 -375v-313h-57v313l-190 375h63l157 -337h2l161 337h55zM289 749h-34l-106 129q7 18 30 18q19 0 34 -13z" />
    <glyph glyph-name="ygrave" unicode="&#x1ef3;" horiz-adv-x="472" 
d="M438 539l-250 -754h-60l90 215l-182 539h58l131 -425q10 -30 13 -60h2q8 36 15 60l133 425h50zM285 600h-34l-106 129q7 18 30 18q19 0 34 -13z" />
    <glyph glyph-name="uni2007" unicode="&#x2007;" horiz-adv-x="514" 
 />
    <glyph glyph-name="uni2008" unicode="&#x2008;" horiz-adv-x="236" 
 />
    <glyph glyph-name="uni200B" unicode="&#x200b;" horiz-adv-x="0" 
 />
    <glyph glyph-name="endash" unicode="&#x2013;" horiz-adv-x="360" 
d="M360 316h-360v44h360v-44z" />
    <glyph glyph-name="emdash" unicode="&#x2014;" horiz-adv-x="720" 
d="M720 318h-720v40h720v-40z" />
    <glyph glyph-name="afii00208" unicode="&#x2015;" horiz-adv-x="720" 
d="M720 318h-720v40h720v-40z" />
    <glyph glyph-name="quoteleft" unicode="&#x2018;" horiz-adv-x="234" 
d="M186 785l-74 -207q-12 -17 -36 -17q-21 0 -26 17l102 207h34z" />
    <glyph glyph-name="quoteright" unicode="&#x2019;" horiz-adv-x="234" 
d="M184 774l-102 -207h-34l74 207q12 17 36 17q21 0 26 -17z" />
    <glyph glyph-name="quotesinglbase" unicode="&#x201a;" horiz-adv-x="234" 
d="M184 62l-102 -207h-34l74 207q12 17 36 17q21 0 26 -17z" />
    <glyph glyph-name="quotedblleft" unicode="&#x201c;" horiz-adv-x="388" 
d="M340 785l-74 -207q-12 -17 -36 -17q-21 0 -26 17l102 207h34zM186 785l-74 -207q-12 -17 -36 -17q-21 0 -26 17l102 207h34z" />
    <glyph glyph-name="quotedblright" unicode="&#x201d;" horiz-adv-x="388" 
d="M338 774l-102 -207h-34l74 207q12 17 36 17q21 0 26 -17zM184 774l-102 -207h-34l74 207q12 17 36 17q21 0 26 -17z" />
    <glyph glyph-name="quotedblbase" unicode="&#x201e;" horiz-adv-x="388" 
d="M338 62l-102 -207h-34l74 207q12 17 36 17q21 0 26 -17zM184 62l-102 -207h-34l74 207q12 17 36 17q21 0 26 -17z" />
    <glyph glyph-name="dagger" unicode="&#x2020;" horiz-adv-x="540" 
d="M480 490l-189 8l8 -713h-58l8 713l-189 -8v54l189 -8l-8 249h58l-8 -249l189 8v-54z" />
    <glyph glyph-name="daggerdbl" unicode="&#x2021;" horiz-adv-x="540" 
d="M480 200l-189 8l8 -423h-58l8 423l-189 -8v54l189 -8v252l-189 -8v54l189 -8l-8 249h58l-8 -249l189 8v-54l-189 8v-252l189 8v-54z" />
    <glyph glyph-name="bullet" unicode="&#x2022;" horiz-adv-x="290" 
d="M215 353q0 -29 -20.5 -49.5t-49.5 -20.5t-49.5 20.5t-20.5 49.5t20.5 49.5t49.5 20.5t49.5 -20.5t20.5 -49.5z" />
    <glyph glyph-name="ellipsis" unicode="&#x2026;" horiz-adv-x="708" 
d="M632 37q0 -17 -12.5 -29.5t-29.5 -12.5t-29.5 12.5t-12.5 29.5t12.5 29.5t29.5 12.5t29.5 -12.5t12.5 -29.5zM396 37q0 -17 -12.5 -29.5t-29.5 -12.5t-29.5 12.5t-12.5 29.5t12.5 29.5t29.5 12.5t29.5 -12.5t12.5 -29.5zM160 37q0 -17 -12.5 -29.5t-29.5 -12.5
t-29.5 12.5t-12.5 29.5t12.5 29.5t29.5 12.5t29.5 -12.5t12.5 -29.5z" />
    <glyph glyph-name="perthousand" unicode="&#x2030;" horiz-adv-x="1110" 
d="M1046 186q0 -80 -31.5 -138t-93.5 -58t-93.5 58t-31.5 138t31.5 138t93.5 58t93.5 -58t31.5 -138zM715 186q0 -80 -31.5 -138t-93.5 -58t-93.5 58t-31.5 138t31.5 138t93.5 58t93.5 -58t31.5 -138zM526 682l-237 -688l-36 12l237 688zM314 502q0 -80 -31.5 -138
t-93.5 -58t-93.5 58t-31.5 138t31.5 138t93.5 58t93.5 -58t31.5 -138zM1001 187q0 68 -18.5 116t-61.5 48t-61.5 -48t-18.5 -116t18.5 -116t61.5 -48t61.5 48t18.5 116zM670 187q0 68 -18.5 116t-61.5 48t-61.5 -48t-18.5 -116t18.5 -116t61.5 -48t61.5 48t18.5 116z
M269 503q0 68 -18.5 116t-61.5 48t-61.5 -48t-18.5 -116t18.5 -116t61.5 -48t61.5 48t18.5 116z" />
    <glyph glyph-name="guilsinglleft" unicode="&#x2039;" horiz-adv-x="290" 
d="M220 137l-34 -22l-126 219l126 219l34 -22l-114 -197z" />
    <glyph glyph-name="guilsinglright" unicode="&#x203a;" horiz-adv-x="290" 
d="M230 334l-126 -219l-34 22l114 197l-114 197l34 22z" />
    <glyph glyph-name="fraction" unicode="&#x2044;" horiz-adv-x="130" 
d="M234 680l-320 -689l-34 17l320 689z" />
    <glyph glyph-name="uni2070" unicode="&#x2070;" horiz-adv-x="320" 
d="M283 682q0 -42 -6 -78t-20 -67.5t-38.5 -49.5t-58.5 -18t-58.5 18t-38.5 49.5t-20 67.5t-6 78t6 78t20 67.5t38.5 49.5t58.5 18t58.5 -18t38.5 -49.5t20 -67.5t6 -78zM238 683q0 181 -78 181t-78 -181t78 -181t78 181z" />
    <glyph glyph-name="uni2074" unicode="&#x2074;" horiz-adv-x="320" 
d="M282 573h-34v-97h-41v97h-170v31l169 284h42v-286h34v-29zM210 842h-2q-14 -34 -28 -57l-107 -183h135v178q0 16 2 62z" />
    <glyph glyph-name="uni2075" unicode="&#x2075;" horiz-adv-x="320" 
d="M268 593q0 -51 -38 -87.5t-97 -36.5q-63 0 -101 21l13 32q34 -18 82 -18q42 0 67.5 26t25.5 63q0 97 -109 97q-31 0 -58 -4l22 202h183v-37h-151l-15 -134q20 2 36 2q65 0 102.5 -33.5t37.5 -92.5z" />
    <glyph glyph-name="uni2076" unicode="&#x2076;" horiz-adv-x="320" 
d="M284 596q0 -52 -31.5 -89.5t-90.5 -37.5q-60 0 -92 40.5t-32 114.5q0 104 57.5 173.5t146.5 96.5l12 -31q-121 -40 -162 -154q31 12 61 12q60 0 95.5 -32.5t35.5 -92.5zM240 596q0 97 -94 97q-32 0 -60 -11q-5 -22 -5 -59q0 -122 82 -122q38 0 57.5 27t19.5 68z" />
    <glyph glyph-name="uni2077" unicode="&#x2077;" horiz-adv-x="320" 
d="M287 888l-56 -129q-78 -182 -105 -283h-57l163 374h-194v38h249z" />
    <glyph glyph-name="uni2078" unicode="&#x2078;" horiz-adv-x="320" 
d="M284 572q0 -45 -35.5 -74t-88.5 -29q-51 0 -87.5 28t-36.5 75q0 42 24 67.5t70 51.5q-39 22 -60 45.5t-21 61.5q0 43 32 70t79 27t79 -27t32 -70q0 -37 -20.5 -60t-59.5 -45q44 -24 68.5 -51t24.5 -70zM232 798q0 30 -20.5 48.5t-51.5 18.5q-32 0 -51.5 -18t-19.5 -49
q0 -30 18 -49t55 -40q34 19 52 39t18 50zM240 572q0 37 -20.5 59t-60.5 44q-40 -22 -60.5 -44t-20.5 -58q0 -33 24 -52.5t58 -19.5q35 0 57.5 20t22.5 51z" />
    <glyph glyph-name="uni2079" unicode="&#x2079;" horiz-adv-x="320" 
d="M282 740q0 -104 -57.5 -173.5t-146.5 -96.5l-12 31q121 40 162 154q-31 -12 -61 -12q-60 0 -95.5 32.5t-35.5 92.5q0 54 32.5 90.5t89.5 36.5q60 0 92 -40.5t32 -114.5zM239 742q0 122 -82 122q-38 0 -57.5 -27.5t-19.5 -67.5q0 -97 94 -97q32 0 60 11q5 22 5 59z" />
    <glyph glyph-name="uni207A" unicode="&#x207a;" horiz-adv-x="348" 
d="M292 668h-99v-100h-38v100h-99v35h99v99h38v-99h99v-35z" />
    <glyph glyph-name="uni207B" unicode="&#x207b;" horiz-adv-x="348" 
d="M292 668h-236v35h236v-35z" />
    <glyph glyph-name="uni207C" unicode="&#x207c;" horiz-adv-x="348" 
d="M292 722h-236v35h236v-35zM292 614h-236v35h236v-35z" />
    <glyph glyph-name="uni207D" unicode="&#x207d;" horiz-adv-x="204" 
d="M186 408l-25 -19q-121 127 -121 293t121 293l25 -19q-100 -120 -100 -274t100 -274z" />
    <glyph glyph-name="uni207E" unicode="&#x207e;" horiz-adv-x="204" 
d="M164 682q0 -166 -121 -293l-25 19q100 120 100 274t-100 274l25 19q121 -127 121 -293z" />
    <glyph glyph-name="uni207F" unicode="&#x207f;" horiz-adv-x="358" 
d="M300 476h-45v244q0 81 -80 81q-43 0 -72 -12v-313h-45v331q55 24 117 24q125 0 125 -110v-245z" />
    <glyph glyph-name="uni2080" unicode="&#x2080;" horiz-adv-x="320" 
d="M283 -9q0 -42 -6 -78t-20 -67.5t-38.5 -49.5t-58.5 -18t-58.5 18t-38.5 49.5t-20 67.5t-6 78t6 78t20 67.5t38.5 49.5t58.5 18t58.5 -18t38.5 -49.5t20 -67.5t6 -78zM238 -8q0 181 -78 181t-78 -181t78 -181t78 181z" />
    <glyph glyph-name="uni2081" unicode="&#x2081;" horiz-adv-x="320" 
d="M217 -215h-46v350q-38 -24 -107 -30l-6 28q96 15 128 64h31v-412z" />
    <glyph glyph-name="uni2082" unicode="&#x2082;" horiz-adv-x="320" 
d="M262 -215h-241l150 213q37 53 37 95q0 76 -86 76q-38 0 -76 -18l-13 31q42 22 98 22q62 0 93.5 -29t31.5 -80q0 -47 -51 -116l-115 -156h172v-38z" />
    <glyph glyph-name="uni2083" unicode="&#x2083;" horiz-adv-x="320" 
d="M268 -97q0 -56 -38.5 -90.5t-96.5 -34.5q-63 0 -102 21l13 32q34 -18 82 -18q44 0 69 24t25 66q0 46 -30.5 68t-78.5 22h-14v28q48 4 77.5 26.5t29.5 58.5q0 33 -20.5 48.5t-52.5 15.5q-42 0 -78 -17l-13 30q42 21 97 21q48 0 80.5 -24.5t32.5 -67.5q0 -67 -78 -96v-2
q96 -22 96 -111z" />
    <glyph glyph-name="uni2084" unicode="&#x2084;" horiz-adv-x="320" 
d="M282 -118h-34v-97h-41v97h-170v31l169 284h42v-286h34v-29zM210 151h-2q-14 -34 -28 -57l-107 -183h135v178q0 16 2 62z" />
    <glyph glyph-name="uni2085" unicode="&#x2085;" horiz-adv-x="320" 
d="M268 -98q0 -51 -38 -87.5t-97 -36.5q-63 0 -101 21l13 32q34 -18 82 -18q42 0 67.5 26t25.5 63q0 97 -109 97q-31 0 -58 -4l22 202h183v-37h-151l-15 -134q20 2 36 2q65 0 102.5 -33.5t37.5 -92.5z" />
    <glyph glyph-name="uni2086" unicode="&#x2086;" horiz-adv-x="320" 
d="M284 -95q0 -52 -31.5 -89.5t-90.5 -37.5q-60 0 -92 40.5t-32 114.5q0 104 57.5 173.5t146.5 96.5l12 -31q-121 -40 -162 -154q31 12 61 12q60 0 95.5 -32.5t35.5 -92.5zM240 -95q0 97 -94 97q-32 0 -60 -11q-5 -22 -5 -59q0 -122 82 -122q38 0 57.5 27t19.5 68z" />
    <glyph glyph-name="uni2087" unicode="&#x2087;" horiz-adv-x="320" 
d="M287 197l-56 -129q-78 -182 -105 -283h-57l163 374h-194v38h249z" />
    <glyph glyph-name="uni2088" unicode="&#x2088;" horiz-adv-x="320" 
d="M284 -119q0 -45 -35.5 -74t-88.5 -29q-51 0 -87.5 28t-36.5 75q0 42 24 67.5t70 51.5q-39 22 -60 45.5t-21 61.5q0 43 32 70t79 27t79 -27t32 -70q0 -37 -20.5 -60t-59.5 -45q44 -24 68.5 -51t24.5 -70zM232 107q0 30 -20.5 48.5t-51.5 18.5q-32 0 -51.5 -18t-19.5 -49
q0 -30 18 -49t55 -40q34 19 52 39t18 50zM240 -119q0 37 -20.5 59t-60.5 44q-40 -22 -60.5 -44t-20.5 -58q0 -33 24 -52.5t58 -19.5q35 0 57.5 20t22.5 51z" />
    <glyph glyph-name="uni2089" unicode="&#x2089;" horiz-adv-x="320" 
d="M282 49q0 -104 -57.5 -173.5t-146.5 -96.5l-12 31q121 40 162 154q-31 -12 -61 -12q-60 0 -95.5 32.5t-35.5 92.5q0 52 31.5 89.5t90.5 37.5q60 0 92 -40.5t32 -114.5zM239 51q0 122 -82 122q-38 0 -57.5 -27t-19.5 -68q0 -97 94 -97q32 0 60 11q5 22 5 59z" />
    <glyph glyph-name="uni208A" unicode="&#x208a;" horiz-adv-x="348" 
d="M292 -23h-99v-100h-38v100h-99v35h99v99h38v-99h99v-35z" />
    <glyph glyph-name="uni208B" unicode="&#x208b;" horiz-adv-x="348" 
d="M292 -23h-236v35h236v-35z" />
    <glyph glyph-name="uni208C" unicode="&#x208c;" horiz-adv-x="348" 
d="M292 31h-236v35h236v-35zM292 -77h-236v35h236v-35z" />
    <glyph glyph-name="uni208D" unicode="&#x208d;" horiz-adv-x="204" 
d="M186 -283l-25 -19q-121 127 -121 293t121 293l25 -19q-100 -120 -100 -274t100 -274z" />
    <glyph glyph-name="uni208E" unicode="&#x208e;" horiz-adv-x="204" 
d="M164 -9q0 -166 -121 -293l-25 19q100 120 100 274t-100 274l25 19q121 -127 121 -293z" />
    <glyph glyph-name="Euro" unicode="&#x20ac;" horiz-adv-x="630" 
d="M578 24q-53 -37 -139 -37q-117 0 -185.5 76t-88.5 193h-103v34h99q-3 27 -3 54q0 32 5 74h-101v34h107q23 109 91 179t179 70q86 0 139 -37l-18 -34q-49 31 -116 31q-93 0 -147 -58t-73 -151h263v-34h-268q-5 -40 -5 -73q0 -28 3 -55h270v-34h-266q17 -99 71.5 -163
t151.5 -64q67 0 116 29z" />
    <glyph glyph-name="uni20B4" unicode="&#x20b4;" 
d="M460 256h-284q-26 -41 -26 -96q0 -53 38.5 -91t92.5 -38q68 0 112 31l19 -35q-51 -37 -131 -37q-77 0 -129.5 48t-52.5 121q0 55 21 97h-70v34h92q25 30 85 69t81 59h-258v34h286q22 36 22 86q0 55 -34.5 88t-91.5 33q-64 0 -110 -32l-19 34q56 37 129 37q78 0 127 -43
t49 -116q0 -48 -18 -87h70v-34h-90q-24 -31 -85 -71t-80 -57h255v-34z" />
    <glyph glyph-name="afii61289" unicode="&#x2113;" horiz-adv-x="273" 
d="M239 2q-15 -5 -40 -5q-50 0 -82 32t-32 91v665h54v-665q0 -85 75 -85q15 0 25 3v-36z" />
    <glyph glyph-name="afii61352" unicode="&#x2116;" horiz-adv-x="960" 
d="M904 320q0 -81 -34.5 -135.5t-105.5 -54.5t-105.5 54.5t-34.5 135.5t34.5 135.5t105.5 54.5t105.5 -54.5t34.5 -135.5zM894 0h-260v37h260v-37zM531 0h-58l-308 574q-17 31 -35 76h-2q3 -28 3 -86v-564h-48v688h73l295 -554q18 -33 33 -74h2q-3 45 -3 83v545h48v-688z
M858 321q0 67 -21.5 111.5t-72.5 44.5t-72.5 -44.5t-21.5 -111.5t21.5 -111.5t72.5 -44.5t72.5 44.5t21.5 111.5z" />
    <glyph glyph-name="uni2117" unicode="&#x2117;" horiz-adv-x="830" 
d="M770 344q0 -147 -104 -251t-251 -104t-251 104t-104 251t104 251t251 104t251 -104t104 -251zM722 345q0 130 -89.5 223t-217.5 93t-217.5 -93t-89.5 -223t89.5 -223t217.5 -93t217.5 93t89.5 223zM556 433q0 -53 -34 -87.5t-103 -34.5q-34 0 -49 3v-175h-49v393
q41 22 99 22q68 0 102 -33t34 -88zM508 434q0 46 -22 68t-69 22q-27 0 -47 -8v-172q30 -3 42 -3q96 0 96 93z" />
    <glyph glyph-name="trademark" unicode="&#x2122;" horiz-adv-x="750" 
d="M700 288h-45l-34 317q-3 28 -3 45h-2q-6 -27 -11 -45l-95 -317h-37l-94 317q-4 14 -12 45h-2q0 -22 -3 -45l-36 -317h-39l51 400h53l91 -302q6 -20 11 -49h2q4 28 10 49l91 302h53zM262 655h-93v-367h-46v367h-93v33h232v-33z" />
    <glyph glyph-name="Omega" unicode="&#x2126;" horiz-adv-x="604" 
d="M546 0h-203v38q144 153 144 348q0 109 -48 190.5t-137 81.5t-137 -81.5t-48 -190.5q0 -195 144 -348v-38h-203v39h152q-151 158 -151 347q0 130 64.5 221t178.5 91t178.5 -91t64.5 -221q0 -189 -151 -347h152v-39z" />
    <glyph glyph-name="estimated" unicode="&#x212e;" horiz-adv-x="878" 
d="M838 330h-633q5 -150 80 -224t184 -74q88 0 168.5 44.5t119.5 118.5l36 -23q-47 -84 -137 -134t-217 -50q-96 0 -174 30.5t-126 81.5t-73.5 113.5t-25.5 130.5t25.5 130.5t73.5 113.5t126 81.5t174 30.5t174 -30.5t126 -81.5t73.5 -113.5t25.5 -130.5v-14zM672 371
q-8 138 -76 214.5t-157 76.5t-157 -76.5t-76 -214.5h466z" />
    <glyph glyph-name="uni2150" unicode="&#x2150;" horiz-adv-x="770" 
d="M726 412l-56 -129q-78 -182 -105 -283h-57l163 374h-188v38h243zM532 680l-320 -689l-34 17l320 689zM217 276h-46v350q-38 -24 -107 -30l-6 28q96 15 128 64h31v-412z" />
    <glyph glyph-name="uni2151" unicode="&#x2151;" horiz-adv-x="770" 
d="M720 264q0 -104 -57.5 -173.5t-146.5 -96.5l-12 31q121 40 162 154q-31 -12 -61 -12q-60 0 -95.5 32.5t-35.5 92.5q0 54 32.5 90.5t89.5 36.5q60 0 92 -40.5t32 -114.5zM539 680l-320 -689l-34 17l320 689zM217 276h-46v350q-38 -24 -107 -30l-6 28q96 15 128 64h31v-412
zM677 266q0 122 -82 122q-38 0 -57.5 -27.5t-19.5 -67.5q0 -97 94 -97q32 0 60 11q5 22 5 59z" />
    <glyph glyph-name="uni2152" unicode="&#x2152;" horiz-adv-x="1040" 
d="M990 206q0 -42 -6 -78t-20 -67.5t-38.5 -49.5t-58.5 -18t-58.5 18t-38.5 49.5t-20 67.5t-6 78t6 78t20 67.5t38.5 49.5t58.5 18t58.5 -18t38.5 -49.5t20 -67.5t6 -78zM634 0h-46v350q-38 -24 -107 -30l-6 28q96 15 128 64h31v-412zM540 680l-320 -689l-34 17l320 689z
M217 276h-46v350q-38 -24 -107 -30l-6 28q96 15 128 64h31v-412zM945 207q0 181 -78 181t-78 -181t78 -181t78 181z" />
    <glyph glyph-name="onethird" unicode="&#x2153;" horiz-adv-x="770" 
d="M718 118q0 -56 -38.5 -90.5t-96.5 -34.5q-63 0 -102 21l13 32q34 -18 82 -18q44 0 69 24t25 66q0 46 -30.5 68t-78.5 22h-14v28q48 4 77.5 26.5t29.5 58.5q0 33 -20.5 48.5t-52.5 15.5q-42 0 -78 -17l-13 30q42 21 97 21q48 0 80.5 -24.5t32.5 -67.5q0 -67 -78 -96v-2
q96 -22 96 -111zM538 680l-320 -689l-34 17l320 689zM217 276h-46v350q-38 -24 -107 -30l-6 28q96 15 128 64h31v-412z" />
    <glyph glyph-name="twothirds" unicode="&#x2154;" horiz-adv-x="770" 
d="M560 680l-320 -689l-34 17l320 689zM262 276h-241l150 213q37 53 37 95q0 76 -86 76q-38 0 -76 -18l-13 31q42 22 98 22q62 0 93.5 -29t31.5 -80q0 -47 -51 -116l-115 -156h172v-38zM718 118q0 -56 -38.5 -90.5t-96.5 -34.5q-63 0 -102 21l13 32q34 -18 82 -18
q44 0 69 24t25 66q0 46 -30.5 68t-78.5 22h-14v28q48 4 77.5 26.5t29.5 58.5q0 33 -20.5 48.5t-52.5 15.5q-42 0 -78 -17l-13 30q42 21 97 21q48 0 80.5 -24.5t32.5 -67.5q0 -67 -78 -96v-2q96 -22 96 -111z" />
    <glyph glyph-name="uni2155" unicode="&#x2155;" horiz-adv-x="770" 
d="M217 276h-46v350q-38 -24 -107 -30l-6 28q96 15 128 64h31v-412zM548 680l-320 -689l-34 17l320 689zM718 117q0 -51 -38 -87.5t-97 -36.5q-63 0 -101 21l13 32q34 -18 82 -18q42 0 67.5 26t25.5 63q0 97 -109 97q-31 0 -58 -4l22 202h183v-37h-151l-15 -134q20 2 36 2
q65 0 102.5 -33.5t37.5 -92.5z" />
    <glyph glyph-name="uni2156" unicode="&#x2156;" horiz-adv-x="770" 
d="M569 680l-320 -689l-34 17l320 689zM718 117q0 -51 -38 -87.5t-97 -36.5q-63 0 -101 21l13 32q34 -18 82 -18q42 0 67.5 26t25.5 63q0 97 -109 97q-31 0 -58 -4l22 202h183v-37h-151l-15 -134q20 2 36 2q65 0 102.5 -33.5t37.5 -92.5zM262 276h-241l150 213q37 53 37 95
q0 76 -86 76q-38 0 -76 -18l-13 31q42 22 98 22q62 0 93.5 -29t31.5 -80q0 -47 -51 -116l-115 -156h172v-38z" />
    <glyph glyph-name="uni2157" unicode="&#x2157;" horiz-adv-x="770" 
d="M554 680l-320 -689l-34 17l320 689zM718 117q0 -51 -38 -87.5t-97 -36.5q-63 0 -101 21l13 32q34 -18 82 -18q42 0 67.5 26t25.5 63q0 97 -109 97q-31 0 -58 -4l22 202h183v-37h-151l-15 -134q18 2 36 2q65 0 102.5 -33.5t37.5 -92.5zM269 394q0 -56 -38.5 -90.5
t-96.5 -34.5q-63 0 -102 21l13 32q34 -18 82 -18q44 0 69 24t25 66q0 46 -30.5 68t-78.5 22h-14v28q48 4 77.5 26.5t29.5 58.5q0 33 -20.5 48.5t-52.5 15.5q-42 0 -78 -17l-13 30q42 21 97 21q48 0 80.5 -24.5t32.5 -67.5q0 -67 -78 -96v-2q96 -22 96 -111z" />
    <glyph glyph-name="uni2158" unicode="&#x2158;" horiz-adv-x="770" 
d="M564 680l-320 -689l-34 17l320 689zM718 117q0 -51 -38 -87.5t-97 -36.5q-63 0 -101 21l13 32q34 -18 82 -18q42 0 67.5 26t25.5 63q0 97 -109 97q-31 0 -58 -4l22 202h183v-37h-151l-15 -134q18 2 36 2q65 0 102.5 -33.5t37.5 -92.5zM282 373h-34v-97h-41v97h-170v31
l169 284h42v-286h34v-29zM210 642h-2q-13 -32 -28 -57l-107 -183h135v178q0 26 2 62z" />
    <glyph glyph-name="uni2159" unicode="&#x2159;" horiz-adv-x="770" 
d="M217 276h-46v350q-38 -24 -107 -30l-6 28q96 15 128 64h31v-412zM557 680l-320 -689l-34 17l320 689zM718 120q0 -52 -31.5 -89.5t-90.5 -37.5q-60 0 -92 40.5t-32 114.5q0 104 57.5 173.5t146.5 96.5l12 -31q-121 -40 -162 -154q31 12 61 12q60 0 95.5 -32.5t35.5 -92.5
zM674 120q0 97 -94 97q-32 0 -60 -11q-5 -22 -5 -59q0 -122 82 -122q38 0 57.5 27t19.5 68z" />
    <glyph glyph-name="uni215A" unicode="&#x215a;" horiz-adv-x="770" 
d="M570 680l-320 -689l-34 17l320 689zM718 120q0 -52 -31.5 -89.5t-90.5 -37.5q-60 0 -92 40.5t-32 114.5q0 104 57.5 173.5t146.5 96.5l12 -31q-121 -40 -162 -154q31 12 61 12q60 0 95.5 -32.5t35.5 -92.5zM674 120q0 97 -94 97q-32 0 -60 -11q-5 -22 -5 -59
q0 -122 82 -122q38 0 57.5 27t19.5 68zM269 393q0 -51 -38 -87.5t-97 -36.5q-64 0 -101 21l13 32q34 -18 82 -18q42 0 67.5 26t25.5 63q0 97 -109 97q-31 0 -58 -4l22 202h183v-37h-151l-15 -134q20 2 36 2q65 0 102.5 -33.5t37.5 -92.5z" />
    <glyph glyph-name="oneeighth" unicode="&#x215b;" horiz-adv-x="770" 
d="M217 276h-46v350q-38 -24 -107 -30l-6 28q96 15 128 64h31v-412zM542 680l-320 -689l-34 17l320 689zM719 96q0 -45 -35.5 -74t-88.5 -29q-51 0 -87.5 28t-36.5 75q0 42 24 67.5t70 51.5q-39 22 -60 45.5t-21 61.5q0 43 32 70t79 27t79 -27t32 -70q0 -37 -20.5 -60
t-59.5 -45q44 -24 68.5 -51t24.5 -70zM667 322q0 30 -20.5 48.5t-51.5 18.5q-32 0 -51.5 -18t-19.5 -49q0 -30 18 -49t55 -40q34 19 52 39t18 50zM675 96q0 37 -20.5 59t-60.5 44q-40 -22 -60.5 -44t-20.5 -58q0 -33 24 -52.5t58 -19.5q35 0 57.5 20t22.5 51z" />
    <glyph glyph-name="threeeighths" unicode="&#x215c;" horiz-adv-x="770" 
d="M549 680l-320 -689l-34 17l320 689zM719 96q0 -45 -35.5 -74t-88.5 -29q-51 0 -87.5 28t-36.5 75q0 42 24 67.5t70 51.5q-39 22 -60 45.5t-21 61.5q0 43 32 70t79 27t79 -27t32 -70q0 -37 -20.5 -60t-59.5 -45q44 -24 68.5 -51t24.5 -70zM667 322q0 30 -20.5 48.5
t-51.5 18.5q-32 0 -51.5 -18t-19.5 -49q0 -30 18 -49t55 -40q34 19 52 39t18 50zM675 96q0 37 -20.5 59t-60.5 44q-40 -22 -60.5 -44t-20.5 -58q0 -33 24 -52.5t58 -19.5q35 0 57.5 20t22.5 51zM269 394q0 -56 -38.5 -90.5t-96.5 -34.5q-63 0 -102 21l13 32q34 -18 82 -18
q44 0 69 24t25 66q0 46 -30.5 68t-78.5 22h-14v28q48 4 77.5 26.5t29.5 58.5q0 33 -20.5 48.5t-52.5 15.5q-42 0 -78 -17l-13 30q42 21 97 21q48 0 80.5 -24.5t32.5 -67.5q0 -67 -78 -96v-2q96 -22 96 -111z" />
    <glyph glyph-name="fiveeighths" unicode="&#x215d;" horiz-adv-x="770" 
d="M552 680l-320 -689l-34 17l320 689zM719 96q0 -45 -35.5 -74t-88.5 -29q-51 0 -87.5 28t-36.5 75q0 42 24 67.5t70 51.5q-39 22 -60 45.5t-21 61.5q0 43 32 70t79 27t79 -27t32 -70q0 -37 -20.5 -60t-59.5 -45q44 -24 68.5 -51t24.5 -70zM667 322q0 30 -20.5 48.5
t-51.5 18.5q-32 0 -51.5 -18t-19.5 -49q0 -30 18 -49t55 -40q34 19 52 39t18 50zM675 96q0 37 -20.5 59t-60.5 44q-40 -22 -60.5 -44t-20.5 -58q0 -33 24 -52.5t58 -19.5q35 0 57.5 20t22.5 51zM269 393q0 -51 -38 -87.5t-97 -36.5q-64 0 -101 21l13 32q34 -18 82 -18
q42 0 67.5 26t25.5 63q0 97 -109 97q-31 0 -58 -4l22 202h183v-37h-151l-15 -134q20 2 36 2q65 0 102.5 -33.5t37.5 -92.5z" />
    <glyph glyph-name="seveneighths" unicode="&#x215e;" horiz-adv-x="770" 
d="M515 680l-320 -689l-34 17l320 689zM719 96q0 -45 -35.5 -74t-88.5 -29q-51 0 -87.5 28t-36.5 75q0 42 24 67.5t70 51.5q-39 22 -60 45.5t-21 61.5q0 43 32 70t79 27t79 -27t32 -70q0 -37 -20.5 -60t-59.5 -45q44 -24 68.5 -51t24.5 -70zM667 322q0 30 -20.5 48.5
t-51.5 18.5q-32 0 -51.5 -18t-19.5 -49q0 -30 18 -49t55 -40q34 19 52 39t18 50zM675 96q0 37 -20.5 59t-60.5 44q-40 -22 -60.5 -44t-20.5 -58q0 -33 24 -52.5t58 -19.5q35 0 57.5 20t22.5 51zM289 688l-56 -129q-78 -182 -105 -283h-57l163 374h-194v38h249z" />
    <glyph glyph-name="uni215F" unicode="&#x215f;" horiz-adv-x="438" 
d="M217 276h-46v350q-38 -24 -107 -30l-6 28q96 15 128 64h31v-412zM542 680l-320 -689l-34 17l320 689z" />
    <glyph glyph-name="uni2189" unicode="&#x2189;" horiz-adv-x="770" 
d="M724 118q0 -56 -38.5 -90.5t-96.5 -34.5q-63 0 -102 21l13 32q34 -18 82 -18q44 0 69 24t25 66q0 46 -30.5 68t-78.5 22h-14v28q48 4 77.5 26.5t29.5 58.5q0 33 -20.5 48.5t-52.5 15.5q-42 0 -78 -17l-13 30q42 21 97 21q48 0 80.5 -24.5t32.5 -67.5q0 -67 -78 -96v-2
q96 -22 96 -111zM560 680l-320 -689l-34 17l320 689zM292 482q0 -42 -6 -78t-20 -67.5t-38.5 -49.5t-58.5 -18t-58.5 18t-38.5 49.5t-20 67.5t-6 78t6 78t20 67.5t38.5 49.5t58.5 18t58.5 -18t38.5 -49.5t20 -67.5t6 -78zM247 483q0 181 -78 181t-78 -181t78 -181t78 181z
" />
    <glyph glyph-name="arrowleft" unicode="&#x2190;" horiz-adv-x="940" 
d="M944 318h-787l212 -212l-29 -28l-260 260l260 260l29 -28l-212 -212h787v-40z" />
    <glyph glyph-name="arrowup" unicode="&#x2191;" horiz-adv-x="680" 
d="M600 535l-28 -29l-210 210v-716h-44v716l-210 -210l-28 29l260 260z" />
    <glyph glyph-name="arrowright" unicode="&#x2192;" horiz-adv-x="940" 
d="M860 338l-260 -260l-29 28l212 212h-787v40h787l-212 212l29 28z" />
    <glyph glyph-name="arrowdown" unicode="&#x2193;" horiz-adv-x="680" 
d="M600 250l-260 -260l-260 260l28 29l210 -210v716h44v-716l210 210z" />
    <glyph glyph-name="arrowboth" unicode="&#x2194;" horiz-adv-x="1200" 
d="M1120 338l-260 -260l-29 28l212 212h-886l212 -212l-29 -28l-260 260l260 260l29 -28l-212 -212h886l-212 212l29 28z" />
    <glyph glyph-name="uni2196" unicode="&#x2196;" horiz-adv-x="680" 
d="M640 164l-31 -31l-482 481v-297h-42v371h358v-39h-289z" />
    <glyph glyph-name="uni2197" unicode="&#x2197;" horiz-adv-x="680" 
d="M595 317h-42v297l-482 -481l-31 31l486 485h-289v39h358v-371z" />
    <glyph glyph-name="uni2198" unicode="&#x2198;" horiz-adv-x="680" 
d="M595 0h-358v39h289l-486 485l31 31l482 -481v297h42v-371z" />
    <glyph glyph-name="uni2199" unicode="&#x2199;" horiz-adv-x="680" 
d="M640 524l-486 -485h289v-39h-358v371h42v-297l482 481z" />
    <glyph glyph-name="carriagereturn" unicode="&#x21b5;" horiz-adv-x="940" 
d="M850 0h-703l197 -197l-29 -28l-245 245l245 245l29 -28l-197 -197h659v316h-228v40h272v-396z" />
    <glyph glyph-name="uni21E6" unicode="&#x21e6;" horiz-adv-x="900" 
d="M814 180l-428 40v-220h-12l-344 344l344 344h12v-220l428 40v-328zM774 222v244l-426 -40v180l-262 -262l262 -262v180z" />
    <glyph glyph-name="uni21E7" unicode="&#x21e7;" horiz-adv-x="790" 
d="M740 427h-220l40 -427h-330l40 427h-220v12l345 345l345 -345v-12zM660 463l-265 265l-265 -265h184l-38 -425h238l-38 425h184z" />
    <glyph glyph-name="uni21E8" unicode="&#x21e8;" horiz-adv-x="900" 
d="M870 344l-344 -344h-12v220l-428 -40v328l428 -40v220h12zM814 344l-262 262v-180l-426 40v-244l426 40v-180z" />
    <glyph glyph-name="uni21E9" unicode="&#x21e9;" horiz-adv-x="790" 
d="M740 249l-345 -345l-345 345v12h220l-40 427h330l-40 -427h220v-12zM660 225h-184l38 425h-238l38 -425h-184l265 -265z" />
    <glyph glyph-name="partialdiff" unicode="&#x2202;" 
d="M450 246q0 -122 -52.5 -189t-146.5 -67t-143.5 61.5t-49.5 145.5q0 99 58 153.5t157 54.5q58 0 110 -21q-37 110 -104 174t-174 102l15 36q148 -48 239 -163.5t91 -286.5zM398 246q0 60 -9 104q-55 21 -111 21q-82 0 -124.5 -44t-42.5 -129q0 -71 34.5 -120t103.5 -49
q74 0 111.5 56.5t37.5 160.5z" />
    <glyph glyph-name="Delta" unicode="&#x2206;" horiz-adv-x="572" 
d="M546 0h-520l237 688h46zM473 39l-166 511q-10 33 -22 88h-2q-10 -48 -23 -88l-167 -511h380z" />
    <glyph glyph-name="product" unicode="&#x220f;" horiz-adv-x="740" 
d="M690 649h-113v-864h-57v864h-300v-864h-57v864h-113v39h640v-39z" />
    <glyph glyph-name="summation" unicode="&#x2211;" 
d="M450 -215h-399l239 471l-240 432h394v-45h-310l215 -387l-218 -425h319v-46z" />
    <glyph glyph-name="minus" unicode="&#x2212;" 
d="M444 318h-378v40h378v-40z" />
    <glyph glyph-name="uni2219" unicode="&#x2219;" 
d="M325 353q0 -29 -20.5 -49.5t-49.5 -20.5t-49.5 20.5t-20.5 49.5t20.5 49.5t49.5 20.5t49.5 -20.5t20.5 -49.5z" />
    <glyph glyph-name="radical" unicode="&#x221a;" 
d="M474 785l-173 -785h-51l-136 471h-84v32h129l114 -435h2l149 717h50z" />
    <glyph glyph-name="infinity" unicode="&#x221e;" horiz-adv-x="750" 
d="M690 338q0 -76 -42 -125.5t-109 -49.5q-56 0 -93 35.5t-73 100.5q-35 -65 -71 -100.5t-91 -35.5q-67 0 -109 49.5t-42 125.5t42 125.5t109 49.5q56 0 93 -35.5t73 -100.5q35 65 71 100.5t91 35.5q67 0 109 -49.5t42 -125.5zM651 338q0 60 -30.5 95.5t-81.5 35.5
q-47 0 -78.5 -32.5t-64.5 -94.5q18 -33 30 -52t30 -41t38.5 -32t44.5 -10q51 0 81.5 35.5t30.5 95.5zM354 334q-18 33 -30 52t-30 41t-38.5 32t-44.5 10q-51 0 -81.5 -35.5t-30.5 -95.5t30.5 -95.5t81.5 -35.5q47 0 78.5 32.5t64.5 94.5z" />
    <glyph glyph-name="integral" unicode="&#x222b;" horiz-adv-x="380" 
d="M340 780l-9 -37q-19 6 -43 6q-102 0 -102 -128v-670q0 -77 -39.5 -123t-109.5 -46q-33 0 -57 8l9 39q20 -6 43 -6q102 0 102 128v668q0 77 39.5 123t109.5 46q33 0 57 -8z" />
    <glyph glyph-name="approxequal" unicode="&#x2248;" 
d="M444 413q-36 -46 -97 -46q-33 0 -91.5 34t-92.5 34q-61 0 -97 -46v42q36 46 97 46q34 0 92.5 -34t91.5 -34q61 0 97 46v-42zM444 245q-36 -46 -97 -46q-33 0 -91.5 34t-92.5 34q-61 0 -97 -46v42q36 46 97 46q34 0 92.5 -34t91.5 -34q61 0 97 46v-42z" />
    <glyph glyph-name="notequal" unicode="&#x2260;" 
d="M444 234h-214l-52 -125l-32 14l47 111h-127v40h143l54 128h-197v40h214l52 124l31 -14l-46 -110h127v-40h-144l-53 -128h197v-40z" />
    <glyph glyph-name="lessequal" unicode="&#x2264;" 
d="M444 146l-378 172v40l378 172v-47l-330 -144v-2l330 -144v-47zM444 0h-378v40h378v-40z" />
    <glyph glyph-name="greaterequal" unicode="&#x2265;" 
d="M444 318l-378 -172v47l330 144v2l-330 144v47l378 -172v-40zM444 0h-378v40h378v-40z" />
    <glyph glyph-name="dotmath" unicode="&#x22c5;" 
d="M297 337q0 -17 -12.5 -29.5t-29.5 -12.5t-29.5 12.5t-12.5 29.5t12.5 29.5t29.5 12.5t29.5 -12.5t12.5 -29.5z" />
    <glyph glyph-name="uni2300" unicode="&#x2300;" horiz-adv-x="850" 
d="M800 690l-111 -109q92 -102 92 -237q0 -147 -104 -250.5t-252 -103.5q-136 0 -237 90l-109 -110l-29 29l110 109q-91 102 -91 236q0 147 104 250.5t252 103.5q133 0 236 -90l110 111zM632 580q-89 79 -207 79q-130 0 -221.5 -92t-91.5 -223q0 -120 76 -207zM738 344
q0 119 -77 207l-444 -443q89 -79 208 -79q130 0 221.5 92t91.5 223z" />
    <glyph glyph-name="uni2318" unicode="&#x2318;" horiz-adv-x="860" 
d="M795 117q0 -54 -39 -90.5t-96 -36.5q-65 0 -103 40.5t-38 108.5v79h-178v-79q0 -68 -38 -108.5t-103 -40.5q-57 0 -96 36.5t-39 90.5q0 58 42.5 95t116.5 37h75v190h-75q-74 0 -116.5 37t-42.5 95q0 54 39 90.5t96 36.5q65 0 103 -40.5t38 -108.5v-79h178v79
q0 68 38 108.5t103 40.5q57 0 96 -36.5t39 -90.5q0 -58 -42.5 -95t-116.5 -37h-75v-190h75q74 0 116.5 -37t42.5 -95zM753 571q0 41 -26.5 69t-66.5 28q-47 0 -73 -32.5t-26 -86.5v-79h76q55 0 85.5 27.5t30.5 73.5zM753 117q0 46 -30.5 73.5t-85.5 27.5h-76v-79
q0 -54 26 -86.5t73 -32.5q40 0 66.5 28t26.5 69zM519 249v190h-178v-190h178zM299 470v79q0 54 -26 86.5t-73 32.5q-40 0 -66.5 -28t-26.5 -69q0 -46 30.5 -73.5t85.5 -27.5h76zM299 139v79h-76q-55 0 -85.5 -27.5t-30.5 -73.5q0 -41 26.5 -69t66.5 -28q47 0 73 32.5
t26 86.5z" />
    <glyph glyph-name="uni2324" unicode="&#x2324;" horiz-adv-x="800" 
d="M720 648h-640v40h640v-40zM660 387l-31 -31l-229 229l-229 -229l-31 31l260 260z" />
    <glyph glyph-name="uni2325" unicode="&#x2325;" horiz-adv-x="860" 
d="M790 356h-380v40h380v-40zM790 0h-391l-162 356h-167v40h200l162 -356h358v-40z" />
    <glyph glyph-name="uni2326" unicode="&#x2326;" horiz-adv-x="1200" 
d="M1140 344l-344 -344h-706v688h706zM1080 344l-304 304h-642v-608h642zM721 153l-29 -30l-194 194l-194 -194l-29 30l193 193l-193 193l29 30l194 -194l194 194l29 -30l-193 -193z" />
    <glyph glyph-name="uni232B" unicode="&#x232b;" horiz-adv-x="1200" 
d="M1110 0h-706l-344 344l344 344h706v-688zM1066 40v608h-642l-304 -304l304 -304h642zM925 153l-29 -30l-194 194l-194 -194l-29 30l193 193l-193 193l29 30l194 -194l194 194l29 -30l-193 -193z" />
    <glyph glyph-name="uni2460" unicode="&#x2460;" horiz-adv-x="932" 
d="M868 392q0 -166 -118 -284t-284 -118t-284 118t-118 284t118 284t284 118t284 -118t118 -284zM822 393q0 151 -104 258t-252 107t-252 -107t-104 -258t104 -258t252 -107t252 107t104 258zM509 192h-46v350q-38 -24 -107 -30l-6 28q96 15 128 64h31v-412z" />
    <glyph glyph-name="uni2461" unicode="&#x2461;" horiz-adv-x="932" 
d="M868 392q0 -166 -118 -284t-284 -118t-284 118t-118 284t118 284t284 118t284 -118t118 -284zM822 393q0 151 -104 258t-252 107t-252 -107t-104 -258t104 -258t252 -107t252 107t104 258zM589 192h-241l150 213q37 53 37 95q0 76 -86 76q-38 0 -76 -18l-13 31
q42 22 98 22q62 0 93.5 -29t31.5 -80q0 -47 -51 -116l-115 -156h172v-38z" />
    <glyph glyph-name="uni2462" unicode="&#x2462;" horiz-adv-x="932" 
d="M868 392q0 -166 -118 -284t-284 -118t-284 118t-118 284t118 284t284 118t284 -118t118 -284zM822 393q0 151 -104 258t-252 107t-252 -107t-104 -258t104 -258t252 -107t252 107t104 258zM600 310q0 -56 -38.5 -90.5t-96.5 -34.5q-63 0 -102 21l13 32q34 -18 82 -18
q44 0 69 24t25 66q0 46 -30.5 68t-78.5 22h-14v28q48 4 77.5 26.5t29.5 58.5q0 33 -20.5 48.5t-52.5 15.5q-42 0 -78 -17l-13 30q42 21 97 21q48 0 80.5 -24.5t32.5 -67.5q0 -67 -78 -96v-2q96 -22 96 -111z" />
    <glyph glyph-name="uni2463" unicode="&#x2463;" horiz-adv-x="932" 
d="M868 392q0 -166 -118 -284t-284 -118t-284 118t-118 284t118 284t284 118t284 -118t118 -284zM822 393q0 151 -104 258t-252 107t-252 -107t-104 -258t104 -258t252 -107t252 107t104 258zM585 289h-50v-97h-41v97h-170v31l169 284h42v-286h50v-29zM497 558h-2
q-15 -36 -28 -57l-107 -183h135v178q0 17 1 39t1 23z" />
    <glyph glyph-name="uni2464" unicode="&#x2464;" horiz-adv-x="932" 
d="M868 392q0 -166 -118 -284t-284 -118t-284 118t-118 284t118 284t284 118t284 -118t118 -284zM822 393q0 151 -104 258t-252 107t-252 -107t-104 -258t104 -258t252 -107t252 107t104 258zM584 309q0 -51 -38 -87.5t-97 -36.5q-63 0 -101 21l13 32q34 -18 82 -18
q42 0 67.5 26t25.5 63q0 97 -109 97q-31 0 -58 -4l22 202h183v-37h-151l-15 -134q18 2 36 2q65 0 102.5 -33.5t37.5 -92.5z" />
    <glyph glyph-name="uni2465" unicode="&#x2465;" horiz-adv-x="932" 
d="M868 392q0 -166 -118 -284t-284 -118t-284 118t-118 284t118 284t284 118t284 -118t118 -284zM822 393q0 151 -104 258t-252 107t-252 -107t-104 -258t104 -258t252 -107t252 107t104 258zM583 312q0 -52 -31.5 -89.5t-90.5 -37.5q-60 0 -92 40.5t-32 114.5
q0 104 57.5 173.5t146.5 96.5l12 -31q-121 -40 -162 -154q31 12 61 12q60 0 95.5 -32.5t35.5 -92.5zM539 312q0 97 -94 97q-32 0 -60 -11q-5 -22 -5 -59q0 -122 82 -122q38 0 57.5 27t19.5 68z" />
    <glyph glyph-name="uni2466" unicode="&#x2466;" horiz-adv-x="932" 
d="M868 392q0 -166 -118 -284t-284 -118t-284 118t-118 284t118 284t284 118t284 -118t118 -284zM822 393q0 151 -104 258t-252 107t-252 -107t-104 -258t104 -258t252 -107t252 107t104 258zM597 604l-56 -129q-78 -182 -105 -283h-57l163 374h-194v38h249z" />
    <glyph glyph-name="uni2467" unicode="&#x2467;" horiz-adv-x="932" 
d="M868 392q0 -166 -118 -284t-284 -118t-284 118t-118 284t118 284t284 118t284 -118t118 -284zM822 393q0 151 -104 258t-252 107t-252 -107t-104 -258t104 -258t252 -107t252 107t104 258zM590 288q0 -45 -35.5 -74t-88.5 -29q-51 0 -87.5 28t-36.5 75q0 42 24 67.5
t70 51.5q-39 22 -60 45.5t-21 61.5q0 43 32 70t79 27t79 -27t32 -70q0 -37 -20.5 -60t-59.5 -45q44 -24 68.5 -51t24.5 -70zM538 514q0 30 -20.5 48.5t-51.5 18.5q-32 0 -51.5 -18t-19.5 -49q0 -30 18 -49t55 -40q34 19 52 39t18 50zM546 288q0 37 -20.5 59t-60.5 44
q-40 -22 -60.5 -44t-20.5 -58q0 -33 24 -52.5t58 -19.5q35 0 57.5 20t22.5 51z" />
    <glyph glyph-name="uni2468" unicode="&#x2468;" horiz-adv-x="932" 
d="M868 392q0 -166 -118 -284t-284 -118t-284 118t-118 284t118 284t284 118t284 -118t118 -284zM822 393q0 151 -104 258t-252 107t-252 -107t-104 -258t104 -258t252 -107t252 107t104 258zM593 456q0 -104 -57.5 -173.5t-146.5 -96.5l-12 31q121 40 162 154
q-31 -12 -61 -12q-60 0 -95.5 32.5t-35.5 92.5q0 52 31.5 89.5t90.5 37.5q60 0 92 -40.5t32 -114.5zM550 458q0 122 -82 122q-38 0 -57.5 -27t-19.5 -68q0 -97 94 -97q32 0 60 11q5 22 5 59z" />
    <glyph glyph-name="uni2469" unicode="&#x2469;" horiz-adv-x="1160" 
d="M1096 392q0 -166 -118 -284t-284 -118h-228q-166 0 -284 118t-118 284t118 284t284 118h228q166 0 284 -118t118 -284zM1050 393q0 151 -104 258t-252 107h-228q-148 0 -252 -107t-104 -258t104 -258t252 -107h228q148 0 252 107t104 258zM837 398q0 -42 -6 -78
t-20 -67.5t-38.5 -49.5t-58.5 -18t-58.5 18t-38.5 49.5t-20 67.5t-6 78t6 78t20 67.5t38.5 49.5t58.5 18t58.5 -18t38.5 -49.5t20 -67.5t6 -78zM467 192h-46v350q-38 -24 -107 -30l-6 28q96 15 128 64h31v-412zM792 399q0 181 -78 181t-78 -181t78 -181t78 181z" />
    <glyph glyph-name="uni246A" unicode="&#x246a;" horiz-adv-x="1160" 
d="M1096 392q0 -166 -118 -284t-284 -118h-228q-166 0 -284 118t-118 284t118 284t284 118h228q166 0 284 -118t118 -284zM1050 393q0 151 -104 258t-252 107h-228q-148 0 -252 -107t-104 -258t104 -258t252 -107h228q148 0 252 107t104 258zM762 192h-46v350
q-38 -24 -107 -30l-6 28q96 15 128 64h31v-412zM492 192h-46v350q-38 -24 -107 -30l-6 28q96 15 128 64h31v-412z" />
    <glyph glyph-name="uni246B" unicode="&#x246b;" horiz-adv-x="1160" 
d="M1096 392q0 -166 -118 -284t-284 -118h-228q-166 0 -284 118t-118 284t118 284t284 118h228q166 0 284 -118t118 -284zM1050 393q0 151 -104 258t-252 107h-228q-148 0 -252 -107t-104 -258t104 -258t252 -107h228q148 0 252 107t104 258zM815 192h-241l150 213
q37 53 37 95q0 76 -86 76q-38 0 -76 -18l-13 31q42 22 98 22q62 0 93.5 -29t31.5 -80q0 -47 -51 -116l-115 -156h172v-38zM472 192h-46v350q-38 -24 -107 -30l-6 28q96 15 128 64h31v-412z" />
    <glyph glyph-name="uni246C" unicode="&#x246c;" horiz-adv-x="1160" 
d="M1096 392q0 -166 -118 -284t-284 -118h-228q-166 0 -284 118t-118 284t118 284t284 118h228q166 0 284 -118t118 -284zM1050 393q0 151 -104 258t-252 107h-228q-148 0 -252 -107t-104 -258t104 -258t252 -107h228q148 0 252 107t104 258zM813 310q0 -56 -38.5 -90.5
t-96.5 -34.5q-63 0 -102 21l13 32q34 -18 82 -18q44 0 69 24t25 66q0 46 -30.5 68t-78.5 22h-14v28q48 4 77.5 26.5t29.5 58.5q0 33 -20.5 48.5t-52.5 15.5q-42 0 -78 -17l-13 30q42 21 97 21q48 0 80.5 -24.5t32.5 -67.5q0 -67 -78 -96v-2q96 -22 96 -111zM472 192h-46v350
q-38 -24 -107 -30l-6 28q96 15 128 64h31v-412z" />
    <glyph glyph-name="uni246D" unicode="&#x246d;" horiz-adv-x="1160" 
d="M1096 392q0 -166 -118 -284t-284 -118h-228q-166 0 -284 118t-118 284t118 284t284 118h228q166 0 284 -118t118 -284zM1050 393q0 151 -104 258t-252 107h-228q-148 0 -252 -107t-104 -258t104 -258t252 -107h228q148 0 252 107t104 258zM835 289h-50v-97h-41v97h-170
v31l169 284h42v-286h50v-29zM470 192h-46v350q-38 -24 -107 -30l-6 28q96 15 128 64h31v-412zM747 558h-2q-12 -29 -28 -57l-107 -183h135v178q0 28 2 62z" />
    <glyph glyph-name="uni246E" unicode="&#x246e;" horiz-adv-x="1160" 
d="M1096 392q0 -166 -118 -284t-284 -118h-228q-166 0 -284 118t-118 284t118 284t284 118h228q166 0 284 -118t118 -284zM1050 393q0 151 -104 258t-252 107h-228q-148 0 -252 -107t-104 -258t104 -258t252 -107h228q148 0 252 107t104 258zM812 309q0 -51 -38 -87.5
t-97 -36.5q-63 0 -101 21l13 32q34 -18 82 -18q42 0 67.5 26t25.5 63q0 97 -109 97q-31 0 -58 -4l22 202h183v-37h-151l-15 -134q20 2 36 2q65 0 102.5 -33.5t37.5 -92.5zM470 192h-46v350q-38 -24 -107 -30l-6 28q96 15 128 64h31v-412z" />
    <glyph glyph-name="uni246F" unicode="&#x246f;" horiz-adv-x="1160" 
d="M1096 392q0 -166 -118 -284t-284 -118h-228q-166 0 -284 118t-118 284t118 284t284 118h228q166 0 284 -118t118 -284zM1050 393q0 151 -104 258t-252 107h-228q-148 0 -252 -107t-104 -258t104 -258t252 -107h228q148 0 252 107t104 258zM825 312q0 -52 -31.5 -89.5
t-90.5 -37.5q-60 0 -92 40.5t-32 114.5q0 104 57.5 173.5t146.5 96.5l12 -31q-121 -40 -162 -154q31 12 61 12q60 0 95.5 -32.5t35.5 -92.5zM465 192h-46v350q-38 -24 -107 -30l-6 28q96 15 128 64h31v-412zM781 312q0 97 -94 97q-32 0 -60 -11q-5 -22 -5 -59
q0 -122 82 -122q38 0 57.5 27t19.5 68z" />
    <glyph glyph-name="uni2470" unicode="&#x2470;" horiz-adv-x="1160" 
d="M1096 392q0 -166 -118 -284t-284 -118h-228q-166 0 -284 118t-118 284t118 284t284 118h228q166 0 284 -118t118 -284zM1050 393q0 151 -104 258t-252 107h-228q-148 0 -252 -107t-104 -258t104 -258t252 -107h228q148 0 252 107t104 258zM831 604l-56 -129
q-78 -182 -105 -283h-57l163 374h-194v38h249zM467 192h-46v350q-38 -24 -107 -30l-6 28q96 15 128 64h31v-412z" />
    <glyph glyph-name="uni2471" unicode="&#x2471;" horiz-adv-x="1160" 
d="M1096 392q0 -166 -118 -284t-284 -118h-228q-166 0 -284 118t-118 284t118 284t284 118h228q166 0 284 -118t118 -284zM1050 393q0 151 -104 258t-252 107h-228q-148 0 -252 -107t-104 -258t104 -258t252 -107h228q148 0 252 107t104 258zM826 288q0 -45 -35.5 -74
t-88.5 -29q-51 0 -87.5 28t-36.5 75q0 42 24 67.5t70 51.5q-39 22 -60 45.5t-21 61.5q0 43 32 70t79 27t79 -27t32 -70q0 -37 -20.5 -60t-59.5 -45q44 -24 68.5 -51t24.5 -70zM468 192h-46v350q-38 -24 -107 -30l-6 28q96 15 128 64h31v-412zM774 514q0 30 -20.5 48.5
t-51.5 18.5q-32 0 -51.5 -18t-19.5 -49q0 -30 18 -49t55 -40q34 19 52 39t18 50zM782 288q0 37 -20.5 59t-60.5 44q-40 -22 -60.5 -44t-20.5 -58q0 -33 24 -52.5t58 -19.5q35 0 57.5 20t22.5 51z" />
    <glyph glyph-name="uni2472" unicode="&#x2472;" horiz-adv-x="1160" 
d="M1096 392q0 -166 -118 -284t-284 -118h-228q-166 0 -284 118t-118 284t118 284t284 118h228q166 0 284 -118t118 -284zM1050 393q0 151 -104 258t-252 107h-228q-148 0 -252 -107t-104 -258t104 -258t252 -107h228q148 0 252 107t104 258zM829 456q0 -104 -57.5 -173.5
t-146.5 -96.5l-12 31q121 40 162 154q-31 -12 -61 -12q-60 0 -95.5 32.5t-35.5 92.5q0 52 31.5 89.5t90.5 37.5q60 0 92 -40.5t32 -114.5zM469 192h-46v350q-38 -24 -107 -30l-6 28q96 15 128 64h31v-412zM786 458q0 122 -82 122q-38 0 -57.5 -27t-19.5 -68q0 -97 94 -97
q32 0 60 11q5 22 5 59z" />
    <glyph glyph-name="uni2473" unicode="&#x2473;" horiz-adv-x="1160" 
d="M1096 392q0 -166 -118 -284t-284 -118h-228q-166 0 -284 118t-118 284t118 284t284 118h228q166 0 284 -118t118 -284zM1050 393q0 151 -104 258t-252 107h-228q-148 0 -252 -107t-104 -258t104 -258t252 -107h228q148 0 252 107t104 258zM865 398q0 -42 -6 -78
t-20 -67.5t-38.5 -49.5t-58.5 -18t-58.5 18t-38.5 49.5t-20 67.5t-6 78t6 78t20 67.5t38.5 49.5t58.5 18t58.5 -18t38.5 -49.5t20 -67.5t6 -78zM537 192h-236l145 213q37 53 37 95q0 76 -86 76q-38 0 -76 -18l-13 31q42 22 98 22q62 0 93.5 -29t31.5 -80q0 -47 -51 -116
l-112 -156h169v-38zM820 399q0 181 -78 181t-78 -181t78 -181t78 181z" />
    <glyph glyph-name="uni24EA" unicode="&#x24ea;" horiz-adv-x="932" 
d="M868 392q0 -166 -118 -284t-284 -118t-284 118t-118 284t118 284t284 118t284 -118t118 -284zM822 393q0 151 -104 258t-252 107t-252 -107t-104 -258t104 -258t252 -107t252 107t104 258zM589 398q0 -42 -6 -78t-20 -67.5t-38.5 -49.5t-58.5 -18t-58.5 18t-38.5 49.5
t-20 67.5t-6 78t6 78t20 67.5t38.5 49.5t58.5 18t58.5 -18t38.5 -49.5t20 -67.5t6 -78zM544 399q0 181 -78 181t-78 -181t78 -181t78 181z" />
    <glyph glyph-name="lozenge" unicode="&#x25ca;" horiz-adv-x="640" 
d="M590 344l-270 -354l-270 354l270 354zM530 344l-210 276l-211 -276l211 -274z" />
    <glyph glyph-name="uni2713" unicode="&#x2713;" horiz-adv-x="740" 
d="M690 675l-360 -690l-280 373l40 30l235 -320l323 630z" />
    <glyph glyph-name="fi" unicode="&#xfb01;" horiz-adv-x="511" 
d="M427 0h-54v539h54v-539zM437 690q0 -15 -11 -26t-26 -11t-26 11t-11 26t11 26t26 11t26 -11t11 -26zM260 506h-100v-506h-54v506h-63v33h63v87q0 72 38 115.5t110 43.5h6v-36q-100 0 -100 -122v-88h100v-33z" />
    <glyph glyph-name="fl" unicode="&#xfb02;" horiz-adv-x="528" 
d="M443 0h-54v785h54v-785zM260 506h-100v-506h-54v506h-63v33h63v87q0 72 38 115.5t110 43.5h6v-36q-100 0 -100 -122v-88h100v-33z" />
    <glyph glyph-name="i.latn_TRK" horiz-adv-x="222" 
d="M148 690q0 -15 -11 -26t-26 -11t-26 11t-11 26t11 26t26 11t26 -11t11 -26zM138 0h-54v539h54v-539z" />
    <glyph glyph-name="Ldot.latn_CAT" horiz-adv-x="429" 
d="M367 0h-280v688h57v-649h223v-39zM367 370q0 -15 -11 -26t-26 -11t-26 11t-11 26t11 26t26 11t26 -11t11 -26z" />
    <glyph glyph-name="ldot.latn_CAT" horiz-adv-x="296" 
d="M139 0h-54v785h54v-785zM297 416q0 -15 -11 -26t-26 -11t-26 11t-11 26t11 26t26 11t26 -11t11 -26z" />
    <glyph glyph-name="n.subs" horiz-adv-x="358" 
d="M300 -215h-45v244q0 81 -80 81q-43 0 -72 -12v-313h-45v331q55 24 117 24q125 0 125 -110v-245z" />
    <glyph glyph-name="parenleft.numr" horiz-adv-x="204" 
d="M186 208l-25 -19q-121 127 -121 293t121 293l25 -19q-100 -120 -100 -274t100 -274z" />
    <glyph glyph-name="parenright.numr" horiz-adv-x="204" 
d="M164 482q0 -166 -121 -293l-25 19q100 120 100 274t-100 274l25 19q121 -127 121 -293z" />
    <glyph glyph-name="plus.numr" horiz-adv-x="348" 
d="M292 468h-99v-100h-38v100h-99v35h99v99h38v-99h99v-35z" />
    <glyph glyph-name="zero.numr" horiz-adv-x="320" 
d="M283 482q0 -42 -6 -78t-20 -67.5t-38.5 -49.5t-58.5 -18t-58.5 18t-38.5 49.5t-20 67.5t-6 78t6 78t20 67.5t38.5 49.5t58.5 18t58.5 -18t38.5 -49.5t20 -67.5t6 -78zM238 483q0 181 -78 181t-78 -181t78 -181t78 181z" />
    <glyph glyph-name="one.numr" horiz-adv-x="320" 
d="M217 276h-46v350q-38 -24 -107 -30l-6 28q96 15 128 64h31v-412z" />
    <glyph glyph-name="two.numr" horiz-adv-x="320" 
d="M262 276h-241l150 213q37 53 37 95q0 76 -86 76q-38 0 -76 -18l-13 31q42 22 98 22q62 0 93.5 -29t31.5 -80q0 -47 -51 -116l-115 -156h172v-38z" />
    <glyph glyph-name="three.numr" horiz-adv-x="320" 
d="M268 394q0 -56 -38.5 -90.5t-96.5 -34.5q-63 0 -102 21l13 32q34 -18 82 -18q44 0 69 24t25 66q0 46 -30.5 68t-78.5 22h-14v28q48 4 77.5 26.5t29.5 58.5q0 33 -20.5 48.5t-52.5 15.5q-42 0 -78 -17l-13 30q42 21 97 21q48 0 80.5 -24.5t32.5 -67.5q0 -67 -78 -96v-2
q96 -22 96 -111z" />
    <glyph glyph-name="four.numr" horiz-adv-x="320" 
d="M282 373h-34v-97h-41v97h-170v31l169 284h42v-286h34v-29zM210 642h-2q-14 -34 -28 -57l-107 -183h135v178q0 16 2 62z" />
    <glyph glyph-name="five.numr" horiz-adv-x="320" 
d="M268 393q0 -51 -38 -87.5t-97 -36.5q-63 0 -101 21l13 32q34 -18 82 -18q42 0 67.5 26t25.5 63q0 97 -109 97q-31 0 -58 -4l22 202h183v-37h-151l-15 -134q20 2 36 2q65 0 102.5 -33.5t37.5 -92.5z" />
    <glyph glyph-name="six.numr" horiz-adv-x="320" 
d="M284 396q0 -52 -31.5 -89.5t-90.5 -37.5q-60 0 -92 40.5t-32 114.5q0 104 57.5 173.5t146.5 96.5l12 -31q-121 -40 -162 -154q31 12 61 12q60 0 95.5 -32.5t35.5 -92.5zM240 396q0 97 -94 97q-32 0 -60 -11q-5 -22 -5 -59q0 -122 82 -122q38 0 57.5 27t19.5 68z" />
    <glyph glyph-name="seven.numr" horiz-adv-x="320" 
d="M287 688l-56 -129q-78 -182 -105 -283h-57l163 374h-194v38h249z" />
    <glyph glyph-name="eight.numr" horiz-adv-x="320" 
d="M284 372q0 -45 -35.5 -74t-88.5 -29q-51 0 -87.5 28t-36.5 75q0 42 24 67.5t70 51.5q-39 22 -60 45.5t-21 61.5q0 43 32 70t79 27t79 -27t32 -70q0 -37 -20.5 -60t-59.5 -45q44 -24 68.5 -51t24.5 -70zM232 598q0 30 -20.5 48.5t-51.5 18.5q-32 0 -51.5 -18t-19.5 -49
q0 -30 18 -49t55 -40q34 19 52 39t18 50zM240 372q0 37 -20.5 59t-60.5 44q-40 -22 -60.5 -44t-20.5 -58q0 -33 24 -52.5t58 -19.5q35 0 57.5 20t22.5 51z" />
    <glyph glyph-name="nine.numr" horiz-adv-x="320" 
d="M282 540q0 -104 -57.5 -173.5t-146.5 -96.5l-12 31q121 40 162 154q-31 -12 -61 -12q-60 0 -95.5 32.5t-35.5 92.5q0 52 31.5 89.5t90.5 37.5q60 0 92 -40.5t32 -114.5zM239 542q0 122 -82 122q-38 0 -57.5 -27t-19.5 -68q0 -97 94 -97q32 0 60 11q5 22 5 59z" />
    <glyph glyph-name="equal.numr" horiz-adv-x="348" 
d="M292 522h-236v35h236v-35zM292 414h-236v35h236v-35z" />
    <glyph glyph-name="n.numr" horiz-adv-x="358" 
d="M300 276h-45v244q0 81 -80 81q-43 0 -72 -12v-313h-45v331q55 24 117 24q125 0 125 -110v-245z" />
    <glyph glyph-name="minus.numr" horiz-adv-x="348" 
d="M292 468h-236v35h236v-35z" />
    <glyph glyph-name="parenleft.dnom" horiz-adv-x="204" 
d="M186 -68l-25 -19q-121 127 -121 293t121 293l25 -19q-100 -120 -100 -274t100 -274z" />
    <glyph glyph-name="parenright.dnom" horiz-adv-x="204" 
d="M164 206q0 -166 -121 -293l-25 19q100 120 100 274t-100 274l25 19q121 -127 121 -293z" />
    <glyph glyph-name="plus.dnom" horiz-adv-x="348" 
d="M292 192h-99v-100h-38v100h-99v35h99v99h38v-99h99v-35z" />
    <glyph glyph-name="zero.dnom" horiz-adv-x="320" 
d="M283 206q0 -42 -6 -78t-20 -67.5t-38.5 -49.5t-58.5 -18t-58.5 18t-38.5 49.5t-20 67.5t-6 78t6 78t20 67.5t38.5 49.5t58.5 18t58.5 -18t38.5 -49.5t20 -67.5t6 -78zM238 207q0 181 -78 181t-78 -181t78 -181t78 181z" />
    <glyph glyph-name="one.dnom" horiz-adv-x="320" 
d="M217 0h-46v350q-38 -24 -107 -30l-6 28q96 15 128 64h31v-412z" />
    <glyph glyph-name="two.dnom" horiz-adv-x="320" 
d="M262 0h-241l150 213q37 53 37 95q0 76 -86 76q-38 0 -76 -18l-13 31q42 22 98 22q62 0 93.5 -29t31.5 -80q0 -47 -51 -116l-115 -156h172v-38z" />
    <glyph glyph-name="three.dnom" horiz-adv-x="320" 
d="M268 118q0 -56 -38.5 -90.5t-96.5 -34.5q-63 0 -102 21l13 32q34 -18 82 -18q44 0 69 24t25 66q0 46 -30.5 68t-78.5 22h-14v28q48 4 77.5 26.5t29.5 58.5q0 33 -20.5 48.5t-52.5 15.5q-42 0 -78 -17l-13 30q42 21 97 21q48 0 80.5 -24.5t32.5 -67.5q0 -67 -78 -96v-2
q96 -22 96 -111z" />
    <glyph glyph-name="four.dnom" horiz-adv-x="320" 
d="M282 97h-34v-97h-41v97h-170v31l169 284h42v-286h34v-29zM210 366h-2q-14 -34 -28 -57l-107 -183h135v178q0 16 2 62z" />
    <glyph glyph-name="five.dnom" horiz-adv-x="320" 
d="M268 117q0 -51 -38 -87.5t-97 -36.5q-63 0 -101 21l13 32q34 -18 82 -18q42 0 67.5 26t25.5 63q0 97 -109 97q-31 0 -58 -4l22 202h183v-37h-151l-15 -134q20 2 36 2q65 0 102.5 -33.5t37.5 -92.5z" />
    <glyph glyph-name="six.dnom" horiz-adv-x="320" 
d="M284 120q0 -52 -31.5 -89.5t-90.5 -37.5q-60 0 -92 40.5t-32 114.5q0 104 57.5 173.5t146.5 96.5l12 -31q-121 -40 -162 -154q31 12 61 12q60 0 95.5 -32.5t35.5 -92.5zM240 120q0 97 -94 97q-32 0 -60 -11q-5 -22 -5 -59q0 -122 82 -122q38 0 57.5 27t19.5 68z" />
    <glyph glyph-name="seven.dnom" horiz-adv-x="320" 
d="M287 412l-56 -129q-78 -182 -105 -283h-57l163 374h-194v38h249z" />
    <glyph glyph-name="eight.dnom" horiz-adv-x="320" 
d="M284 96q0 -45 -35.5 -74t-88.5 -29q-51 0 -87.5 28t-36.5 75q0 42 24 67.5t70 51.5q-39 22 -60 45.5t-21 61.5q0 43 32 70t79 27t79 -27t32 -70q0 -37 -20.5 -60t-59.5 -45q44 -24 68.5 -51t24.5 -70zM232 322q0 30 -20.5 48.5t-51.5 18.5q-32 0 -51.5 -18t-19.5 -49
q0 -30 18 -49t55 -40q34 19 52 39t18 50zM240 96q0 37 -20.5 59t-60.5 44q-40 -22 -60.5 -44t-20.5 -58q0 -33 24 -52.5t58 -19.5q35 0 57.5 20t22.5 51z" />
    <glyph glyph-name="nine.dnom" horiz-adv-x="320" 
d="M282 264q0 -104 -57.5 -173.5t-146.5 -96.5l-12 31q121 40 162 154q-31 -12 -61 -12q-60 0 -95.5 32.5t-35.5 92.5q0 52 31.5 89.5t90.5 37.5q60 0 92 -40.5t32 -114.5zM239 266q0 122 -82 122q-38 0 -57.5 -27t-19.5 -68q0 -97 94 -97q32 0 60 11q5 22 5 59z" />
    <glyph glyph-name="equal.dnom" horiz-adv-x="348" 
d="M292 246h-236v35h236v-35zM292 138h-236v35h236v-35z" />
    <glyph glyph-name="n.dnom" horiz-adv-x="358" 
d="M300 0h-45v244q0 81 -80 81q-43 0 -72 -12v-313h-45v331q55 24 117 24q125 0 125 -110v-245z" />
    <glyph glyph-name="minus.dnom" horiz-adv-x="348" 
d="M292 192h-236v35h236v-35z" />
    <glyph glyph-name="space.frac" horiz-adv-x="56" 
 />
    <glyph glyph-name="numbersign.osf" horiz-adv-x="550" 
d="M490 344h-101l-19 -138h97v-31h-101l-24 -175h-35l24 175h-140l-24 -175h-35l24 175h-96v31h100l19 138h-96v31h100l22 164h35l-22 -164h140l22 164h35l-22 -164h97v-31zM354 345h-140l-19 -140h140z" />
    <glyph glyph-name="dollar.osf" horiz-adv-x="450" 
d="M384 142q0 -55 -41.5 -97.5t-107.5 -52.5v-117h-38v115q-85 2 -139 36l18 37q51 -32 123 -32q58 0 94.5 32t36.5 79q0 41 -26.5 67t-65 40.5l-76.5 30t-64.5 48t-26.5 82.5q0 52 37.5 91t101.5 46v112h38v-110q70 -3 119 -36l-18 -35q-50 32 -110 32q-56 0 -86 -28.5
t-30 -71.5q0 -32 19.5 -54.5t48.5 -34t62.5 -26.5t62.5 -30.5t48.5 -47t19.5 -75.5z" />
    <glyph glyph-name="percent.osf" horiz-adv-x="800" 
d="M736 172q0 -79 -31.5 -130.5t-90.5 -51.5t-90.5 51.5t-31.5 130.5t31.5 130.5t90.5 51.5t90.5 -51.5t31.5 -130.5zM510 533l-186 -540l-35 12l186 540zM308 367q0 -79 -31.5 -130.5t-90.5 -51.5t-90.5 51.5t-31.5 130.5t31.5 130.5t90.5 51.5t90.5 -51.5t31.5 -130.5z
M692 173q0 65 -19 107.5t-59 42.5t-59 -42.5t-19 -107.5t19 -107.5t59 -42.5t59 42.5t19 107.5zM264 368q0 65 -19 107.5t-59 42.5t-59 -42.5t-19 -107.5t19 -107.5t59 -42.5t59 42.5t19 107.5z" />
    <glyph glyph-name="zero.osf" horiz-adv-x="514" 
d="M452 270q0 -117 -49.5 -198.5t-145.5 -81.5t-145.5 81.5t-49.5 198.5t49.5 198t145.5 81t145.5 -81t49.5 -198zM399 270q0 45 -7 86t-22 78.5t-44 59.5t-69 22t-69 -22t-44 -59.5t-22 -78.5t-7 -86t7 -85t22 -77t44 -58.5t69 -21.5t69 21.5t44 58.5t22 77t7 85z" />
    <glyph glyph-name="one.osf" horiz-adv-x="380" 
d="M280 0h-54v455q-31 -20 -85 -35.5t-98 -20.5l-7 33q155 25 209 107h35v-539z" />
    <glyph glyph-name="two.osf" horiz-adv-x="448" 
d="M396 0h-364l226 259q42 47 55.5 79t13.5 65q0 47 -34 75.5t-94 28.5q-71 0 -132 -29l-17 35q70 36 161 36q74 0 124 -40.5t50 -101.5q0 -39 -18 -77.5t-66 -90.5l-177 -194h272v-45z" />
    <glyph glyph-name="three.osf" horiz-adv-x="454" 
d="M398 45q0 -92 -61 -148t-152 -56q-98 0 -161 34l16 38q59 -31 137 -31q74 0 119 43.5t45 119.5q0 83 -53 123t-134 40h-24v35q80 6 131.5 46t51.5 104q0 60 -37 87.5t-91 27.5q-68 0 -129 -29l-17 36q68 34 151 34q73 0 126 -39.5t53 -109.5q0 -64 -40.5 -104.5
t-96.5 -59.5v-2q30 -6 56.5 -18.5t52.5 -34t41.5 -56.5t15.5 -80z" />
    <glyph glyph-name="four.osf" horiz-adv-x="532" 
d="M476 0h-68v-149h-48v149h-306v40l305 499h49v-502h68v-37zM362 483h-2q-26 -56 -51 -97l-210 -349h261v341q0 32 1 68t1 37z" />
    <glyph glyph-name="five.osf" horiz-adv-x="454" 
d="M398 46q0 -84 -61 -144.5t-154 -60.5q-97 0 -159 34l16 38q57 -31 137 -31q73 0 118.5 47.5t45.5 114.5q0 82 -46.5 128.5t-141.5 46.5q-51 0 -94 -7l34 327h291v-45h-252l-27 -244q42 5 68 5q103 0 164 -55.5t61 -153.5z" />
    <glyph glyph-name="six.osf" horiz-adv-x="512" 
d="M454 197q0 -84 -49.5 -145.5t-143.5 -61.5t-146.5 67t-52.5 189q0 167 89 284t247 168l14 -36q-112 -40 -178 -102t-105 -176q52 21 110 21q99 0 157 -54.5t58 -153.5zM401 198q0 85 -42.5 129t-124.5 44q-56 0 -111 -21q-9 -44 -9 -104q0 -104 37.5 -160.5t111.5 -56.5
q69 0 103.5 49t34.5 120z" />
    <glyph glyph-name="seven.osf" horiz-adv-x="482" 
d="M441 539l-95 -216q-54 -122 -106 -261t-73 -211h-69l278 643h-332v45h397z" />
    <glyph glyph-name="eight.osf" horiz-adv-x="506" 
d="M450 158q0 -72 -57 -120t-140 -48q-79 0 -138 45.5t-59 122.5q0 39 12.5 70t39 55.5t48.5 39.5t60 36q-67 36 -103 75.5t-36 104.5q0 69 51.5 114t124.5 45t124.5 -45t51.5 -114q0 -63 -35 -101.5t-102 -75.5q36 -20 59.5 -35.5t48.5 -40t37.5 -56.5t12.5 -72zM380 539
q0 55 -35.5 88.5t-91.5 33.5t-91.5 -33t-35.5 -89q0 -54 33 -88t97 -69q61 35 92.5 69t31.5 88zM398 158q0 66 -37.5 105t-108.5 77q-34 -19 -55 -33t-44 -36t-34 -50t-11 -62q0 -59 42.5 -94.5t102.5 -35.5q62 0 103.5 36.5t41.5 92.5z" />
    <glyph glyph-name="nine.osf" horiz-adv-x="512" 
d="M450 293q0 -167 -89 -284t-247 -168l-14 36q112 40 178 102t105 176q-52 -21 -110 -21q-99 0 -157 54.5t-58 153.5q0 84 49.5 145.5t143.5 61.5t146.5 -67t52.5 -189zM398 294q0 104 -37.5 161t-111.5 57q-69 0 -103.5 -49.5t-34.5 -120.5q0 -85 42.5 -129t124.5 -44
q56 0 111 21q9 44 9 104z" />
    <glyph glyph-name="cent.osf" horiz-adv-x="428" 
d="M374 134q-39 -28 -100 -30v-104h-37v106q-80 9 -126.5 67.5t-46.5 151.5q0 90 46.5 150t126.5 70v102h37v-100q63 -2 100 -29l-16 -32q-37 23 -86 23q-77 0 -116 -49.5t-39 -133.5q0 -82 40 -132t115 -50q49 0 86 23z" />
    <glyph glyph-name="sterling.osf" 
d="M444 0h-357q86 95 86 192q0 40 -10 78h-89v35h79q-15 51 -15 86q0 70 43 114t129 44q78 0 131 -36l-18 -34q-46 30 -109 30t-92.5 -32.5t-29.5 -85.5q0 -34 12 -86h145v-35h-137q7 -37 7 -78q0 -37 -14.5 -78t-36.5 -69h276v-45z" />
    <glyph glyph-name="currency.osf" horiz-adv-x="546" 
d="M486 98l-30 -30l-70 70q-45 -53 -113 -53t-113 53l-70 -70l-30 30l76 76q-24 48 -24 107t24 107l-76 76l30 30l70 -70q45 53 113 53t113 -53l70 70l30 -30l-76 -76q24 -48 24 -107t-24 -107zM386 282q0 72 -32 117.5t-81 45.5t-81 -45.5t-32 -117.5t32 -117.5t81 -45.5
t81 45.5t32 117.5z" />
    </font>
</defs>
</svg>
